<svg width="26" height="25" viewBox="0 0 26 25" fill="none" xmlns="http://www.w3.org/2000/svg">
<path d="M16.4425 9.5C17.65 9.5 18.63 10.48 18.63 11.6875V15.75H18.625V16.0625C18.625 16.3111 18.5262 16.5496 18.3504 16.7254C18.1746 16.9012 17.9361 17 17.6875 17C17.4389 17 17.2004 16.9012 17.0246 16.7254C16.8488 16.5496 16.75 16.3111 16.75 16.0625V13.25H16.755V11.6875C16.755 11.6046 16.7221 11.5251 16.6635 11.4665C16.6049 11.4079 16.5254 11.375 16.4425 11.375H9.565C9.48212 11.375 9.40263 11.4079 9.34403 11.4665C9.28542 11.5251 9.2525 11.6046 9.2525 11.6875V15.75H9.25V16.0625C9.25 16.3111 9.15123 16.5496 8.97541 16.7254C8.7996 16.9012 8.56114 17 8.3125 17C8.06386 17 7.8254 16.9012 7.64959 16.7254C7.47377 16.5496 7.375 16.3111 7.375 16.0625V13.25H7.3775V11.6875C7.3775 10.48 8.35625 9.5 9.565 9.5H16.4425ZM23.625 11.6875V16.0625C23.625 16.3111 23.7238 16.5496 23.8996 16.7254C24.0754 16.9012 24.3139 17 24.5625 17C24.8111 17 25.0496 16.9012 25.2254 16.7254C25.4012 16.5496 25.5 16.3111 25.5 16.0625V11.6875C25.5 11.1073 25.2695 10.5509 24.8593 10.1407C24.4491 9.73047 23.8927 9.5 23.3125 9.5H19.0937C19.5225 10.0188 19.8025 10.665 19.8662 11.375H23.3125C23.3954 11.375 23.4749 11.4079 23.5335 11.4665C23.5921 11.5251 23.625 11.6046 23.625 11.6875ZM0.5 16.0625C0.5 16.3111 0.598772 16.5496 0.774587 16.7254C0.950403 16.9012 1.18886 17 1.4375 17C1.68614 17 1.9246 16.9012 2.10041 16.7254C2.27623 16.5496 2.375 16.3111 2.375 16.0625V11.6875C2.375 11.6046 2.40792 11.5251 2.46653 11.4665C2.52513 11.4079 2.60462 11.375 2.6875 11.375H6.14125C6.20342 10.6863 6.47275 10.0326 6.91375 9.5H2.6875C2.10734 9.5 1.55094 9.73047 1.1407 10.1407C0.730468 10.5509 0.5 11.1073 0.5 11.6875V16.0625ZM13 0.75C13.9946 0.75 14.9484 1.14509 15.6516 1.84835C16.3549 2.55161 16.75 3.50544 16.75 4.5C16.75 5.49456 16.3549 6.44839 15.6516 7.15165C14.9484 7.85491 13.9946 8.25 13 8.25C12.0054 8.25 11.0516 7.85491 10.3483 7.15165C9.64509 6.44839 9.25 5.49456 9.25 4.5C9.25 3.50544 9.64509 2.55161 10.3483 1.84835C11.0516 1.14509 12.0054 0.75 13 0.75ZM13 2.625C12.5027 2.625 12.0258 2.82254 11.6742 3.17417C11.3225 3.52581 11.125 4.00272 11.125 4.5C11.125 4.99728 11.3225 5.47419 11.6742 5.82583C12.0258 6.17746 12.5027 6.375 13 6.375C13.4973 6.375 13.9742 6.17746 14.3258 5.82583C14.6775 5.47419 14.875 4.99728 14.875 4.5C14.875 4.00272 14.6775 3.52581 14.3258 3.17417C13.9742 2.82254 13.4973 2.625 13 2.625ZM21.125 2C21.9538 2 22.7487 2.32924 23.3347 2.91529C23.9208 3.50134 24.25 4.2962 24.25 5.125C24.25 5.9538 23.9208 6.74866 23.3347 7.33471C22.7487 7.92076 21.9538 8.25 21.125 8.25C20.2962 8.25 19.5013 7.92076 18.9153 7.33471C18.3292 6.74866 18 5.9538 18 5.125C18 4.2962 18.3292 3.50134 18.9153 2.91529C19.5013 2.32924 20.2962 2 21.125 2ZM21.125 3.875C20.7935 3.875 20.4755 4.0067 20.2411 4.24112C20.0067 4.47554 19.875 4.79348 19.875 5.125C19.875 5.45652 20.0067 5.77446 20.2411 6.00888C20.4755 6.2433 20.7935 6.375 21.125 6.375C21.4565 6.375 21.7745 6.2433 22.0089 6.00888C22.2433 5.77446 22.375 5.45652 22.375 5.125C22.375 4.79348 22.2433 4.47554 22.0089 4.24112C21.7745 4.0067 21.4565 3.875 21.125 3.875ZM4.875 2C5.7038 2 6.49866 2.32924 7.08471 2.91529C7.67076 3.50134 8 4.2962 8 5.125C8 5.9538 7.67076 6.74866 7.08471 7.33471C6.49866 7.92076 5.7038 8.25 4.875 8.25C4.0462 8.25 3.25134 7.92076 2.66529 7.33471C2.07924 6.74866 1.75 5.9538 1.75 5.125C1.75 4.2962 2.07924 3.50134 2.66529 2.91529C3.25134 2.32924 4.0462 2 4.875 2ZM4.875 3.875C4.54348 3.875 4.22554 4.0067 3.99112 4.24112C3.7567 4.47554 3.625 4.79348 3.625 5.125C3.625 5.45652 3.7567 5.77446 3.99112 6.00888C4.22554 6.2433 4.54348 6.375 4.875 6.375C5.20652 6.375 5.52446 6.2433 5.75888 6.00888C5.9933 5.77446 6.125 5.45652 6.125 5.125C6.125 4.79348 5.9933 4.47554 5.75888 4.24112C5.52446 4.0067 5.20652 3.875 4.875 3.875ZM1.4375 18.25C1.18886 18.25 0.950403 18.3488 0.774587 18.5246C0.598772 18.7004 0.5 18.9389 0.5 19.1875V19.8125C0.5 21.0557 0.99386 22.248 1.87294 23.1271C2.75201 24.0061 3.9443 24.5 5.1875 24.5H20.8125C22.0557 24.5 23.248 24.0061 24.1271 23.1271C25.0061 22.248 25.5 21.0557 25.5 19.8125V19.1875C25.5 18.9389 25.4012 18.7004 25.2254 18.5246C25.0496 18.3488 24.8111 18.25 24.5625 18.25H1.4375ZM5.1875 22.625C4.4957 22.625 3.82818 22.37 3.31255 21.9088C2.79692 21.4476 2.46937 20.8125 2.3925 20.125H23.6075C23.5306 20.8125 23.2031 21.4476 22.6874 21.9088C22.1718 22.37 21.5043 22.625 20.8125 22.625H5.1875Z" fill="#023047"/>
</svg>
