<svg width="26" height="20" viewBox="0 0 26 20" fill="none" xmlns="http://www.w3.org/2000/svg">
<path fill-rule="evenodd" clip-rule="evenodd" d="M14.908 12.052C15.1292 12.0121 15.3534 11.9921 15.5781 11.9922C16.0506 11.9922 16.5027 12.0796 16.9192 12.2391L18.5763 9.88281L18.6395 9.91867C18.0252 9.23224 17.6862 8.34305 17.6875 7.42188C17.6875 5.35082 19.3664 3.67188 21.4375 3.67188C23.5086 3.67188 25.1875 5.35082 25.1875 7.42188C25.1875 9.49293 23.5086 11.1719 21.4375 11.1719C21.0072 11.1719 20.5938 11.0993 20.2088 10.966L18.5318 13.4314C19.049 14.0905 19.3295 14.9044 19.3281 15.7422C19.3281 17.8132 17.6492 19.4922 15.5781 19.4922C13.5071 19.4922 11.8281 17.8132 11.8281 15.7422C11.8281 14.5976 12.3409 13.5728 13.1493 12.8849L10.716 8.04742C10.465 8.09917 10.2094 8.12516 9.95312 8.125C9.63041 8.12524 9.30901 8.08388 8.99687 8.00195L7.27234 11.0406C7.98555 11.7232 8.42969 12.6848 8.42969 13.75C8.42969 15.8211 6.75074 17.5 4.67969 17.5C2.60863 17.5 0.929688 15.8211 0.929688 13.75C0.929688 11.6789 2.60863 10 4.67969 10C4.99082 10 5.29305 10.0379 5.58203 10.1092L7.31746 7.04242C6.62945 6.36285 6.20312 5.41879 6.20312 4.375C6.20312 2.30395 7.88207 0.625 9.95312 0.625C12.0242 0.625 13.7031 2.30395 13.7031 4.375C13.7031 5.49566 13.2115 6.50148 12.4323 7.18867L14.908 12.052ZM21.4375 9.29688C22.4731 9.29688 23.3125 8.45746 23.3125 7.42188C23.3125 6.38629 22.4731 5.54688 21.4375 5.54688C20.4019 5.54688 19.5625 6.38629 19.5625 7.42188C19.5625 8.45746 20.4019 9.29688 21.4375 9.29688ZM4.67969 15.625C5.71527 15.625 6.55469 14.7856 6.55469 13.75C6.55469 12.7144 5.71527 11.875 4.67969 11.875C3.6441 11.875 2.80469 12.7144 2.80469 13.75C2.80469 14.7856 3.6441 15.625 4.67969 15.625ZM9.95312 6.25C10.9887 6.25 11.8281 5.41059 11.8281 4.375C11.8281 3.33941 10.9887 2.5 9.95312 2.5C8.91754 2.5 8.07812 3.33941 8.07812 4.375C8.07812 5.41059 8.91754 6.25 9.95312 6.25ZM15.5781 17.6172C16.6137 17.6172 17.4531 16.7778 17.4531 15.7422C17.4531 14.7066 16.6137 13.8672 15.5781 13.8672C14.5425 13.8672 13.7031 14.7066 13.7031 15.7422C13.7031 16.7778 14.5425 17.6172 15.5781 17.6172Z" fill="#023047"/>
</svg>
