<svg width="26" height="20" viewBox="0 0 26 20" fill="none" xmlns="http://www.w3.org/2000/svg">
<path d="M20.5 8.75V11.25H25.5V8.75H20.5ZM18 17.0125C19.2 17.9 20.7625 19.075 22 20C22.5 19.3375 23 18.6625 23.5 18C22.2625 17.075 20.7 15.9 19.5 15C19 15.675 18.5 16.35 18 17.0125ZM23.5 2C23 1.3375 22.5 0.6625 22 0C20.7625 0.925 19.2 2.1 18 3C18.5 3.6625 19 4.3375 19.5 5C20.7 4.1 22.2625 2.9375 23.5 2ZM3 6.25C1.625 6.25 0.5 7.375 0.5 8.75V11.25C0.5 12.625 1.625 13.75 3 13.75H4.25V18.75H6.75V13.75H8L14.25 17.5V2.5L8 6.25H3ZM9.2875 8.3875L11.75 6.9125V13.0875L9.2875 11.6125L8.6875 11.25H3V8.75H8.6875L9.2875 8.3875ZM17.375 10C17.375 8.3375 16.65 6.8375 15.5 5.8125V14.175C16.65 13.1625 17.375 11.6625 17.375 10Z" fill="#023047"/>
</svg>
