<svg width="274" height="201" viewBox="0 0 274 201" fill="none" xmlns="http://www.w3.org/2000/svg">
<g clip-path="url(#clip0_25_367)">
<path d="M106.382 180.092C104.907 180.726 103.325 180.885 101.785 180.553C100.246 180.221 98.8031 179.41 97.5946 178.197C94.5168 175.034 93.5519 169.824 92.7667 165L90.4443 150.73L95.3064 154.829C98.803 157.776 102.378 160.818 104.799 165.087C107.22 169.356 108.277 175.184 106.332 179.804" fill="#E6E6E6"/>
<path d="M105.966 197.368C106.458 192.979 106.964 188.535 106.619 184.099C106.313 180.16 105.331 176.313 103.332 173.158C102.272 171.487 100.981 170.055 99.5181 168.927C99.1367 168.632 98.7856 169.372 99.1654 169.666C101.696 171.624 103.654 174.516 104.756 177.924C105.973 181.714 106.169 185.845 105.959 189.871C105.832 192.306 105.563 194.725 105.292 197.14C105.271 197.25 105.284 197.365 105.33 197.462C105.375 197.56 105.449 197.633 105.536 197.667C105.626 197.696 105.721 197.681 105.801 197.625C105.882 197.569 105.941 197.477 105.966 197.368Z" fill="#F2F2F2"/>
<path d="M101.226 189.602C100.594 190.779 99.7248 191.736 98.7025 192.382C97.6803 193.028 96.5393 193.341 95.3897 193.29C92.4351 193.118 89.972 190.594 87.7546 188.197L81.1963 181.108L85.5368 180.854C88.6583 180.671 91.8603 180.501 94.8334 181.679C97.8065 182.857 100.548 185.694 101.092 189.461" fill="#E6E6E6"/>
<path d="M107.357 199.89C104.988 194.76 102.241 189.057 97.3319 187.235C95.9669 186.73 94.5357 186.549 93.1152 186.702C92.6675 186.749 92.7793 187.594 93.2262 187.547C95.6072 187.305 97.9836 188.074 99.9553 189.726C101.853 191.307 103.33 193.505 104.58 195.836C105.346 197.264 106.032 198.752 106.719 200.239C106.938 200.714 107.579 200.371 107.357 199.89V199.89Z" fill="#F2F2F2"/>
<path d="M170.842 97.1056L119.203 149.502C118.553 150.159 117.717 150.475 116.877 150.379C116.038 150.282 115.264 149.782 114.725 148.988L92.9567 116.834C92.4195 116.039 92.1618 115.015 92.2404 113.987C92.319 112.959 92.7274 112.012 93.3759 111.352L145.015 58.9564C145.665 58.2987 146.501 57.9833 147.341 58.0795C148.18 58.1757 148.954 58.6756 149.493 59.4695L171.261 91.6239C171.799 92.4194 172.056 93.4432 171.978 94.4709C171.899 95.4986 171.491 96.4461 170.842 97.1056Z" fill="#CCCCCC"/>
<path d="M168.773 95.5282L118.321 146.72C117.986 147.058 117.555 147.221 117.123 147.171C116.69 147.122 116.292 146.864 116.014 146.455L95.2297 115.754C94.9529 115.344 94.8202 114.817 94.8607 114.288C94.9011 113.758 95.1115 113.27 95.4456 112.93L145.898 61.7388C146.233 61.4 146.663 61.2375 147.096 61.2871C147.528 61.3366 147.927 61.5942 148.205 62.0032L168.989 92.7042C169.266 93.114 169.399 93.6414 169.358 94.1709C169.318 94.7003 169.107 95.1884 168.773 95.5282Z" fill="white"/>
<path d="M171.099 106.244L160.722 105.055L168.149 97.8989L172.15 103.809C172.306 104.034 172.403 104.312 172.428 104.606C172.452 104.9 172.404 105.196 172.289 105.456C172.214 105.633 172.11 105.789 171.986 105.917C171.863 106.04 171.721 106.133 171.569 106.189C171.417 106.245 171.257 106.264 171.099 106.244Z" fill="#CCCCCC"/>
<path d="M150.261 83.4893L124.738 109.386C124.582 109.544 124.402 109.663 124.208 109.736C124.015 109.81 123.812 109.835 123.61 109.812C123.408 109.789 123.213 109.718 123.034 109.602C122.854 109.486 122.696 109.328 122.567 109.137C122.437 108.947 122.34 108.726 122.28 108.49C122.221 108.253 122.2 108.004 122.219 107.757C122.237 107.51 122.296 107.27 122.39 107.051C122.485 106.832 122.614 106.638 122.77 106.48L148.293 80.5827C148.449 80.4245 148.628 80.3055 148.822 80.2324C149.015 80.1593 149.219 80.1336 149.42 80.1567C149.622 80.1798 149.818 80.2513 149.997 80.367C150.176 80.4828 150.335 80.6407 150.464 80.8315C150.593 81.0224 150.69 81.2425 150.75 81.4793C150.81 81.7162 150.831 81.9651 150.812 82.2119C150.793 82.4587 150.735 82.6986 150.64 82.9177C150.545 83.1369 150.416 83.3311 150.261 83.4893Z" fill="#CCCCCC"/>
<path d="M137.769 85.7447L120.556 103.21C120.241 103.529 119.836 103.683 119.428 103.636C119.021 103.589 118.646 103.347 118.385 102.961C118.124 102.576 117.999 102.079 118.037 101.581C118.075 101.082 118.273 100.623 118.588 100.303L135.801 82.8381C136.116 82.5186 136.522 82.3654 136.929 82.412C137.336 82.4587 137.711 82.7014 137.972 83.0869C138.233 83.4723 138.358 83.9689 138.32 84.4673C138.282 84.9657 138.084 85.4252 137.769 85.7447Z" fill="#CCCCCC"/>
<path d="M111.098 121.464C113.759 121.464 115.916 118.823 115.916 115.565C115.916 112.307 113.759 109.667 111.098 109.667C108.436 109.667 106.279 112.307 106.279 115.565C106.279 118.823 108.436 121.464 111.098 121.464Z" fill="#6C63FF"/>
<path d="M149.425 103.741C150.276 103.741 150.966 102.896 150.966 101.853C150.966 100.811 150.276 99.9658 149.425 99.9658C148.573 99.9658 147.883 100.811 147.883 101.853C147.883 102.896 148.573 103.741 149.425 103.741Z" fill="#E6E6E6"/>
<path d="M153.579 99.5251C154.431 99.5251 155.121 98.6801 155.121 97.6376C155.121 96.5951 154.431 95.75 153.579 95.75C152.728 95.75 152.038 96.5951 152.038 97.6376C152.038 98.6801 152.728 99.5251 153.579 99.5251Z" fill="#E6E6E6"/>
<path d="M157.734 95.3098C158.586 95.3098 159.276 94.4647 159.276 93.4222C159.276 92.3798 158.586 91.5347 157.734 91.5347C156.883 91.5347 156.192 92.3798 156.192 93.4222C156.192 94.4647 156.883 95.3098 157.734 95.3098Z" fill="#E6E6E6"/>
<path d="M133.159 196.603L136.699 196.603L138.383 179.888L133.159 179.889L133.159 196.603Z" fill="#FFB8B8"/>
<path d="M132.256 195.188L139.227 195.188H139.228C139.811 195.188 140.389 195.329 140.928 195.602C141.467 195.875 141.956 196.276 142.369 196.781C142.781 197.286 143.109 197.885 143.332 198.545C143.555 199.205 143.67 199.912 143.67 200.626V200.803L132.257 200.804L132.256 195.188Z" fill="#2F2E41"/>
<path d="M120.456 196.603L123.995 196.603L125.679 179.888L120.455 179.889L120.456 196.603Z" fill="#FFB8B8"/>
<path d="M119.553 195.188L126.524 195.188H126.524C127.107 195.188 127.685 195.329 128.224 195.602C128.763 195.875 129.253 196.276 129.665 196.781C130.078 197.286 130.405 197.885 130.628 198.545C130.851 199.205 130.966 199.912 130.966 200.626V200.803L119.553 200.804L119.553 195.188Z" fill="#2F2E41"/>
<path d="M124.008 191.489H124.007L120.997 191.488C120.66 191.489 120.336 191.33 120.094 191.044C119.852 190.758 119.71 190.367 119.699 189.955L119.604 186.731C118.843 160.949 118.057 134.289 122.93 122.306L122.968 122.212L139.102 121.497L142.341 157.873C142.479 159.424 142.429 160.992 142.191 162.526L137.909 190.149C137.851 190.523 137.685 190.86 137.442 191.097C137.198 191.334 136.893 191.457 136.582 191.442L133.201 191.308C133.023 191.299 132.85 191.246 132.69 191.152C132.53 191.059 132.388 190.926 132.271 190.762C132.155 190.598 132.067 190.407 132.014 190.201C131.96 189.994 131.941 189.776 131.959 189.56L134.614 164.012C134.705 162.909 134.623 161.795 134.373 160.73L131.07 146.594C131.043 146.477 130.984 146.375 130.902 146.305C130.821 146.235 130.723 146.202 130.624 146.21C130.524 146.219 130.431 146.269 130.358 146.352C130.286 146.435 130.239 146.546 130.225 146.666L125.294 190.117C125.25 190.497 125.096 190.845 124.86 191.096C124.623 191.348 124.321 191.488 124.008 191.489Z" fill="#2F2E41"/>
<path d="M125.937 85.1296C129.854 85.1296 133.028 81.2428 133.028 76.4481C133.028 71.6534 129.854 67.7666 125.937 67.7666C122.021 67.7666 118.846 71.6534 118.846 76.4481C118.846 81.2428 122.021 85.1296 125.937 85.1296Z" fill="#FFB8B8"/>
<path d="M138.346 124.182H123.672C123.485 124.182 123.301 124.133 123.131 124.038C122.962 123.943 122.811 123.805 122.689 123.632C122.567 123.459 122.477 123.256 122.424 123.037C122.372 122.818 122.359 122.588 122.386 122.362L123.111 116.283L118.854 101.949C118.415 100.469 118.251 98.8876 118.376 97.3205C118.501 95.7533 118.911 94.2403 119.576 92.8923C120.24 91.5444 121.143 90.3957 122.218 89.5306C123.292 88.6654 124.512 88.1058 125.786 87.8927C127.602 87.5827 129.451 87.9925 131.062 89.062C132.674 90.1316 133.964 91.8047 134.742 93.8364L135.678 96.272L139.623 122.302C139.658 122.531 139.651 122.767 139.603 122.993C139.555 123.219 139.467 123.429 139.345 123.609C139.223 123.788 139.07 123.933 138.897 124.032C138.725 124.131 138.536 124.182 138.346 124.182H138.346Z" fill="#6C63FF"/>
<path d="M107.369 139.43C107.811 139.304 108.225 139.061 108.582 138.719C108.939 138.376 109.23 137.942 109.435 137.447C109.64 136.952 109.753 136.408 109.768 135.853C109.782 135.298 109.697 134.746 109.519 134.236L120.953 102.61L114.412 100.593L105.229 132.314C104.549 132.738 104.02 133.453 103.741 134.323C103.462 135.193 103.454 136.158 103.718 137.036C103.982 137.913 104.499 138.641 105.172 139.082C105.845 139.523 106.627 139.647 107.369 139.43H107.369Z" fill="#FFB8B8"/>
<path d="M119.405 108.266L113.043 104.621C112.862 104.517 112.702 104.367 112.572 104.18C112.443 103.993 112.348 103.775 112.294 103.539C112.24 103.304 112.228 103.057 112.259 102.815C112.29 102.573 112.363 102.343 112.473 102.139L116.339 94.9906C116.779 93.8606 117.566 92.9898 118.528 92.5689C119.491 92.1481 120.55 92.2115 121.475 92.7453C122.399 93.2791 123.113 94.2398 123.46 95.4168C123.807 96.5939 123.759 97.8913 123.326 99.0248L121.327 107.212C121.27 107.447 121.172 107.663 121.04 107.847C120.908 108.031 120.745 108.178 120.563 108.278C120.381 108.378 120.183 108.429 119.983 108.427C119.783 108.425 119.586 108.37 119.405 108.266H119.405Z" fill="#6C63FF"/>
<path d="M155.067 58.0479C155.205 58.5766 155.247 59.136 155.189 59.6866C155.132 60.2372 154.976 60.7657 154.734 61.2348C154.491 61.7039 154.168 62.1022 153.786 62.4016C153.404 62.701 152.973 62.8943 152.524 62.9679L136.191 91.1868L131.426 85.3417L148.979 59.4414C148.928 58.5089 149.159 57.5859 149.626 56.8473C150.094 56.1088 150.767 55.606 151.518 55.4342C152.268 55.2624 153.044 55.4336 153.698 55.9153C154.352 56.397 154.839 57.1558 155.067 58.0479Z" fill="#FFB8B8"/>
<path d="M139.968 87.8746C139.991 88.1176 139.971 88.3639 139.91 88.5967C139.848 88.8294 139.746 89.0432 139.611 89.2234L134.891 95.5184C134.317 96.555 133.432 97.271 132.428 97.5093C131.424 97.7477 130.384 97.4891 129.536 96.7901C128.688 96.0911 128.1 95.0088 127.903 93.7805C127.705 92.5522 127.914 91.2782 128.482 90.2378L131.518 82.5119C131.604 82.2914 131.729 82.0964 131.882 81.9401C132.036 81.7838 132.216 81.6699 132.409 81.6062C132.602 81.5424 132.803 81.5303 133.001 81.5707C133.198 81.6111 133.385 81.7031 133.551 81.8403L139.366 86.6628C139.532 86.7999 139.671 86.9792 139.775 87.1883C139.879 87.3974 139.945 87.6315 139.968 87.8746Z" fill="#6C63FF"/>
<path d="M135.255 72.814C135.25 72.0283 135.161 71.2468 134.989 70.4896C133.847 65.3211 129.629 62.219 125.397 62.9975C124.573 62.7085 123.721 62.5624 122.865 62.5635C120.686 62.5635 118.58 63.5171 116.925 65.2522C115.271 66.9873 114.178 69.3894 113.843 72.0247L110.424 98.9706H128.903L131.886 75.456C131.997 74.5822 132.023 73.6954 131.964 72.814H135.255Z" fill="#2F2E41"/>
<path d="M158.221 201H97.3004C97.2239 201 97.1504 200.963 97.0963 200.896C97.0421 200.83 97.0117 200.74 97.0117 200.646C97.0117 200.553 97.0421 200.463 97.0963 200.397C97.1504 200.33 97.2239 200.293 97.3004 200.293H158.221C158.298 200.293 158.371 200.33 158.426 200.397C158.48 200.463 158.51 200.553 158.51 200.646C158.51 200.74 158.48 200.83 158.426 200.896C158.371 200.963 158.298 201 158.221 201Z" fill="#CCCCCC"/>
<path d="M219.596 27.4529C220.018 27.4031 220.445 27.4673 220.845 27.6411C221.245 27.8148 221.609 28.0938 221.911 28.4584C222.214 28.823 222.447 29.2644 222.595 29.7514C222.743 30.2384 222.802 30.7592 222.768 31.2771L232.211 36.3653L227.707 39.925L219.43 34.5474C218.723 34.4195 218.079 33.9785 217.62 33.3081C217.16 32.6376 216.918 31.7843 216.939 30.9098C216.959 30.0353 217.241 29.2004 217.731 28.5632C218.22 27.9261 218.884 27.531 219.596 27.4529V27.4529Z" fill="#A0616A"/>
<path d="M257.688 21.1057C261.604 21.1057 264.779 17.2189 264.779 12.4242C264.779 7.62952 261.604 3.74268 257.688 3.74268C253.771 3.74268 250.596 7.62952 250.596 12.4242C250.596 17.2189 253.771 21.1057 257.688 21.1057Z" fill="#A0616A"/>
<path d="M244.853 136.214L241.313 136.213L239.629 119.499L244.854 119.499L244.853 136.214Z" fill="#A0616A"/>
<path d="M245.756 140.414L234.342 140.414V140.237C234.342 139.523 234.457 138.815 234.68 138.156C234.904 137.496 235.231 136.896 235.643 136.391C236.056 135.886 236.546 135.486 237.085 135.212C237.624 134.939 238.201 134.798 238.785 134.798H238.785L245.756 134.799L245.756 140.414Z" fill="#2F2E41"/>
<path d="M259.578 136.214L256.038 136.213L254.354 119.499L259.579 119.499L259.578 136.214Z" fill="#A0616A"/>
<path d="M260.481 140.414L249.067 140.414V140.237C249.067 139.523 249.182 138.815 249.406 138.156C249.629 137.496 249.956 136.896 250.369 136.391C250.781 135.886 251.271 135.486 251.81 135.212C252.349 134.939 252.926 134.798 253.51 134.798H253.51L260.481 134.799L260.481 140.414Z" fill="#2F2E41"/>
<path d="M259.41 132.653C259.357 132.653 259.304 132.649 259.252 132.641L254.07 131.861C253.767 131.815 253.486 131.64 253.278 131.366C253.069 131.092 252.947 130.737 252.932 130.363L251.422 88.7379C251.417 88.6198 251.379 88.5071 251.316 88.4179C251.252 88.3287 251.166 88.2681 251.072 88.2456C250.977 88.2231 250.878 88.24 250.792 88.2938C250.706 88.3475 250.637 88.4349 250.597 88.5421L246.718 104.372L245.919 129.799C245.912 130.018 245.868 130.233 245.79 130.431C245.712 130.628 245.602 130.804 245.465 130.947C245.329 131.089 245.17 131.196 244.999 131.26C244.827 131.323 244.647 131.343 244.469 131.317L239.982 130.671C239.661 130.626 239.366 130.435 239.153 130.138C238.941 129.84 238.828 129.455 238.835 129.06L239.216 105.125L242.256 67.5547L242.391 67.5609L260.876 68.4332L260.71 131.068C260.708 131.489 260.571 131.892 260.327 132.189C260.084 132.486 259.754 132.653 259.41 132.653H259.41Z" fill="#2F2E41"/>
<path d="M260.176 71.866C260.165 71.866 260.154 71.866 260.142 71.8657L241.525 71.2685C241.343 71.2627 241.164 71.2098 240.999 71.1134C240.834 71.017 240.688 70.8792 240.57 70.7089C240.452 70.5387 240.364 70.3399 240.313 70.1254C240.261 69.911 240.248 69.6857 240.272 69.4642L243.849 37.2311C244.073 35.0546 244.669 32.9603 245.598 31.0849C246.527 29.2095 247.769 27.5951 249.243 26.3471C250.539 25.2548 252.011 24.5146 253.56 24.1764C255.11 23.8383 256.7 23.9099 258.225 24.3865C264.723 26.4024 268.621 34.9446 266.914 43.4285L261.438 70.6558C261.367 71.0004 261.205 71.3064 260.976 71.5255C260.748 71.7447 260.466 71.8645 260.176 71.866Z" fill="#3F3D56"/>
<path d="M235.753 46.2702C234.526 46.272 233.325 45.8353 232.298 45.0137L221.442 36.2937C221.283 36.1661 221.149 35.9973 221.049 35.7994C220.949 35.6014 220.886 35.379 220.864 35.1479C220.842 34.9168 220.861 34.6826 220.921 34.4618C220.981 34.241 221.08 34.0391 221.211 33.8701L222.846 31.7563C223.025 31.5245 223.256 31.3639 223.51 31.2954C223.764 31.2269 224.029 31.2536 224.27 31.3721L236.397 37.284L247.631 27.4625C248.156 27.0033 248.754 26.6826 249.386 26.5206C250.017 26.3587 250.67 26.359 251.301 26.5216C251.933 26.6843 252.53 27.0056 253.055 27.4654C253.58 27.9251 254.022 28.5133 254.351 29.1926C254.681 29.872 254.892 30.6277 254.971 31.412C255.05 32.1963 254.995 32.9921 254.809 33.749C254.624 34.506 254.312 35.2076 253.894 35.8095C253.476 36.4114 252.96 36.9004 252.38 37.2457L238.495 45.5018C237.64 46.0087 236.703 46.2714 235.753 46.2702Z" fill="#3F3D56"/>
<path d="M260.145 20.7265C261.355 21.0762 262.814 21.3446 263.679 20.2512C263.832 20.0447 263.969 19.8211 264.088 19.5831L265.218 17.4703C266.084 15.8518 266.965 14.191 267.332 12.309C267.542 11.2275 267.575 10.1057 267.429 9.00847C267.282 7.9113 266.959 6.8607 266.478 5.91773C265.997 4.97476 265.368 4.1582 264.627 3.51549C263.886 2.87278 263.048 2.41672 262.162 2.17382C260.474 1.7112 258.822 0.915204 257.097 1.0604C255.371 1.2056 253.348 1.15793 251.9 0C251.99 0.516224 252.478 2.79713 252.478 2.79713C252.478 2.79713 250.3 5.24265 249.864 5.85244C250.435 5.54221 251.057 5.39655 251.682 5.42665C252.307 5.45675 252.918 5.66181 253.468 6.02607C254.018 6.39033 254.492 6.9041 254.855 7.52788C255.217 8.15167 255.458 8.86887 255.558 9.62436C255.682 10.5525 255.609 11.5819 256.06 12.3436C256.488 13.0682 257.257 13.322 257.902 13.7404C258.833 14.3897 259.544 15.4248 259.907 16.6591C260.269 17.8935 260.259 19.2457 259.879 20.4721L260.145 20.7265Z" fill="#2F2E41"/>
<path d="M251.63 74.9757H192.849C192.11 74.9747 191.402 74.6149 190.879 73.9753C190.357 73.3356 190.063 72.4683 190.062 71.5637V34.9623C190.063 34.0577 190.357 33.1904 190.879 32.5508C191.402 31.9111 192.11 31.5513 192.849 31.5503H251.63C252.369 31.5513 253.078 31.9111 253.6 32.5508C254.123 33.1904 254.417 34.0577 254.417 34.9623V71.5638C254.417 72.4684 254.123 73.3356 253.6 73.9753C253.078 74.6149 252.369 74.9747 251.63 74.9757Z" fill="#CCCCCC"/>
<path d="M250.955 72.4938H193.525C193.144 72.4933 192.779 72.3079 192.51 71.9784C192.241 71.6489 192.089 71.2021 192.089 70.7361V35.789C192.089 35.3229 192.241 34.8762 192.51 34.5466C192.779 34.2171 193.144 34.0318 193.525 34.0312H250.955C251.335 34.0318 251.7 34.2171 251.969 34.5466C252.239 34.8762 252.39 35.3229 252.39 35.789V70.7361C252.39 71.2021 252.239 71.6489 251.969 71.9784C251.7 72.3079 251.335 72.4933 250.955 72.4938Z" fill="white"/>
<path d="M247.629 81.3173L241.17 73.4102L249.451 73.6664V80.3935C249.453 80.6525 249.391 80.9063 249.274 81.1217C249.156 81.337 248.988 81.5039 248.792 81.6005C248.66 81.6679 248.519 81.7028 248.377 81.7033C248.237 81.7027 248.099 81.6683 247.971 81.6021C247.843 81.5358 247.726 81.439 247.629 81.3173Z" fill="#CCCCCC"/>
<path d="M243.962 51.6958H214.909C214.551 51.6958 214.207 51.5215 213.954 51.2113C213.7 50.901 213.558 50.4803 213.558 50.0415C213.558 49.6028 213.7 49.182 213.954 48.8717C214.207 48.5615 214.551 48.3872 214.909 48.3872H243.962C244.321 48.3872 244.664 48.5615 244.918 48.8717C245.171 49.182 245.314 49.6028 245.314 50.0415C245.314 50.4803 245.171 50.901 244.918 51.2113C244.664 51.5215 244.321 51.6958 243.962 51.6958Z" fill="#CCCCCC"/>
<path d="M234.503 44.6651H214.909C214.732 44.6654 214.556 44.6228 214.392 44.5398C214.228 44.4568 214.078 44.335 213.953 44.1814C213.827 44.0277 213.727 43.8453 213.659 43.6444C213.591 43.4435 213.556 43.2282 213.556 43.0107C213.556 42.7933 213.591 42.578 213.659 42.3771C213.727 42.1763 213.827 41.9938 213.953 41.8401C214.078 41.6865 214.228 41.5647 214.392 41.4817C214.556 41.3987 214.732 41.3561 214.909 41.3564H234.503C234.862 41.3564 235.205 41.5307 235.459 41.841C235.712 42.1512 235.854 42.572 235.854 43.0107C235.854 43.4495 235.712 43.8703 235.459 44.1805C235.205 44.4908 234.862 44.6651 234.503 44.6651Z" fill="#CCCCCC"/>
<path d="M202.883 51.6958C205.215 51.6958 207.106 49.3813 207.106 46.5261C207.106 43.671 205.215 41.3564 202.883 41.3564C200.551 41.3564 198.66 43.671 198.66 46.5261C198.66 49.3813 200.551 51.6958 202.883 51.6958Z" fill="#6C63FF"/>
<path d="M235.009 65.1694C235.755 65.1694 236.36 64.4288 236.36 63.5151C236.36 62.6015 235.755 61.8608 235.009 61.8608C234.263 61.8608 233.658 62.6015 233.658 63.5151C233.658 64.4288 234.263 65.1694 235.009 65.1694Z" fill="#E6E6E6"/>
<path d="M239.739 65.1694C240.485 65.1694 241.09 64.4288 241.09 63.5151C241.09 62.6015 240.485 61.8608 239.739 61.8608C238.992 61.8608 238.387 62.6015 238.387 63.5151C238.387 64.4288 238.992 65.1694 239.739 65.1694Z" fill="#E6E6E6"/>
<path d="M244.468 65.1694C245.214 65.1694 245.819 64.4288 245.819 63.5151C245.819 62.6015 245.214 61.8608 244.468 61.8608C243.722 61.8608 243.117 62.6015 243.117 63.5151C243.117 64.4288 243.722 65.1694 244.468 65.1694Z" fill="#E6E6E6"/>
<path d="M250.72 70.6227C250.767 70.1062 250.905 69.6086 251.126 69.1648C251.347 68.721 251.644 68.3418 251.998 68.054C252.351 67.7662 252.752 67.5768 253.172 67.4991C253.591 67.4213 254.02 67.4572 254.427 67.6042L260.428 57.3291L262.352 63.4555L256.359 72.2737C256.112 73.0946 255.627 73.7761 254.997 74.1891C254.367 74.602 253.635 74.7177 252.94 74.5142C252.245 74.3107 251.635 73.8022 251.226 73.0849C250.817 72.3677 250.637 71.4916 250.72 70.6227H250.72Z" fill="#A0616A"/>
<path d="M257.594 70.0687C257.5 70.0784 257.405 70.0755 257.311 70.06C257.123 70.0292 256.942 69.948 256.782 69.8221C256.622 69.6963 256.487 69.5289 256.386 69.3319L255.117 66.8688C254.978 66.5999 254.908 66.2858 254.917 65.9674C254.925 65.6491 255.012 65.3414 255.166 65.0844L262.847 52.164L257.854 36.4079C257.409 35.0216 257.425 33.4762 257.901 32.105C258.377 30.7337 259.274 29.6463 260.399 29.0772C261.035 28.7509 261.721 28.601 262.41 28.6384C263.098 28.6758 263.771 28.8996 264.381 29.2935C264.99 29.6875 265.521 30.2419 265.934 30.9168C266.348 31.5918 266.634 32.3705 266.772 33.1971L269.87 51.7093C270.085 53.0149 270.022 54.3664 269.685 55.633C269.349 56.8997 268.751 58.0385 267.949 58.9393L258.361 69.6583C258.149 69.8952 257.88 70.0395 257.594 70.0687Z" fill="#3F3D56"/>
<path d="M273.711 141.264H212.79C212.714 141.264 212.64 141.227 212.586 141.161C212.532 141.094 212.501 141.004 212.501 140.911C212.501 140.817 212.532 140.727 212.586 140.661C212.64 140.594 212.714 140.557 212.79 140.557H273.711C273.788 140.557 273.861 140.594 273.915 140.661C273.969 140.727 274 140.817 274 140.911C274 141.004 273.969 141.094 273.915 141.161C273.861 141.227 273.788 141.264 273.711 141.264Z" fill="#CCCCCC"/>
<path d="M74.0919 53.2946H15.3105C14.5716 53.2936 13.8632 52.9338 13.3407 52.2941C12.8182 51.6545 12.5243 50.7872 12.5234 49.8826V13.2812C12.5243 12.3765 12.8182 11.5093 13.3407 10.8696C13.8632 10.23 14.5716 9.87016 15.3105 9.86914H74.0919C74.8308 9.87016 75.5392 10.23 76.0617 10.8696C76.5842 11.5093 76.8781 12.3765 76.8789 13.2812V49.8826C76.8781 50.7872 76.5842 51.6545 76.0617 52.2941C75.5392 52.9338 74.8308 53.2936 74.0919 53.2946Z" fill="#CCCCCC"/>
<path d="M73.4161 50.8131H15.986C15.6054 50.8126 15.2404 50.6273 14.9713 50.2977C14.7021 49.9682 14.5507 49.5214 14.5503 49.0554V14.1083C14.5507 13.6423 14.7021 13.1955 14.9713 12.866C15.2404 12.5365 15.6054 12.3511 15.986 12.3506H73.4161C73.7968 12.3511 74.1617 12.5365 74.4309 12.866C74.7 13.1955 74.8514 13.6423 74.8519 14.1083V49.0554C74.8514 49.5214 74.7 49.9682 74.4309 50.2977C74.1617 50.6273 73.7968 50.8126 73.4161 50.8131Z" fill="white"/>
<path d="M70.0902 59.6361L63.6313 51.729L71.912 51.9853V58.7123C71.9142 58.9713 71.8525 59.2251 71.735 59.4405C71.6174 59.6559 71.4495 59.8228 71.2532 59.9193C71.1217 59.9867 70.9806 60.0217 70.838 60.0221C70.6987 60.0216 70.5609 59.9872 70.4325 59.9209C70.3042 59.8546 70.1878 59.7578 70.0902 59.6361Z" fill="#CCCCCC"/>
<path d="M66.4237 30.0147H37.3708C37.0124 30.0147 36.6687 29.8404 36.4153 29.5301C36.1619 29.2199 36.0195 28.7991 36.0195 28.3604C36.0195 27.9216 36.1619 27.5008 36.4153 27.1906C36.6687 26.8803 37.0124 26.7061 37.3708 26.7061H66.4237C66.7821 26.7061 67.1258 26.8803 67.3792 27.1906C67.6326 27.5008 67.775 27.9216 67.775 28.3604C67.775 28.7991 67.6326 29.2199 67.3792 29.5301C67.1258 29.8404 66.7821 30.0147 66.4237 30.0147Z" fill="#CCCCCC"/>
<path d="M56.9646 22.9834H37.3708C37.0124 22.9834 36.6687 22.8091 36.4153 22.4989C36.1619 22.1886 36.0195 21.7679 36.0195 21.3291C36.0195 20.8904 36.1619 20.4696 36.4153 20.1593C36.6687 19.8491 37.0124 19.6748 37.3708 19.6748H56.9646C57.323 19.6748 57.6667 19.8491 57.9201 20.1593C58.1735 20.4696 58.3159 20.8904 58.3159 21.3291C58.3159 21.7679 58.1735 22.1886 57.9201 22.4989C57.6667 22.8091 57.323 22.9834 56.9646 22.9834Z" fill="#CCCCCC"/>
<path d="M25.3444 30.0147C27.6766 30.0147 29.5672 27.7001 29.5672 24.845C29.5672 21.9898 27.6766 19.6753 25.3444 19.6753C23.0122 19.6753 21.1216 21.9898 21.1216 24.845C21.1216 27.7001 23.0122 30.0147 25.3444 30.0147Z" fill="#6C63FF"/>
<path d="M57.4704 43.4883C58.2167 43.4883 58.8217 42.7476 58.8217 41.834C58.8217 40.9203 58.2167 40.1797 57.4704 40.1797C56.7241 40.1797 56.1191 40.9203 56.1191 41.834C56.1191 42.7476 56.7241 43.4883 57.4704 43.4883Z" fill="#E6E6E6"/>
<path d="M62.1999 43.4883C62.9462 43.4883 63.5512 42.7476 63.5512 41.834C63.5512 40.9203 62.9462 40.1797 62.1999 40.1797C61.4536 40.1797 60.8486 40.9203 60.8486 41.834C60.8486 42.7476 61.4536 43.4883 62.1999 43.4883Z" fill="#E6E6E6"/>
<path d="M66.9294 43.4883C67.6757 43.4883 68.2807 42.7476 68.2807 41.834C68.2807 40.9203 67.6757 40.1797 66.9294 40.1797C66.1831 40.1797 65.5781 40.9203 65.5781 41.834C65.5781 42.7476 66.1831 43.4883 66.9294 43.4883Z" fill="#E6E6E6"/>
<path d="M71.654 6.35195C71.2547 6.52796 70.8917 6.80902 70.5907 7.17534C70.2896 7.54167 70.0579 7.98435 69.9117 8.47219C69.7655 8.96004 69.7085 9.48118 69.7446 9.99892C69.7808 10.5167 69.9092 11.0184 70.1209 11.4688L63.3589 21.0089L68.674 21.871L74.2804 12.6793C74.8749 12.1938 75.3033 11.4582 75.4843 10.6119C75.6654 9.76565 75.5866 8.86743 75.2629 8.08751C74.9391 7.30758 74.3929 6.70013 73.7278 6.38025C73.0627 6.06038 72.3248 6.05031 71.654 6.35195Z" fill="#FFB8B8"/>
<path d="M26.5042 10.1716C26.6484 10.6603 26.7033 11.1818 26.6651 11.6993C26.6269 12.2168 26.4965 12.7178 26.2831 13.1669C26.0696 13.6161 25.7783 14.0025 25.4297 14.2989C25.081 14.5953 24.6836 14.7945 24.2653 14.8825L22.5826 27.3444L18.6479 22.8856L20.8491 11.7351C20.7749 10.865 20.964 9.99177 21.3806 9.28094C21.7972 8.57011 22.4123 8.07105 23.1094 7.87832C23.8064 7.6856 24.537 7.8126 25.1627 8.23527C25.7884 8.65794 26.2657 9.3469 26.5042 10.1716V10.1716Z" fill="#FFB8B8"/>
<path d="M37.0719 136.214L40.6116 136.213L42.2955 119.499L37.0713 119.499L37.0719 136.214Z" fill="#FFB8B8"/>
<path d="M36.1689 134.799L43.1399 134.798H43.1402C43.7235 134.798 44.3012 134.939 44.8402 135.212C45.3792 135.486 45.8689 135.886 46.2815 136.391C46.694 136.896 47.0212 137.496 47.2445 138.156C47.4677 138.815 47.5826 139.523 47.5826 140.237V140.414L36.1692 140.414L36.1689 134.799Z" fill="#2F2E41"/>
<path d="M18.8824 136.214L22.4222 136.213L24.106 119.499L18.8818 119.499L18.8824 136.214Z" fill="#FFB8B8"/>
<path d="M17.9795 134.799L24.9504 134.798H24.9507C25.5341 134.798 26.1118 134.939 26.6508 135.212C27.1897 135.486 27.6795 135.886 28.092 136.391C28.5045 136.896 28.8318 137.496 29.055 138.156C29.2783 138.815 29.3932 139.523 29.3932 140.237V140.414L17.9797 140.414L17.9795 134.799Z" fill="#2F2E41"/>
<path d="M36.3331 22.0945C40.2495 22.0945 43.4245 18.2076 43.4245 13.413C43.4245 8.61829 40.2495 4.73145 36.3331 4.73145C32.4166 4.73145 29.2417 8.61829 29.2417 13.413C29.2417 18.2076 32.4166 22.0945 36.3331 22.0945Z" fill="#FFB8B8"/>
<path d="M35.4828 130.66L34.8965 84.9196C34.895 84.7903 34.855 84.6661 34.7839 84.5705C34.7128 84.4748 34.6157 84.4142 34.5107 84.4001C34.4057 84.386 34.3001 84.4194 34.2138 84.494C34.1275 84.5686 34.0664 84.6792 34.0421 84.805L24.4301 129.546C24.3578 129.904 24.1873 130.22 23.9471 130.443C23.7068 130.665 23.4115 130.78 23.1104 130.768L17.8296 130.492C17.6501 130.482 17.4741 130.427 17.3128 130.33C17.1515 130.233 17.0084 130.097 16.8925 129.928C16.7765 129.76 16.6904 129.565 16.6394 129.354C16.5884 129.143 16.5737 128.921 16.5962 128.703L24.7523 71.2086L24.769 71.0464L47.4865 72.3622L47.6347 72.3705L42.7632 130.756C42.7376 131.156 42.5902 131.529 42.3502 131.802C42.1102 132.075 41.7951 132.227 41.4676 132.229H36.7819C36.441 132.227 36.114 132.062 35.8712 131.769C35.6284 131.476 35.489 131.078 35.4828 130.66Z" fill="#2F2E41"/>
<path d="M53.4255 76.237L20.4596 72.925C20.2606 72.9051 20.068 72.8292 19.8969 72.7034C19.7257 72.5776 19.5806 72.4051 19.4727 72.1995C19.3648 71.9939 19.297 71.7605 19.2747 71.5177C19.2524 71.2748 19.2762 71.0289 19.3441 70.799L24.5355 53.2275L24.8343 32.3719C24.8451 31.6148 24.9786 30.8679 25.2271 30.1745C25.4756 29.4811 25.834 28.855 26.2817 28.3325C26.7293 27.81 27.2572 27.4015 27.8349 27.1307C28.4125 26.8599 29.0282 26.7323 29.6465 26.7551L31.8387 24.3223H39.871L40.5704 25.4448L46.1593 26.4962C47.1547 26.6886 48.0733 27.2678 48.7793 28.1482C49.4854 29.0286 49.9414 30.1637 50.0802 31.3857L54.8194 74.4397C54.8441 74.6643 54.8293 74.8927 54.776 75.1098C54.7227 75.3268 54.6321 75.5274 54.5103 75.6981C54.3886 75.8688 54.2384 76.0057 54.07 76.0996C53.9015 76.1935 53.7186 76.2422 53.5334 76.2426C53.4976 76.2426 53.4616 76.2408 53.4255 76.237Z" fill="#2F2E41"/>
<path d="M47.0029 28.5179L61.0591 23.4762L67.4205 13.2229C67.5956 12.9405 67.8428 12.7378 68.1228 12.6471C68.4028 12.5564 68.6995 12.5829 68.9658 12.7224L72.9376 14.8007C73.107 14.8893 73.259 15.021 73.3836 15.187C73.5082 15.3529 73.6026 15.5495 73.6604 15.7635C73.7183 15.9775 73.7383 16.2042 73.7192 16.4284C73.7001 16.6526 73.6422 16.8693 73.5495 17.0641L68.7955 27.0516C68.0213 28.6853 66.843 29.9755 65.4307 30.7357L48.898 39.6829L47.0029 28.5179Z" fill="#2F2E41"/>
<path d="M20.0356 36.0599C19.1956 35.3191 18.5257 34.3257 18.0906 33.1757C17.6555 32.0256 17.4698 30.7577 17.5515 29.4942L18.1683 19.4884C18.1938 19.0888 18.3412 18.7155 18.5813 18.4429C18.8214 18.1704 19.1366 18.0185 19.464 18.0176H19.4755L24.1332 18.0683C24.324 18.0705 24.5121 18.124 24.6841 18.2252C24.856 18.3263 25.0077 18.4726 25.1283 18.6536C25.2489 18.8347 25.3355 19.046 25.3819 19.2726C25.4282 19.4992 25.4333 19.7355 25.3966 19.9648L24.5324 25.3627L30.6996 28.5529L25.5063 40.9218L20.0356 36.0599Z" fill="#2F2E41"/>
<path d="M40.4582 3.00275C40.4582 3.00275 33.0423 -1.88577 29.0002 3.88373C24.958 9.65324 30.5402 18.6755 30.5402 18.6755L38.494 19.9036C38.494 19.9036 38.7827 13.2844 40.6764 13.4129C42.5702 13.5414 48.4516 5.18894 40.4582 3.00275Z" fill="#2F2E41"/>
<path d="M61.2097 140.911H0.288725C0.21215 140.911 0.138712 140.873 0.0845654 140.807C0.0304189 140.741 0 140.651 0 140.557C0 140.463 0.0304189 140.373 0.0845654 140.307C0.138712 140.241 0.21215 140.204 0.288725 140.204H61.2097C61.2863 140.204 61.3597 140.241 61.4139 140.307C61.468 140.373 61.4984 140.463 61.4984 140.557C61.4984 140.651 61.468 140.741 61.4139 140.807C61.3597 140.873 61.2863 140.911 61.2097 140.911Z" fill="#CCCCCC"/>
</g>
<defs>
<clipPath id="clip0_25_367">
<rect width="274" height="201" fill="white"/>
</clipPath>
</defs>
</svg>
