<svg width="6" height="9" viewBox="0 0 6 9" fill="none" xmlns="http://www.w3.org/2000/svg">
<path d="M1.25012 8.87496C1.10409 8.87525 0.962568 8.82439 0.850123 8.73121C0.786837 8.67875 0.734523 8.61431 0.696178 8.54159C0.657833 8.46887 0.63421 8.38931 0.626663 8.30745C0.619116 8.22558 0.627792 8.14304 0.652195 8.06454C0.676598 7.98604 0.716247 7.91312 0.768873 7.84996L3.56887 4.49996L0.868874 1.14371C0.816957 1.07978 0.778188 1.00622 0.754793 0.927261C0.731398 0.848299 0.723839 0.765492 0.732551 0.683599C0.741263 0.601706 0.766074 0.522343 0.805557 0.45007C0.845041 0.377797 0.898419 0.314039 0.962623 0.262463C1.02729 0.205565 1.10302 0.162648 1.18506 0.136405C1.2671 0.110161 1.35367 0.101159 1.43936 0.109962C1.52504 0.118765 1.60798 0.145184 1.68297 0.18756C1.75796 0.229936 1.82338 0.287355 1.87512 0.356213L4.89387 4.10621C4.9858 4.21805 5.03605 4.35832 5.03605 4.50309C5.03605 4.64785 4.9858 4.78813 4.89387 4.89996L1.76887 8.64996C1.70618 8.7256 1.62653 8.78539 1.5364 8.82448C1.44627 8.86357 1.34819 8.88087 1.25012 8.87496Z" fill="#188EAF"/>
</svg>
