<svg width="549" height="615" viewBox="0 0 549 615" fill="none" xmlns="http://www.w3.org/2000/svg">
<g clip-path="url(#clip0_170_347)">
<path d="M525.079 579.674C521.645 580.882 517.957 581.184 514.372 580.552C510.786 579.921 507.424 578.377 504.608 576.068C497.438 570.05 495.187 560.137 493.361 550.956L487.951 523.802L499.278 531.602C507.423 537.21 515.752 542.999 521.392 551.123C527.033 559.247 529.494 570.337 524.963 579.127" fill="#E6E6E6"/>
<path d="M524.111 612.549C525.257 604.198 526.436 595.741 525.632 587.301C524.918 579.806 522.632 572.485 517.975 566.482C515.504 563.301 512.497 560.577 509.089 558.43C508.2 557.87 507.383 559.277 508.267 559.835C514.163 563.561 518.724 569.064 521.291 575.549C524.127 582.761 524.582 590.622 524.09 598.283C523.794 602.916 523.168 607.517 522.536 612.115C522.486 612.323 522.516 612.543 522.622 612.729C522.728 612.915 522.901 613.054 523.105 613.117C523.314 613.173 523.536 613.145 523.723 613.038C523.911 612.932 524.049 612.756 524.107 612.548L524.111 612.549Z" fill="#F2F2F2"/>
<path d="M483.06 473.853H9.18848V0H483.06V473.853Z" fill="white"/>
<path d="M483.06 473.853H9.18848V0H483.06V473.853ZM16.1898 466.852H476.058V7.00116H16.1898V466.852Z" fill="#E5E5E5"/>
<path d="M399.112 74.1345H193.906V80.5266H399.112V74.1345Z" fill="#E5E5E5"/>
<path d="M399.112 90.7539H193.906V97.1459H399.112V90.7539Z" fill="#E5E5E5"/>
<path d="M399.112 107.373H193.906V113.765H399.112V107.373Z" fill="#E5E5E5"/>
<path d="M399.112 216.841H193.906V223.233H399.112V216.841Z" fill="#E5E5E5"/>
<path d="M399.112 233.46H193.906V239.853H399.112V233.46Z" fill="#E5E5E5"/>
<path d="M399.112 250.08H193.906V256.472H399.112V250.08Z" fill="#E5E5E5"/>
<path d="M399.112 359.547H193.906V365.939H399.112V359.547Z" fill="#E5E5E5"/>
<path d="M399.112 376.167H193.906V382.559H399.112V376.167Z" fill="#E5E5E5"/>
<path d="M399.112 392.786H193.906V399.178H399.112V392.786Z" fill="#E5E5E5"/>
<path d="M111.757 125.063C108.251 123.216 104.592 121.676 100.821 120.461L100.34 115.141L80.8351 113.04L78.3562 119.839L71.3565 122.466C71.106 122.561 70.8675 122.685 70.6461 122.836H70.6386C70.2479 123.1 69.9152 123.441 69.6608 123.838C69.4063 124.235 69.2355 124.679 69.1587 125.144C69.0839 125.607 69.1016 126.08 69.2107 126.535L69.5807 128.052C70.1133 128.37 70.661 128.674 71.2083 128.962L71.5563 129.14C72.3554 129.554 73.1694 129.946 74.0055 130.309C74.1756 130.383 74.3606 130.457 74.5308 130.531C74.5456 130.538 74.5529 130.538 74.5677 130.546C74.96 130.709 75.352 130.864 75.7516 131.012C77.0642 131.513 78.403 131.943 79.762 132.299C83.2307 133.224 86.8052 133.691 90.395 133.69C91.7047 133.69 92.9996 133.631 94.2797 133.505C97.2046 133.235 100.092 132.652 102.893 131.767C102.9 131.767 102.907 131.759 102.915 131.759C104.684 131.196 106.412 130.511 108.087 129.71C108.094 129.702 108.109 129.702 108.117 129.695C108.494 129.517 108.857 129.325 109.227 129.14L109.404 129.051C109.7 128.896 109.996 128.74 110.292 128.578C111.032 128.171 111.757 127.741 112.475 127.283C112.674 127.164 112.867 127.039 113.067 126.905C113.348 126.72 113.629 126.528 113.903 126.328C113.215 125.884 112.497 125.463 111.757 125.063Z" fill="#3F3D56"/>
<path d="M75.1523 128.341L73.9315 122.828H70.7423C70.7102 122.829 70.6781 122.831 70.6462 122.836H70.6386C69.4926 122.933 68.3888 123.314 67.4275 123.946C66.7754 124.362 66.1956 124.882 65.7109 125.485C66.6579 126.202 67.6421 126.868 68.6559 127.505L68.7003 127.527C68.9886 127.704 69.2849 127.882 69.5808 128.052C70.1134 128.37 70.6611 128.674 71.2085 128.962L71.5564 129.14C72.3556 129.554 73.1696 129.946 74.0056 130.309C74.1758 130.383 74.3608 130.457 74.5309 130.531C74.5458 130.538 74.553 130.538 74.5678 130.546C74.9602 130.708 75.3522 130.864 75.7518 131.012L75.1523 128.341Z" fill="#3F3D56"/>
<path d="M89.8218 109.676C97.58 109.676 103.869 103.387 103.869 95.6291C103.869 87.8713 97.58 81.5823 89.8218 81.5823C82.0636 81.5823 75.7744 87.8713 75.7744 95.6291C75.7744 103.387 82.0636 109.676 89.8218 109.676Z" fill="#FFB8B8"/>
<path d="M80.3901 88.7872C81.8443 90.508 84.3052 90.9936 86.5753 91.1927C91.8828 91.4858 97.2054 91.0512 102.395 89.9009C102.717 93.0175 101.84 96.378 103.676 98.9417C104.536 95.8379 105.037 92.6454 105.167 89.4272C105.304 88.0464 105.124 86.6526 104.64 85.3521C104.381 84.7004 103.945 84.1343 103.38 83.7182C102.816 83.3022 102.146 83.0527 101.447 82.9983C102.493 82.2044 103.719 81.6804 105.016 81.4724L100.556 79.231L101.701 78.0551L93.6262 77.5609L95.9651 76.0751C92.4449 75.5914 88.8836 75.479 85.3399 75.7397C83.684 75.7405 82.0594 76.192 80.6406 77.046C79.3073 77.9994 78.5369 79.8943 79.3646 81.2941C78.3283 81.4642 77.3526 81.8961 76.53 82.5488C75.7073 83.2015 75.065 84.0534 74.6637 85.0239C74.1563 86.5663 74.0338 88.2095 74.3069 89.8102C74.6111 92.3783 75.208 94.9033 76.0858 97.3359L80.3901 88.7872Z" fill="#2F2E41"/>
<path d="M129.323 80.4019C127.352 74.74 124.17 69.5761 119.998 65.2705C115.826 60.9648 110.766 57.6209 105.169 55.472C99.5718 53.323 93.5734 52.4208 87.592 52.8282C81.6105 53.2356 75.7899 54.9428 70.536 57.8308C65.2822 60.7187 60.7215 64.7179 57.1721 69.5495C53.6228 74.3811 51.17 79.9287 49.9851 85.8055C48.8001 91.6824 48.9114 97.747 50.3111 103.576C51.7109 109.406 54.3654 114.86 58.0896 119.558C58.4596 120.024 58.8444 120.49 59.2367 120.942C59.2664 120.971 59.2884 121.001 59.318 121.03C60.2825 122.142 61.3076 123.199 62.3887 124.197C62.6701 124.456 62.966 124.722 63.2619 124.974C63.8241 125.477 64.4015 125.958 65.0008 126.417C65.2375 126.602 65.4669 126.787 65.7111 126.964C66.6581 127.682 67.6423 128.348 68.6561 128.984L68.7005 129.006C68.9888 129.184 69.2851 129.362 69.581 129.532C70.1136 129.85 70.6613 130.153 71.2087 130.442L71.5566 130.62C72.3558 131.034 73.1698 131.426 74.0058 131.789C74.176 131.863 74.361 131.937 74.5312 132.011C74.546 132.018 74.5532 132.018 74.568 132.025C74.9604 132.188 75.3524 132.344 75.752 132.492C77.0645 132.993 78.4033 133.423 79.7624 133.779C83.231 134.703 86.8056 135.171 90.3953 135.17C91.705 135.17 92.9999 135.111 94.28 134.985C97.2049 134.715 100.092 134.132 102.893 133.246C102.9 133.246 102.908 133.239 102.915 133.239C104.684 132.675 106.412 131.99 108.087 131.189C108.095 131.182 108.109 131.182 108.117 131.175C108.494 130.997 108.857 130.805 109.227 130.62L109.404 130.531C109.7 130.375 109.996 130.22 110.292 130.057C111.032 129.65 111.757 129.221 112.475 128.762C112.675 128.644 112.867 128.518 113.067 128.385C113.348 128.2 113.629 128.008 113.903 127.808C114.265 127.556 114.628 127.297 114.983 127.031C115.094 126.95 115.213 126.868 115.324 126.779C122.256 121.518 127.344 114.197 129.859 105.865C132.374 97.5338 132.186 88.6201 129.323 80.4019V80.4019ZM113.962 124.981C113.718 125.174 113.467 125.359 113.215 125.529C112.971 125.714 112.727 125.892 112.475 126.054C112.26 126.21 112.046 126.358 111.824 126.498L111.757 126.543C111.594 126.654 111.432 126.757 111.269 126.861C110.655 127.245 110.033 127.615 109.404 127.971L109.204 128.082C108.923 128.237 108.642 128.385 108.361 128.533C108.324 128.555 108.28 128.57 108.243 128.592L108.198 128.614C107.843 128.799 107.48 128.977 107.118 129.147C105.719 129.821 104.278 130.404 102.804 130.893C102.612 130.96 102.419 131.027 102.227 131.086C99.5763 131.929 96.8426 132.484 94.073 132.743C92.8594 132.854 91.631 132.913 90.3953 132.913C87 132.92 83.6187 132.477 80.3397 131.596C78.6569 131.157 77.0076 130.598 75.4044 129.924C75.3228 129.887 75.2339 129.857 75.1526 129.82C75.0641 129.783 74.9824 129.754 74.9011 129.717C74.8123 129.68 74.7309 129.643 74.6421 129.598C73.9466 129.295 73.2583 128.962 72.5852 128.614L72.2597 128.444C71.4381 128.015 70.6317 127.556 69.8473 127.068C69.6178 126.927 69.3812 126.779 69.159 126.624C69.1001 126.587 69.0481 126.55 68.9889 126.513C68.4635 126.165 67.9382 125.803 67.4277 125.425C67.0801 125.166 66.7322 124.907 66.3919 124.641C65.8221 124.212 65.2744 123.753 64.7418 123.28C64.4607 123.043 64.1868 122.784 63.9206 122.54C62.8714 121.571 61.8783 120.543 60.946 119.462C60.6353 119.107 60.3318 118.751 60.0431 118.381C59.9775 118.308 59.9158 118.232 59.8581 118.152C55.0506 112.086 52.1589 104.725 51.5518 97.0084C50.9447 89.2919 52.6498 81.5695 56.4497 74.826C60.2495 68.0825 65.9718 62.6235 72.8869 59.1453C79.8019 55.6671 87.5963 54.3272 95.2759 55.2966C102.956 56.2659 110.172 59.5006 116.006 64.5881C121.84 69.6756 126.026 76.3853 128.031 83.8615C130.036 91.3376 129.768 99.2415 127.263 106.565C124.757 113.889 120.127 120.3 113.962 124.981L113.962 124.981Z" fill="#3F3D56"/>
<path d="M129.323 223.108C127.352 217.447 124.17 212.283 119.998 207.977C115.826 203.671 110.766 200.327 105.169 198.178C99.5718 196.03 93.5734 195.127 87.592 195.535C81.6105 195.942 75.7899 197.649 70.536 200.537C65.2822 203.425 60.7216 207.424 57.1722 212.256C53.6228 217.088 51.1701 222.635 49.9851 228.512C48.8001 234.389 48.9113 240.453 50.3111 246.283C51.7108 252.112 54.3654 257.566 58.0896 262.264C58.4595 262.731 58.8443 263.197 59.2363 263.648C59.266 263.678 59.288 263.707 59.3176 263.737C60.2824 264.848 61.3076 265.905 62.3886 266.904C62.6697 267.163 62.9656 267.429 63.2615 267.68C63.8241 268.184 64.4011 268.665 65.0005 269.123C66.1707 270.046 67.391 270.903 68.6557 271.691L68.7001 271.713C69.5214 272.224 70.3574 272.697 71.2086 273.148L71.5562 273.326C72.3554 273.74 73.1694 274.133 74.0054 274.495C74.1756 274.569 74.3606 274.643 74.5308 274.717C74.5456 274.724 74.5531 274.724 74.568 274.732C76.2573 275.434 77.9928 276.02 79.7623 276.485C83.2309 277.41 86.8053 277.877 90.3949 277.876C91.7046 277.876 92.9995 277.817 94.2796 277.691C97.2045 277.421 100.092 276.839 102.893 275.953C102.9 275.953 102.907 275.945 102.915 275.945C104.684 275.382 106.412 274.697 108.087 273.896C108.094 273.888 108.109 273.888 108.117 273.881C108.494 273.703 108.856 273.511 109.226 273.326L109.404 273.237C109.7 273.082 109.996 272.926 110.292 272.764C111.032 272.357 111.757 271.928 112.475 271.469C112.675 271.35 112.867 271.225 113.067 271.091C113.718 270.662 114.362 270.203 114.983 269.737C115.094 269.656 115.212 269.575 115.324 269.486C122.256 264.224 127.344 256.903 129.859 248.572C132.374 240.24 132.186 231.327 129.323 223.108V223.108Z" fill="white"/>
<path d="M103.998 253.648C107.41 253.648 110.176 250.882 110.176 247.47C110.176 244.058 107.41 241.293 103.998 241.293C100.586 241.293 97.8203 244.058 97.8203 247.47C97.8203 250.882 100.586 253.648 103.998 253.648Z" fill="#2F2E41"/>
<path d="M105.719 241.463C106.789 241.463 107.84 241.74 108.769 242.268C109.699 242.796 110.476 243.556 111.024 244.474C111.572 245.392 111.873 246.437 111.896 247.506C111.92 248.575 111.665 249.632 111.158 250.573C111.693 249.903 112.083 249.128 112.303 248.299C112.523 247.47 112.567 246.604 112.434 245.757C112.3 244.91 111.992 244.099 111.528 243.378C111.064 242.656 110.455 242.039 109.74 241.566C109.024 241.093 108.218 240.774 107.373 240.63C106.527 240.485 105.661 240.519 104.829 240.727C103.997 240.936 103.218 241.316 102.541 241.843C101.864 242.369 101.304 243.031 100.896 243.786C101.474 243.061 102.208 242.476 103.043 242.073C103.878 241.671 104.793 241.462 105.72 241.463L105.719 241.463Z" fill="#2F2E41"/>
<path d="M92.4533 247.457C102.476 247.457 110.601 239.332 110.601 229.31C110.601 219.288 102.476 211.163 92.4533 211.163C82.4307 211.163 74.3057 219.288 74.3057 229.31C74.3057 239.332 82.4307 247.457 92.4533 247.457Z" fill="#2F2E41"/>
<path d="M78.2099 218.051C81.3369 214.534 85.7078 212.37 90.4003 212.015C95.0928 211.66 99.7397 213.142 103.36 216.148C103.212 216.006 103.064 215.864 102.911 215.728C99.3262 212.516 94.6124 210.86 89.8065 211.124C85.0007 211.388 80.4966 213.551 77.2851 217.135C74.0735 220.72 72.4176 225.434 72.6816 230.239C72.9457 235.045 75.108 239.549 78.6929 242.76C78.7273 242.791 78.7619 242.822 78.7966 242.853C78.9505 242.989 79.1088 243.119 79.2665 243.25C75.857 240.006 73.841 235.565 73.644 230.864C73.447 226.162 75.0844 221.568 78.2106 218.051L78.2099 218.051Z" fill="#2F2E41"/>
<path d="M92.2993 247.303C98.7545 247.303 103.987 242.07 103.987 235.615C103.987 229.16 98.7545 223.928 92.2993 223.928C85.8442 223.928 80.6113 229.16 80.6113 235.615C80.6113 242.07 85.8442 247.303 92.2993 247.303Z" fill="#A0616A"/>
<path d="M113.215 266.067V269.989C112.497 270.448 111.772 270.877 111.032 271.284C110.736 271.447 110.44 271.602 110.144 271.757L109.966 271.846C109.596 272.031 109.234 272.224 108.857 272.401C108.849 272.409 108.834 272.409 108.827 272.416C107.152 273.217 105.424 273.902 103.655 274.465C103.647 274.465 103.64 274.473 103.633 274.473C100.832 275.359 97.9445 275.942 95.0196 276.212C93.7395 276.337 92.4446 276.397 91.1349 276.397C87.5453 276.398 83.9709 275.93 80.5023 275.006C78.7329 274.54 76.9973 273.955 75.308 273.252C75.2932 273.245 75.2856 273.245 75.2707 273.237C75.1006 273.163 74.9156 273.089 74.7454 273.015C73.9094 272.653 73.0954 272.261 72.2962 271.846L71.9486 271.669C71.0974 271.217 70.2614 270.744 69.4402 270.233L69.3957 270.211C68.131 269.423 66.9108 268.566 65.7405 267.644C65.1411 267.185 64.5641 266.704 64.0016 266.201C63.7057 265.949 63.4097 265.683 63.1287 265.424C62.0476 264.425 61.0223 263.368 60.0576 262.257C60.1856 261.486 60.3737 260.727 60.6202 259.985L60.6274 259.978C60.6717 259.852 60.7236 259.728 60.7827 259.608C60.8236 259.502 60.8705 259.398 60.9233 259.297C62.2478 256.819 64.6454 256.205 67.6199 256.071C69.2996 255.997 71.1567 256.079 73.1178 256.057C74.1536 256.049 75.2263 256.012 76.2994 255.916C83.0697 255.302 81.8417 251.306 82.1448 249.153C82.4483 247.067 84.3278 248.872 84.4535 248.99L84.4607 248.998C88.2921 250.791 92.531 251.534 96.7438 251.151C97.4689 251.062 98.194 251.01 98.9191 250.988C100.828 250.966 100.414 251.513 99.7555 251.965C99.4359 252.175 99.1021 252.363 98.7565 252.527C98.7565 252.527 98.4531 254.377 98.1423 257.144C97.8464 259.793 102.922 261.036 103.344 261.132C103.353 261.138 103.363 261.141 103.374 261.14C105.227 260.659 107.179 260.71 109.005 261.288H109.012C110.055 261.671 110.986 262.309 111.72 263.144C112.454 263.979 112.968 264.984 113.215 266.067Z" fill="#6C63FF"/>
<path d="M75.3812 270.825C75.3812 271.373 75.3668 271.898 75.3444 272.394C75.3371 272.69 75.3223 272.978 75.3075 273.252C75.2927 273.245 75.2851 273.245 75.2703 273.237C75.1001 273.163 74.9151 273.089 74.745 273.015C73.9089 272.653 73.0949 272.261 72.2958 271.846L71.9482 271.669C71.097 271.217 70.261 270.744 69.4397 270.233C69.4618 269.974 69.499 269.715 69.5358 269.456C69.6171 268.887 69.6839 268.309 69.7284 267.74C70.0193 263.737 69.2938 259.726 67.6195 256.079V256.071C67.4713 255.775 67.3828 255.613 67.3828 255.613C67.3828 255.613 69.5358 253.763 72.6064 255.613C72.8026 255.728 72.9758 255.878 73.1173 256.057C74.9672 258.239 75.4701 265.579 75.3812 270.825Z" fill="#2F2E41"/>
<path d="M108.982 269.819C108.952 270.648 108.908 271.513 108.856 272.394V272.401C108.849 272.409 108.834 272.409 108.826 272.416C107.151 273.217 105.423 273.902 103.654 274.466C103.647 274.466 103.64 274.473 103.632 274.473L103.551 272.394L103.543 272.12L103.151 261.998C103.141 261.769 103.177 261.54 103.257 261.325C103.338 261.111 103.461 260.914 103.619 260.748C103.777 260.582 103.968 260.45 104.179 260.36C104.389 260.269 104.616 260.223 104.846 260.222H108.597C108.782 260.222 108.915 260.6 109.004 261.28V261.288C109.186 264.129 109.179 266.979 108.982 269.819Z" fill="#2F2E41"/>
<path d="M82.3027 221.006V232.696H85.0094L88.4538 229.006L87.9929 232.696H99.9576L99.2177 229.006L100.698 232.696H102.605V221.006H82.3027Z" fill="#2F2E41"/>
<path d="M80.4579 234.847C80.9674 234.847 81.3806 234.089 81.3806 233.155C81.3806 232.221 80.9674 231.464 80.4579 231.464C79.9483 231.464 79.5352 232.221 79.5352 233.155C79.5352 234.089 79.9483 234.847 80.4579 234.847Z" fill="#A0616A"/>
<path d="M104.142 234.847C104.652 234.847 105.065 234.089 105.065 233.155C105.065 232.221 104.652 231.464 104.142 231.464C103.633 231.464 103.22 232.221 103.22 233.155C103.22 234.089 103.633 234.847 104.142 234.847Z" fill="#A0616A"/>
<path d="M115.723 268.258C115.102 268.724 114.458 269.182 113.807 269.612C113.607 269.745 113.415 269.871 113.215 269.989C112.497 270.448 111.772 270.877 111.032 271.284C110.736 271.447 110.44 271.602 110.145 271.757V263.604C110.145 263.604 111.328 264.551 113.215 266.127C113.452 266.326 113.696 266.534 113.955 266.756C114.502 267.214 115.095 267.717 115.723 268.258Z" fill="#6C63FF"/>
<path d="M129.323 223.108C127.352 217.447 124.17 212.283 119.998 207.977C115.826 203.671 110.766 200.327 105.169 198.178C99.5718 196.03 93.5734 195.127 87.592 195.535C81.6105 195.942 75.7899 197.649 70.536 200.537C65.2822 203.425 60.7216 207.424 57.1722 212.256C53.6228 217.088 51.1701 222.635 49.9851 228.512C48.8001 234.389 48.9113 240.453 50.3111 246.283C51.7108 252.112 54.3654 257.566 58.0896 262.264C58.4595 262.731 58.8443 263.197 59.2363 263.648C59.266 263.678 59.288 263.707 59.3176 263.737C60.2824 264.848 61.3076 265.905 62.3886 266.904C62.6697 267.163 62.9656 267.429 63.2615 267.68C63.8241 268.184 64.4011 268.665 65.0005 269.123C66.1707 270.046 67.391 270.903 68.6557 271.691L68.7001 271.713C69.5214 272.224 70.3574 272.697 71.2086 273.148L71.5562 273.326C72.3554 273.74 73.1694 274.133 74.0054 274.495C74.1756 274.569 74.3606 274.643 74.5308 274.717C74.5456 274.724 74.5531 274.724 74.568 274.732C76.2573 275.434 77.9928 276.02 79.7623 276.485C83.2309 277.41 86.8053 277.877 90.3949 277.876C91.7046 277.876 92.9995 277.817 94.2796 277.691C97.2045 277.421 100.092 276.839 102.893 275.953C102.9 275.953 102.907 275.945 102.915 275.945C104.684 275.382 106.412 274.697 108.087 273.896C108.094 273.888 108.109 273.888 108.117 273.881C108.494 273.703 108.856 273.511 109.226 273.326L109.404 273.237C109.7 273.082 109.996 272.926 110.292 272.764C111.032 272.357 111.757 271.928 112.475 271.469C112.675 271.35 112.867 271.225 113.067 271.091C113.718 270.662 114.362 270.203 114.983 269.737C115.094 269.656 115.212 269.575 115.324 269.486C122.256 264.224 127.344 256.903 129.859 248.572C132.374 240.24 132.186 231.327 129.323 223.108V223.108ZM113.962 267.688C113.718 267.88 113.466 268.065 113.215 268.235C112.971 268.42 112.726 268.598 112.475 268.761C112.26 268.916 112.046 269.064 111.823 269.205C111.639 269.33 111.454 269.449 111.268 269.567C110.655 269.952 110.033 270.322 109.404 270.677L109.204 270.788C108.923 270.943 108.642 271.091 108.361 271.239C108.324 271.262 108.279 271.276 108.242 271.299L108.198 271.321C107.843 271.506 107.48 271.683 107.118 271.854C105.718 272.527 104.278 273.111 102.804 273.6C102.612 273.666 102.419 273.733 102.227 273.792C99.5759 274.635 96.8422 275.191 94.0726 275.45C92.859 275.56 91.6306 275.62 90.3949 275.62C86.9996 275.627 83.6183 275.184 80.3393 274.303C78.6565 273.863 77.0072 273.305 75.404 272.63C75.2338 272.564 75.0637 272.49 74.9007 272.423C74.8122 272.386 74.7306 272.349 74.6417 272.305C73.9462 272.002 73.2583 271.669 72.5848 271.321L72.2593 271.151C71.4381 270.721 70.6313 270.263 69.8469 269.774C69.5586 269.597 69.2699 269.412 68.9888 269.219C68.1008 268.635 67.2351 268.006 66.3915 267.347C65.8217 266.918 65.2743 266.46 64.7414 265.986C64.4603 265.749 64.1864 265.49 63.9202 265.246C62.8711 264.277 61.878 263.25 60.9456 262.168C60.6349 261.813 60.3315 261.458 60.0428 261.088C59.9771 261.015 59.9154 260.938 59.8578 260.859C55.0502 254.792 52.1585 247.431 51.5514 239.715C50.9444 231.998 52.6495 224.276 56.4493 217.532C60.2491 210.789 65.9714 205.33 72.8865 201.852C79.8015 198.374 87.5959 197.034 95.2755 198.003C102.955 198.972 110.172 202.207 116.006 207.295C121.84 212.382 126.026 219.092 128.031 226.568C130.035 234.044 129.768 241.948 127.262 249.272C124.757 256.595 120.126 263.006 113.962 267.688V267.688Z" fill="#3F3D56"/>
<path d="M90.6277 397.89C99.5473 397.89 106.778 390.659 106.778 381.74C106.778 372.821 99.5473 365.591 90.6277 365.591C81.7082 365.591 74.4775 372.821 74.4775 381.74C74.4775 390.659 81.7082 397.89 90.6277 397.89Z" fill="#2F2E41"/>
<path d="M78.0217 373.033C80.6315 370.423 81.1605 366.721 79.2031 364.763C77.2457 362.806 73.5433 363.335 70.9335 365.945C68.3237 368.554 67.7948 372.257 69.7521 374.214C71.7095 376.171 75.4119 375.642 78.0217 373.033Z" fill="#2F2E41"/>
<path d="M107.46 367.904C108.548 365.359 106.678 362.12 103.284 360.67C99.8895 359.22 96.2565 360.108 95.1691 362.654C94.0817 365.199 95.9517 368.438 99.3458 369.888C102.74 371.338 106.373 370.45 107.46 367.904Z" fill="#2F2E41"/>
<path d="M109.946 413.066L108.043 410.072C107.236 408.268 105.747 406.858 103.902 406.151C102.057 405.443 100.006 405.495 98.1997 406.296C96.3931 407.097 94.9776 408.581 94.2631 410.423C93.5486 412.266 93.5934 414.316 94.3877 416.125L94.9288 418.065L95.5446 420.267C98.0375 419.952 100.497 419.415 102.895 418.662C102.902 418.661 102.908 418.658 102.913 418.653C104.685 418.092 106.415 417.407 108.09 416.601C108.099 416.592 108.108 416.592 108.118 416.582C108.491 416.405 108.855 416.219 109.228 416.032C109.289 416.005 109.348 415.974 109.405 415.939C109.703 415.79 110.002 415.631 110.291 415.472C110.59 415.314 110.879 415.146 111.159 414.969L109.946 413.066Z" fill="#CACACA"/>
<path d="M91.1401 399.301C98.71 399.301 104.847 393.165 104.847 385.595C104.847 378.026 98.71 371.889 91.1401 371.889C83.5702 371.889 77.4336 378.026 77.4336 385.595C77.4336 393.165 83.5702 399.301 91.1401 399.301Z" fill="#FFB6B6"/>
<path d="M110.934 412.479C109.423 409.965 107.546 407.689 105.366 405.726C103.872 404.391 101.94 403.654 99.9373 403.655H80.6291C79.5165 403.655 78.4156 403.882 77.3946 404.324C76.3735 404.766 75.4538 405.412 74.6924 406.224C73.931 407.035 73.3441 407.993 72.9678 409.04C72.5915 410.087 72.4339 411.2 72.5048 412.311C72.5469 412.937 72.6597 413.556 72.8409 414.157C72.9786 414.593 73.15 415.017 73.3538 415.426L74.3052 417.329C74.3798 417.357 74.4545 417.394 74.5288 417.422C74.5474 417.431 74.557 417.431 74.5661 417.441C74.9578 417.599 75.3499 417.758 75.7507 417.907C77.0633 418.409 78.4023 418.838 79.7618 419.194C81.9502 419.782 84.1841 420.184 86.44 420.397C87.7553 420.519 89.0706 420.584 90.3951 420.584C91.7104 420.584 92.9975 420.519 94.2846 420.397C94.7045 420.36 95.124 420.313 95.5439 420.267C98.0368 419.952 100.497 419.415 102.894 418.663C102.901 418.662 102.908 418.658 102.913 418.653C104.685 418.092 106.415 417.407 108.09 416.601C108.099 416.592 108.108 416.592 108.117 416.583C108.49 416.405 108.854 416.219 109.227 416.032C109.288 416.005 109.347 415.974 109.405 415.939C109.703 415.79 110.002 415.631 110.291 415.473C110.589 415.314 110.878 415.146 111.158 414.969C111.457 414.81 111.736 414.633 112.026 414.456C111.671 413.756 111.307 413.104 110.934 412.479Z" fill="#CACACA"/>
<path d="M84.1271 406.155C82.3403 405.319 80.2953 405.224 78.4391 405.892C76.5829 406.56 75.0666 407.935 74.2216 409.718L72.505 412.311L71.6843 413.551L70.4346 415.435C70.6955 415.575 70.9474 415.715 71.2088 415.855L71.5536 416.032C72.3561 416.443 73.1673 416.834 74.0071 417.198C74.1 417.245 74.203 417.282 74.3054 417.329C74.3801 417.357 74.4548 417.394 74.529 417.422C74.5477 417.431 74.5573 417.431 74.5664 417.441C74.958 417.599 75.3502 417.758 75.7509 417.907C77.0635 418.409 78.4026 418.838 79.7621 419.194C81.9505 419.782 84.1844 420.184 86.4403 420.397L87.0934 418.187L87.7278 416.079C88.564 414.285 88.6545 412.233 87.9795 410.372C87.3045 408.512 85.919 406.995 84.1271 406.155Z" fill="#CACACA"/>
<path d="M76.7373 376.974C79.8694 379.133 83.5871 380.282 87.391 380.267C86.0341 381.207 84.4894 381.843 82.8632 382.129C87.9209 383.214 93.148 383.244 98.2176 382.216C99.3445 382.035 100.432 381.661 101.432 381.112C101.93 380.833 102.364 380.453 102.706 379.996C103.048 379.539 103.29 379.015 103.416 378.458C103.753 376.534 102.253 374.786 100.695 373.607C98.3087 371.831 95.5577 370.607 92.6405 370.024C89.7234 369.441 86.7132 369.514 83.8277 370.237C81.9051 370.624 80.1555 371.612 78.8323 373.06C78.1919 373.796 77.8054 374.719 77.7297 375.692C77.654 376.665 77.8932 377.637 78.4119 378.464L76.7373 376.974Z" fill="#2F2E41"/>
<path d="M129.328 365.814C127.357 360.152 124.175 354.987 120.004 350.681C115.832 346.375 110.771 343.03 105.174 340.881C99.5765 338.732 93.5778 337.829 87.5959 338.236C81.6139 338.644 75.7929 340.351 70.5386 343.239C65.2844 346.127 60.7234 350.127 57.1738 354.959C53.6243 359.791 51.1716 365.339 49.9867 371.216C48.8019 377.093 48.9134 383.158 50.3137 388.988C51.7139 394.818 54.369 400.272 58.0939 404.97C58.4573 405.436 58.8495 405.903 59.2412 406.35C59.2636 406.383 59.2886 406.415 59.3159 406.444C60.2819 407.554 61.3094 408.61 62.3938 409.606C62.6734 409.867 62.9627 410.137 63.2614 410.389C63.8207 410.893 64.3991 411.368 65.0053 411.825C65.2385 412.012 65.4717 412.199 65.7145 412.376C66.6563 413.094 67.6451 413.756 68.6525 414.4C68.6698 414.4 68.6863 414.407 68.699 414.418C68.9882 414.596 69.287 414.773 69.5853 414.941C69.8649 415.109 70.1541 415.277 70.4342 415.435C70.6952 415.575 70.9471 415.715 71.2085 415.855L71.5533 416.032C72.3558 416.442 73.1669 416.834 74.0068 417.198C74.0997 417.245 74.2026 417.282 74.3051 417.329C74.3798 417.357 74.4545 417.394 74.5287 417.422C74.5474 417.431 74.5569 417.431 74.566 417.44C74.9577 417.599 75.3498 417.758 75.7506 417.907C77.0632 418.409 78.4022 418.838 79.7617 419.194C81.9501 419.782 84.1841 420.184 86.4399 420.397C87.7553 420.518 89.0706 420.584 90.395 420.584C91.7104 420.584 92.9974 420.518 94.2845 420.397C94.7045 420.36 95.1239 420.313 95.5438 420.267C98.0367 419.952 100.497 419.415 102.894 418.662C102.901 418.661 102.907 418.658 102.912 418.653C104.685 418.092 106.415 417.407 108.09 416.601C108.099 416.592 108.108 416.592 108.117 416.582C108.49 416.405 108.854 416.219 109.227 416.032C109.288 416.005 109.347 415.973 109.404 415.939C109.703 415.79 110.002 415.631 110.291 415.472C110.589 415.314 110.878 415.146 111.158 414.969C111.457 414.81 111.736 414.633 112.026 414.456C112.175 414.362 112.324 414.269 112.473 414.176C112.679 414.055 112.865 413.933 113.07 413.794C113.35 413.616 113.63 413.42 113.9 413.225C114.264 412.973 114.628 412.712 114.982 412.441C115.102 412.363 115.217 412.279 115.328 412.189C122.254 406.924 127.339 399.603 129.853 391.274C132.368 382.944 132.184 374.033 129.328 365.814L129.328 365.814ZM113.966 410.389C113.723 410.585 113.471 410.772 113.22 410.939C112.967 411.126 112.725 411.303 112.473 411.471C112.259 411.62 112.044 411.77 111.821 411.909C111.8 411.927 111.778 411.943 111.755 411.956C111.597 412.068 111.428 412.171 111.27 412.273C111.158 412.338 111.046 412.413 110.934 412.478C110.608 412.684 110.281 412.88 109.946 413.066C109.768 413.178 109.582 413.281 109.404 413.383C109.339 413.42 109.274 413.458 109.209 413.495C108.919 413.654 108.64 413.794 108.36 413.943C108.323 413.971 108.276 413.98 108.248 414.008C108.231 414.008 108.214 414.015 108.201 414.027C107.847 414.213 107.483 414.391 107.119 414.558C105.719 415.232 104.276 415.815 102.8 416.303C102.614 416.368 102.418 416.443 102.232 416.498C99.8528 417.253 97.4071 417.778 94.9281 418.065C94.6484 418.103 94.3593 418.131 94.0701 418.159C92.8577 418.271 91.6357 418.327 90.3951 418.327C89.2942 418.327 88.1843 418.28 87.0931 418.187C84.8116 417.997 82.5517 417.603 80.3402 417.011C78.6568 416.573 77.0076 416.012 75.4059 415.333C75.3217 415.295 75.2379 415.267 75.1541 415.23C75.0607 415.193 74.986 415.165 74.9022 415.127C74.8089 415.09 74.7342 415.053 74.6408 415.006C74.0346 414.745 73.4284 414.456 72.8409 414.157C72.7566 414.111 72.6728 414.073 72.589 414.027L72.2625 413.859C72.0666 413.756 71.8708 413.654 71.6841 413.551C71.0592 413.215 70.4434 412.852 69.8468 412.478C69.6227 412.339 69.3804 412.189 69.1563 412.04L68.9883 411.928C68.4659 411.574 67.9439 411.219 67.4307 410.837C67.0854 410.576 66.7311 410.324 66.3954 410.053C65.8266 409.624 65.276 409.167 64.7445 408.692C64.4644 408.458 64.1847 408.197 63.9238 407.955C62.8734 406.987 61.8799 405.959 60.9483 404.877C60.6404 404.522 60.3326 404.168 60.0434 403.795C59.9782 403.72 59.9222 403.646 59.8566 403.562C55.0479 397.495 52.1553 390.133 51.5476 382.416C50.9399 374.698 52.6448 366.975 56.4447 360.23C60.2446 353.485 65.9674 348.025 72.8831 344.546C79.7989 341.067 87.5943 339.727 95.275 340.696C102.956 341.665 110.174 344.9 116.008 349.988C121.843 355.076 126.03 361.786 128.035 369.263C130.041 376.74 129.773 384.645 127.268 391.97C124.762 399.295 120.131 405.707 113.966 410.389H113.966Z" fill="#3F3D56"/>
<path d="M159.357 164.428C145.004 152.317 127.44 144.639 108.803 142.328C90.1651 140.017 71.2576 143.173 54.381 151.411C37.5043 159.649 23.3861 172.615 13.7443 188.731C4.1025 204.847 -0.64716 223.417 0.073284 242.183C0.793728 260.949 6.9532 279.1 17.8022 294.43C28.6512 309.759 43.722 321.604 61.1806 328.524C78.6392 335.444 97.733 337.141 116.138 333.408C134.544 329.675 151.467 320.673 164.85 307.497L283.683 407.764C285.492 409.285 287.83 410.026 290.185 409.826C292.539 409.625 294.719 408.499 296.244 406.694C297.77 404.89 298.518 402.554 298.324 400.198C298.13 397.843 297.011 395.661 295.21 394.13L295.197 394.119L176.364 293.852C190.169 274.04 196.077 249.787 192.931 225.846C189.785 201.905 177.812 180.002 159.357 164.428ZM151.696 284.197C142.439 295.168 130.136 303.147 116.343 307.126C102.55 311.105 87.8869 310.905 74.2079 306.551C60.5289 302.197 48.4483 293.884 39.4938 282.664C30.5392 271.445 25.113 257.822 23.9011 243.518C22.6893 229.214 25.7463 214.873 32.6856 202.306C39.625 189.74 50.1349 179.514 62.8864 172.921C75.6379 166.327 90.0583 163.663 104.324 165.265C118.59 166.867 132.06 172.663 143.031 181.921C157.744 194.334 166.922 212.084 168.547 231.264C170.172 250.445 164.11 269.485 151.696 284.197Z" fill="#3F3D56"/>
<path opacity="0.3" d="M49.4166 292.862C35.4925 281.112 26.4965 264.555 24.2148 246.48C21.9331 228.405 26.5326 210.132 37.1001 195.291C35.7123 196.689 34.3707 198.152 33.0752 199.682C26.9284 206.967 22.2766 215.391 19.3854 224.473C16.4942 233.555 15.4203 243.118 16.2249 252.615C17.0295 262.112 19.697 271.358 24.0749 279.824C28.4529 288.291 34.4556 295.812 41.7403 301.958C49.0251 308.105 57.4492 312.757 66.5317 315.648C75.6143 318.539 85.1773 319.613 94.6749 318.808C104.172 318.004 113.419 315.336 121.885 310.958C130.352 306.581 137.873 300.578 144.02 293.294C145.313 291.762 146.53 290.193 147.672 288.588C134.819 301.501 117.58 309.109 99.3783 309.9C81.1761 310.692 63.3418 304.61 49.4166 292.862Z" fill="black"/>
<path d="M398.925 411.513C399.853 410.38 400.521 409.057 400.883 407.637C401.245 406.218 401.291 404.736 401.018 403.297C400.745 401.858 400.16 400.496 399.304 399.307C398.447 398.119 397.341 397.132 396.062 396.418L374.402 307.763L358.601 312.807L381.99 400.857C380.932 403.084 380.727 405.623 381.415 407.991C382.103 410.359 383.636 412.393 385.724 413.706C387.811 415.02 390.308 415.522 392.741 415.118C395.174 414.714 397.374 413.431 398.925 411.513H398.925Z" fill="#FFB6B6"/>
<path d="M387.729 354.806L376.181 364.767L360.026 378.694L352.89 342.187L352.144 338.391L351.557 335.378L367.926 306.865L381.573 307.647L382.505 307.703L382.524 307.909L382.739 309.821L385.537 334.985L385.602 335.593L387.729 354.806Z" fill="#3F3D56"/>
<path d="M312.251 602.606L300.817 602.605L295.376 558.499L312.254 558.5L312.251 602.606Z" fill="#FFB6B6"/>
<path d="M315.168 613.69L278.296 613.689V613.223C278.296 609.417 279.808 605.766 282.5 603.075C285.191 600.384 288.841 598.872 292.648 598.872H292.649L315.169 598.872L315.168 613.69Z" fill="#2F2E41"/>
<path d="M431.644 603.539L420.209 603.538L414.769 559.431L431.647 559.432L431.644 603.539Z" fill="#FFB6B6"/>
<path d="M434.561 614.623L397.688 614.622V614.155C397.689 610.349 399.201 606.699 401.892 604.008C404.584 601.316 408.234 599.804 412.04 599.804H412.041L434.562 599.805L434.561 614.623Z" fill="#2F2E41"/>
<path d="M440.784 585.981L410.003 590.644L365.222 439.096L317.66 591.577L283.148 586.914L327.921 409.697V395.706L333.984 374.72L333.349 369.039L328.937 329.315L327.025 312.088L326.901 310.975C326.797 310.041 327.045 309.102 327.595 308.34C328.146 307.578 328.96 307.049 329.879 306.855L344.244 303.833H367.721L381.573 307.648L382.524 307.909L382.953 308.03L382.739 309.821L379.493 337.038L379.315 338.53L376.181 364.768L375.491 370.522C402.541 390.11 403.474 409.697 403.474 409.697L440.784 585.981Z" fill="#2F2E41"/>
<path d="M353.146 292.033C365.798 292.033 376.055 281.776 376.055 269.124C376.055 256.472 365.798 246.216 353.146 246.216C340.493 246.216 330.236 256.472 330.236 269.124C330.236 281.776 340.493 292.033 353.146 292.033Z" fill="#FFB6B6"/>
<path d="M377.208 365.258L331.889 371.185L332.735 377.658L378.055 371.732L377.208 365.258Z" fill="#3F3D56"/>
<path d="M271.1 373.136C271.533 373.417 271.944 373.731 272.327 374.076L317.152 362.649L320.21 351.836L337.133 354.318L333.58 373.987C333.293 375.576 332.498 377.029 331.315 378.128C330.132 379.227 328.624 379.912 327.018 380.081L274.68 385.593C273.827 387.389 272.448 388.882 270.725 389.875C269.002 390.868 267.018 391.313 265.037 391.15C263.055 390.988 261.17 390.226 259.632 388.966C258.093 387.706 256.975 386.008 256.426 384.097C255.877 382.186 255.922 380.154 256.556 378.269C257.191 376.385 258.383 374.738 259.976 373.548C261.569 372.358 263.487 371.682 265.474 371.608C267.461 371.535 269.423 372.068 271.1 373.136Z" fill="#FFB6B6"/>
<path d="M340.047 312.694L332.119 306.631C329.975 305.818 327.038 308.128 326.522 310.362L315.329 356.065L338.648 372.854L341.913 367.724L340.047 312.694Z" fill="#3F3D56"/>
<g opacity="0.2">
<path opacity="0.2" d="M385.537 334.986C383.558 335.771 381.541 336.456 379.493 337.038C378.84 337.234 378.168 337.42 377.506 337.597C373.141 338.809 368.655 339.534 364.13 339.761C362.183 339.844 360.232 339.791 358.291 339.603C356.208 339.395 354.15 338.989 352.145 338.39C352.079 338.372 352.004 338.353 351.939 338.334C347.768 337.15 343.945 334.978 340.793 332.001C340.088 331.315 339.431 330.583 338.825 329.809C337.083 327.676 335.805 325.203 335.073 322.549C334.34 319.894 334.17 317.116 334.571 314.391C334.649 313.898 334.755 313.409 334.889 312.927C335.24 311.614 335.705 310.335 336.278 309.103C336.53 308.525 336.81 307.956 337.108 307.396L347.648 303.833H367.721L381.573 307.648L382.506 307.704L382.524 307.909L382.953 308.03L382.739 309.821L385.537 334.986Z" fill="black"/>
</g>
<path d="M335.591 250.158C331.307 249.633 326.605 250.004 323.266 252.739C319.926 255.474 318.849 261.16 322.01 264.098C324.809 266.7 329.186 266.088 332.935 266.828C336.165 267.552 339.059 269.338 341.153 271.901C343.247 274.464 344.421 277.655 344.486 280.964C344.43 290.454 335.323 297.641 333.687 306.988C332.57 313.368 335.261 320.082 339.913 324.588C344.565 329.095 350.96 331.53 357.403 332.19C363.846 332.849 370.361 331.842 376.623 330.187C382.911 328.524 389.101 326.166 394.377 322.363C399.653 318.56 403.978 313.198 405.672 306.919C407.366 300.64 406.15 293.441 401.785 288.619C396.786 283.099 388.47 281.2 384.146 275.136C379.3 268.339 381.093 258.659 377.17 251.289C374.551 246.369 369.592 243.013 364.306 241.245C359.02 239.477 353.375 239.128 347.803 238.957C344.875 238.867 341.857 238.837 339.128 239.905C336.4 240.972 334.002 243.405 333.86 246.332C333.719 249.258 335.591 250.158 335.591 250.158Z" fill="#2F2E41"/>
<path d="M550.067 615H194.688C194.44 615 194.203 614.902 194.028 614.727C193.853 614.552 193.755 614.315 193.755 614.067C193.755 613.82 193.853 613.583 194.028 613.408C194.203 613.233 194.44 613.135 194.688 613.135H550.067C550.314 613.135 550.551 613.233 550.726 613.408C550.901 613.583 551 613.82 551 614.067C551 614.315 550.901 614.552 550.726 614.727C550.551 614.902 550.314 615 550.067 615Z" fill="#CACACA"/>
</g>
<defs>
<clipPath id="clip0_170_347">
<rect width="551" height="615" fill="white"/>
</clipPath>
</defs>
</svg>
