<svg width="25" height="20" viewBox="0 0 25 20" fill="none" xmlns="http://www.w3.org/2000/svg">
<path d="M4.99999 3.71484C6.03514 3.71484 6.83983 2.875 6.83983 1.875C6.83983 0.875 6.03514 0 4.99999 0C3.96483 0 3.12538 0.839844 3.12538 1.83984C3.12538 2.83984 3.96483 3.71484 4.99999 3.71484ZM19.9648 3.71484C21 3.71484 21.8047 2.875 21.8047 1.875C21.8047 0.875 21.0351 0 19.9648 0C18.9297 0 18.0898 0.839844 18.0898 1.83984C18.0898 2.83984 18.9648 3.71484 19.9648 3.71484ZM23.5742 10.0898L22.8516 6.95977C22.6709 6.17852 22.1242 5.51914 21.3867 5.20664C20.6641 4.89414 19.8984 4.94297 19.1945 5.33359C18.3109 5.85625 17.6469 6.68125 17.3148 7.65312L16.8754 8.97656L16.2855 9.37695L16.2148 5.625C16.2148 5.2832 15.9316 5 15.5898 5H9.37499C9.03319 5 8.74999 5.2832 8.74999 5.625V9.33984L8.1203 8.93945L7.68085 7.61602C7.3537 6.63945 6.68944 5.81914 5.80116 5.29648C5.12733 4.90586 4.33124 4.85703 3.60897 5.16953C2.87147 5.48203 2.3246 6.14141 2.14413 6.92266L1.42655 10.0527C1.24589 10.834 1.45585 11.6641 1.98788 12.2695L4.61483 15.2336L5.01014 18.852C5.07811 19.5234 5.61717 20 6.24999 20C6.29881 20 6.33788 19.9951 6.38671 19.9902C7.07499 19.917 7.56835 19.302 7.49022 18.6133L7.0996 14.9902C7.041 14.4824 6.82616 14.009 6.48944 13.623L4.7953 11.709L5.48358 8.95977L5.75217 9.75586C5.90842 10.2441 6.21585 10.6738 6.70921 11.0305L8.70139 12.3C8.88198 12.4123 9.17483 12.4807 9.37522 12.4953H15.5901C15.7903 12.4807 16.083 12.4123 16.2639 12.3L18.2561 11.0305C18.749 10.674 19.0569 10.2492 19.2131 9.75586L19.4817 8.95977L20.1703 11.709L18.4762 13.623C18.1393 14.0088 17.9246 14.4824 17.866 14.9902L17.4754 18.6133C17.3973 19.3016 17.8953 19.9172 18.5789 19.9902C18.6601 19.9961 18.6992 20 18.7148 20C19.3445 20 19.8515 19.5266 19.9551 18.8867L20.3504 15.2684L23.0117 12.3047C23.543 11.6992 23.7539 10.8711 23.5742 10.0898ZM1.80702 13.9883L0.0882683 18.2852C-0.165638 18.925 0.146862 19.6523 0.786706 19.9113C1.441 20.1652 2.15858 19.843 2.41249 19.2129L3.49139 16.5125L3.41327 15.7996L1.80702 13.9883ZM24.9101 18.2852L23.2265 13.9883L21.6199 15.8L21.5418 16.5129L22.6207 19.2133C22.7812 19.7031 23.25 20 23.7148 20C23.871 20 24.0273 19.9707 24.1785 19.9121C24.8515 19.6523 25.1641 18.9258 24.9101 18.2852Z" fill="black"/>
</svg>
