<svg width="40" height="40" viewBox="0 0 40 40" fill="none" xmlns="http://www.w3.org/2000/svg">
<circle cx="20" cy="20" r="20" fill="#007C89"/>
<path d="M10.6044 28.4364C10.4599 28.4362 10.317 28.4059 10.1848 28.3474C10.0527 28.2889 9.9341 28.2036 9.83669 28.0969C9.73752 27.991 9.66185 27.8654 9.61464 27.7282C9.56742 27.5911 9.54974 27.4455 9.56273 27.301L9.81794 24.4948L21.6075 12.7093L25.2919 16.3927L13.5054 28.1771L10.6992 28.4323C10.6677 28.4352 10.636 28.4366 10.6044 28.4364ZM26.0273 15.6562L22.344 11.9729L24.5534 9.76351C24.6501 9.66666 24.765 9.58983 24.8914 9.53741C25.0179 9.48499 25.1534 9.45801 25.2903 9.45801C25.4272 9.45801 25.5628 9.48499 25.6892 9.53741C25.8157 9.58983 25.9306 9.66666 26.0273 9.76351L28.2367 11.9729C28.3335 12.0696 28.4104 12.1845 28.4628 12.311C28.5152 12.4374 28.5422 12.573 28.5422 12.7099C28.5422 12.8468 28.5152 12.9823 28.4628 13.1088C28.4104 13.2352 28.3335 13.3501 28.2367 13.4468L26.0284 15.6552L26.0273 15.6562Z" fill="white"/>
</svg>
