<svg width="120" height="120" viewBox="0 0 120 120" fill="none" xmlns="http://www.w3.org/2000/svg">
<path d="M119.036 62.9999C119.056 73.3182 116.095 83.4416 110.48 92.2558C109.342 94.0445 108.101 95.7708 106.761 97.4263C105.46 99.036 104.07 100.579 102.598 102.048C97.6903 106.944 91.8947 110.951 85.492 113.875C82.8151 115.109 80.0422 116.143 77.1983 116.968C76.667 117.123 76.1358 117.273 75.5983 117.41C65.9006 119.927 55.6937 120.056 45.9295 117.786C45.417 117.667 44.917 117.541 44.4108 117.41C39.9558 116.248 35.6611 114.584 31.617 112.454C31.4858 112.395 31.3608 112.323 31.2295 112.251C23.3674 108.059 16.6134 102.203 11.4842 95.1339C6.3549 88.0643 2.98636 79.9676 1.63622 71.4632C0.286082 62.9589 0.990129 54.2721 3.6945 46.0676C6.39887 37.8631 11.0319 30.3582 17.2392 24.1271C23.4464 17.8961 31.0634 13.1039 39.5074 10.1173C47.9514 7.13061 56.9986 6.02863 65.9569 6.89563C74.9152 7.76263 83.5473 10.5756 91.1926 15.1194C98.838 19.6632 105.294 25.8174 110.067 33.1112C110.755 34.15 111.398 35.2128 112.011 36.2994C116.637 44.5044 119.051 53.6806 119.036 62.9999Z" fill="white"/>
<path d="M59.9992 119.995C55.2065 119.995 50.431 119.448 45.7742 118.365C45.2617 118.246 44.7554 118.12 44.2429 117.983C39.7401 116.811 35.3992 115.131 31.3117 112.98L30.9804 112.807L30.9117 112.771C23.9408 109.015 17.8322 103.958 12.9493 97.9C8.06634 91.8425 4.50895 84.9085 2.4888 77.5106C0.468652 70.1127 0.0270303 62.4022 1.19022 54.838C2.3534 47.2737 5.09763 40.0103 9.25957 33.48C13.4215 26.9497 18.9161 21.2859 25.4164 16.8258C31.9167 12.3657 39.2897 9.20036 47.0968 7.51818C54.9039 5.836 62.9855 5.67137 70.8606 7.03407C78.7356 8.39677 86.2433 11.259 92.9367 15.4503C94.6448 16.5347 96.2948 17.7004 97.8804 18.9431C102.887 22.869 107.191 27.5475 110.624 32.7949C111.299 33.8099 111.937 34.8666 112.587 36.019C117.493 44.749 119.934 54.5497 119.667 64.4552C119.401 74.3606 116.437 84.0288 111.068 92.5067C111.06 92.5258 111.049 92.5438 111.037 92.5604C109.891 94.3681 108.639 96.1123 107.287 97.7847C105.972 99.411 104.568 100.97 103.08 102.454C98.1367 107.399 92.294 111.445 85.8367 114.395H85.7867C83.0821 115.644 80.2799 116.69 77.4054 117.523C76.8679 117.679 76.3304 117.828 75.7867 117.971C70.6419 119.314 65.3325 119.995 59.9992 119.995ZM59.9992 7.19894C47.0684 7.20133 34.5038 11.3021 24.2746 18.8585C14.0453 26.4149 6.72958 36.9999 3.4738 48.9546C0.218016 60.9094 1.20622 73.5582 6.28355 84.9189C11.3609 96.2795 20.2404 105.71 31.5304 111.732L31.6054 111.774C31.6992 111.822 31.7867 111.875 31.8804 111.917C35.8914 114.03 40.1502 115.681 44.5679 116.837L46.0742 117.207C55.7428 119.444 65.8457 119.317 75.4492 116.837C75.9804 116.7 76.5054 116.55 77.0304 116.395C79.829 115.584 82.5579 114.568 85.1929 113.356H85.2429C91.5792 110.465 97.3138 106.5 102.168 101.654C103.61 100.181 104.972 98.6382 106.249 97.0324C107.562 95.4081 108.781 93.7159 109.899 91.9634C109.907 91.9443 109.918 91.9262 109.93 91.9096C115.198 83.6049 118.108 74.1317 118.373 64.4246C118.639 54.7176 116.25 45.1122 111.443 36.5563C110.818 35.4338 110.193 34.4009 109.518 33.4038C106.161 28.2754 101.954 23.702 97.0617 19.8626C95.5121 18.6457 93.8997 17.5039 92.2304 16.4414C82.6757 10.3919 71.4619 7.17632 59.9992 7.19894Z" fill="#093F68"/>
<path d="M110.481 92.2559C109.344 94.0446 108.103 95.7709 106.763 97.4264C105.462 99.0361 104.072 100.579 102.6 102.048C97.692 106.944 91.8964 110.951 85.4938 113.875C82.8168 115.109 80.044 116.143 77.2 116.968V111.529C77.2 109.768 71.4125 103.481 66.6125 98.5608C63.2 95.068 60.2812 92.2618 60.2812 92.2618L65.4188 83.306L72.8063 70.4572L72.8563 70.3677L73.7875 68.7497L76.2125 64.5344C76.2125 64.5344 82.1063 67.1913 88.95 71.0603C97.2188 75.7412 106.888 82.1835 109.256 87.8376C109.812 89.2695 110.222 90.749 110.481 92.2559Z" fill="#FFC9B0"/>
<path d="M77.1924 117.565C77.0571 117.565 76.9256 117.523 76.8174 117.446C76.7397 117.39 76.6767 117.318 76.6333 117.235C76.59 117.152 76.5674 117.061 76.5674 116.968V111.529C76.5674 111.087 75.8174 108.878 66.1486 98.9908C62.7799 95.5458 59.8611 92.7336 59.8299 92.7038C59.7353 92.6128 59.674 92.4952 59.6548 92.3683C59.6357 92.2414 59.6598 92.112 59.7236 91.9992L75.6549 64.2897C75.7318 64.1558 75.8596 64.0551 76.0119 64.0085C76.1642 63.9618 76.3295 63.9727 76.4736 64.039C76.5299 64.039 82.4736 66.7496 89.2611 70.6066C100.93 77.2161 107.849 82.9538 109.83 87.6765C110.395 89.1358 110.814 90.6432 111.08 92.1783C111.083 92.2141 111.083 92.25 111.08 92.2858C111.079 92.3956 111.047 92.503 110.986 92.5963C109.84 94.404 108.588 96.1482 107.236 97.8205C105.922 99.4469 104.517 101.005 103.03 102.49C98.0862 107.434 92.2434 111.48 85.7861 114.431H85.7361C83.0315 115.68 80.2293 116.726 77.3549 117.559C77.3013 117.569 77.2466 117.571 77.1924 117.565ZM61.0424 92.1604C61.9049 92.9903 64.3424 95.3666 67.0611 98.131C77.8174 109.153 77.8174 110.86 77.8174 111.505V116.138C80.3342 115.368 82.7921 114.433 85.1736 113.338H85.2236C91.5599 110.448 97.2945 106.483 102.149 101.636C103.596 100.169 104.965 98.6326 106.249 97.0324C107.524 95.4517 108.711 93.8075 109.805 92.1067C109.549 90.7247 109.162 89.3678 108.649 88.0527C106.805 83.6464 99.8986 77.9445 88.6049 71.5679C83.0299 68.4154 78.0424 66.0511 76.4486 65.3107L61.0424 92.1604Z" fill="#093F68"/>
<path d="M83.6859 16.686H36.3172C33.4108 16.686 31.0547 18.9368 31.0547 21.7133V107.397C31.0547 110.174 33.4108 112.424 36.3172 112.424H83.6859C86.5923 112.424 88.9484 110.174 88.9484 107.397V21.7133C88.9484 18.9368 86.5923 16.686 83.6859 16.686Z" fill="#68E1FD"/>
<path d="M83.6859 113.022H36.3109C34.7511 113.018 33.2561 112.425 32.1537 111.37C31.0513 110.316 30.4313 108.887 30.4297 107.397V21.7074C30.4313 20.2178 31.0515 18.7897 32.1541 17.7364C33.2567 16.6831 34.7516 16.0907 36.3109 16.0891H83.6859C85.2452 16.0907 86.7402 16.6831 87.8428 17.7364C88.9454 18.7897 89.5655 20.2178 89.5672 21.7074V107.397C89.5655 108.887 88.9456 110.316 87.8432 111.37C86.7408 112.425 85.2458 113.018 83.6859 113.022ZM36.3109 17.2832C35.0827 17.2832 33.9047 17.7494 33.0361 18.5791C32.1676 19.4088 31.6797 20.5341 31.6797 21.7074V107.397C31.6797 108.571 32.1674 109.697 33.0358 110.528C33.9041 111.358 35.0821 111.826 36.3109 111.827H83.6859C84.9148 111.826 86.0928 111.358 86.9611 110.528C87.8295 109.697 88.3172 108.571 88.3172 107.397V21.7074C88.3172 20.5341 87.8293 19.4088 86.9607 18.5791C86.0922 17.7494 84.9142 17.2832 83.6859 17.2832H36.3109Z" fill="#093F68"/>
<path d="M59.675 109.302C58.8502 109.303 58.0436 109.071 57.3573 108.634C56.6709 108.197 56.1356 107.575 55.8191 106.848C55.5026 106.12 55.4192 105.319 55.5793 104.546C55.7395 103.773 56.136 103.063 56.7188 102.506C57.3016 101.948 58.0443 101.568 58.8532 101.414C59.662 101.26 60.5005 101.338 61.2626 101.64C62.0247 101.941 62.6762 102.451 63.1345 103.106C63.5929 103.761 63.8375 104.532 63.8375 105.32C63.8375 106.375 63.3992 107.387 62.6187 108.133C61.8383 108.88 60.7795 109.3 59.675 109.302ZM59.675 102.537C59.0972 102.536 58.532 102.699 58.0511 103.005C57.5701 103.311 57.1951 103.746 56.9734 104.256C56.7517 104.765 56.6934 105.327 56.8058 105.868C56.9182 106.409 57.1963 106.907 57.6049 107.297C58.0135 107.687 58.5341 107.953 59.1009 108.06C59.6676 108.168 60.255 108.112 60.7886 107.9C61.3222 107.689 61.778 107.33 62.0982 106.871C62.4185 106.411 62.5888 105.872 62.5875 105.32C62.5859 104.582 62.2785 103.875 61.7326 103.354C61.1868 102.832 60.4469 102.539 59.675 102.537Z" fill="#093F68"/>
<path d="M88.9484 24H31.0547V98.5607H88.9484V24Z" fill="#093F68"/>
<path d="M88.9422 99.1579H31.0547C30.8889 99.1579 30.73 99.095 30.6127 98.983C30.4955 98.8711 30.4297 98.7192 30.4297 98.5608V24.0001C30.4297 23.8418 30.4955 23.6899 30.6127 23.578C30.73 23.466 30.8889 23.4031 31.0547 23.4031H88.9422C89.108 23.4031 89.2669 23.466 89.3841 23.578C89.5013 23.6899 89.5672 23.8418 89.5672 24.0001V98.5608C89.5672 98.7192 89.5013 98.8711 89.3841 98.983C89.2669 99.095 89.108 99.1579 88.9422 99.1579ZM31.6797 97.9638H88.3172V24.5972H31.6797V97.9638Z" fill="#093F68"/>
<path d="M57.1246 21.0625H55.9434C55.7776 21.0625 55.6186 20.9996 55.5014 20.8877C55.3842 20.7757 55.3184 20.6238 55.3184 20.4655C55.3184 20.3071 55.3842 20.1553 55.5014 20.0433C55.6186 19.9313 55.7776 19.8684 55.9434 19.8684H57.1246C57.2904 19.8684 57.4493 19.9313 57.5666 20.0433C57.6838 20.1553 57.7496 20.3071 57.7496 20.4655C57.7496 20.6238 57.6838 20.7757 57.5666 20.8877C57.4493 20.9996 57.2904 21.0625 57.1246 21.0625Z" fill="#093F68"/>
<path d="M64.0563 21.0625H58.75C58.5842 21.0625 58.4253 20.9996 58.3081 20.8877C58.1908 20.7757 58.125 20.6238 58.125 20.4655C58.125 20.3071 58.1908 20.1553 58.3081 20.0433C58.4253 19.9313 58.5842 19.8684 58.75 19.8684H64.0625C64.2283 19.8684 64.3872 19.9313 64.5044 20.0433C64.6217 20.1553 64.6875 20.3071 64.6875 20.4655C64.6875 20.6238 64.6217 20.7757 64.5044 20.8877C64.3872 20.9996 64.2283 21.0625 64.0625 21.0625H64.0563Z" fill="#093F68"/>
<path d="M48.5301 112.424C48.2029 113.95 47.5933 115.408 46.7301 116.729C46.4948 117.104 46.2249 117.457 45.9238 117.786C45.4113 117.667 44.9113 117.541 44.4051 117.41C39.9501 116.248 35.6554 114.584 31.6113 112.454L33.4863 111.624C36.7738 110.179 42.3113 107.869 44.7363 107.582C47.2988 107.284 49.1426 109.105 48.5301 112.424Z" fill="#FFC9B0"/>
<path d="M45.9242 118.383C45.8744 118.389 45.824 118.389 45.7742 118.383C45.2617 118.264 44.7554 118.138 44.2429 118.001C39.7401 116.829 35.3992 115.149 31.3117 112.998C31.2102 112.945 31.1261 112.866 31.0687 112.77C31.0113 112.674 30.9829 112.565 30.9867 112.454C30.9899 112.343 31.0255 112.235 31.0896 112.142C31.1536 112.05 31.2435 111.976 31.3492 111.929L31.8492 111.708L33.2117 111.111C37.0992 109.403 42.2429 107.302 44.6367 107.021C45.2646 106.922 45.9081 106.968 46.5137 107.155C47.1192 107.342 47.6693 107.665 48.1179 108.096C49.1242 109.111 49.4867 110.693 49.1492 112.556C48.8077 114.152 48.1729 115.679 47.2742 117.064C47.0201 117.467 46.7294 117.849 46.4054 118.204C46.3432 118.265 46.2681 118.312 46.1851 118.343C46.1021 118.374 46.0131 118.388 45.9242 118.383ZM33.0054 112.49C36.6852 114.331 40.5617 115.788 44.5679 116.837L45.6929 117.117C45.8762 116.901 46.0413 116.672 46.1867 116.431C47.0143 115.171 47.6005 113.78 47.9179 112.323C48.1867 110.842 47.9179 109.618 47.2117 108.89C46.8957 108.596 46.5111 108.377 46.0895 108.253C45.6679 108.128 45.2214 108.101 44.7867 108.173C42.4367 108.454 36.8554 110.795 33.7367 112.168L33.0054 112.49Z" fill="#093F68"/>
<path d="M78.2359 68.1287H41.7609C39.0927 68.1287 36.9297 70.195 36.9297 72.7439V80.9595C36.9297 83.5084 39.0927 85.5747 41.7609 85.5747H78.2359C80.9042 85.5747 83.0672 83.5084 83.0672 80.9595V72.7439C83.0672 70.195 80.9042 68.1287 78.2359 68.1287Z" fill="#FFBC0E"/>
<path d="M78.2297 86.1719H41.7672C40.32 86.1704 38.9325 85.6209 37.9087 84.6439C36.8848 83.6669 36.308 82.3421 36.3047 80.9596V72.75C36.3063 71.3665 36.8824 70.0402 37.9065 69.0619C38.9305 68.0836 40.319 67.5333 41.7672 67.5317H78.2297C79.6779 67.5333 81.0664 68.0836 82.0904 69.0619C83.1145 70.0402 83.6905 71.3665 83.6922 72.75V80.9596C83.6889 82.3421 83.1121 83.6669 82.0882 84.6439C81.0644 85.6209 79.6769 86.1704 78.2297 86.1719ZM41.7672 68.7259C40.65 68.7259 39.5785 69.1498 38.7885 69.9045C37.9985 70.6592 37.5547 71.6828 37.5547 72.75V80.9596C37.5563 82.0258 38.0009 83.0479 38.7907 83.8013C39.5805 84.5547 40.651 84.9778 41.7672 84.9778H78.2297C79.3458 84.9778 80.4164 84.5547 81.2062 83.8013C81.996 83.0479 82.4405 82.0258 82.4422 80.9596V72.75C82.4422 72.2216 82.3332 71.6983 82.1215 71.2101C81.9098 70.7218 81.5996 70.2782 81.2084 69.9045C80.8172 69.5308 80.3528 69.2344 79.8418 69.0322C79.3307 68.83 78.7829 68.7259 78.2297 68.7259H41.7672Z" fill="#093F68"/>
<path d="M58.0548 82.1418L53.2485 77.0847C53.0695 76.8978 52.9756 76.6507 52.9873 76.3977C52.999 76.1446 53.1155 75.9064 53.311 75.7354L54.6485 74.5771C54.8457 74.4083 55.1045 74.3206 55.3689 74.3329C55.6333 74.3452 55.8819 74.4565 56.061 74.6427L58.9548 77.6877L66.936 70.6007C67.0316 70.5154 67.1437 70.4491 67.2662 70.4053C67.3886 70.3616 67.5189 70.3414 67.6495 70.3458C67.7801 70.3503 67.9086 70.3793 68.0274 70.4312C68.1463 70.4831 68.2533 70.5569 68.3423 70.6484L69.5923 71.9142C69.6815 72.0054 69.7509 72.1126 69.7967 72.2296C69.8425 72.3466 69.8637 72.471 69.859 72.5958C69.8544 72.7206 69.824 72.8433 69.7697 72.9568C69.7153 73.0704 69.638 73.1726 69.5423 73.2576L59.4735 82.2134C59.3765 82.2998 59.2623 82.3666 59.1377 82.4098C59.0131 82.4531 58.8806 82.472 58.7482 82.4653C58.6158 82.4586 58.4862 82.4265 58.367 82.3709C58.2479 82.3154 58.1417 82.2374 58.0548 82.1418Z" fill="white"/>
<path d="M58.7859 83.0491H58.7484C58.5353 83.0416 58.326 82.9934 58.1327 82.9073C57.9395 82.8211 57.7663 82.6988 57.6234 82.5476L52.8172 77.4905C52.5262 77.1869 52.3733 76.7853 52.3922 76.374C52.4157 75.9632 52.6063 75.5776 52.9234 75.2993L54.2609 74.141C54.5801 73.8657 55.0001 73.7219 55.4297 73.7409C55.8592 73.7599 56.2636 73.9402 56.5547 74.2425L59.0234 76.8457L66.5234 70.1705C66.8386 69.8907 67.2571 69.7418 67.6871 69.7563C68.1171 69.7709 68.5235 69.9478 68.8172 70.2482L70.0672 71.5139C70.3593 71.8158 70.5141 72.216 70.4977 72.6268C70.4813 73.0376 70.295 73.4254 69.9797 73.7051L59.9109 82.661C59.6016 82.9228 59.1991 83.0617 58.7859 83.0491ZM55.3234 74.941C55.2313 74.94 55.1421 74.972 55.0734 75.0306L53.7484 76.177C53.7137 76.2097 53.6861 76.2488 53.6672 76.2918C53.6484 76.3349 53.6387 76.3811 53.6387 76.4277C53.6387 76.4744 53.6484 76.5206 53.6672 76.5636C53.6861 76.6067 53.7137 76.6457 53.7484 76.6785L58.5547 81.7415C58.6225 81.8083 58.7138 81.8487 58.8109 81.855C58.8583 81.8575 58.9057 81.8503 58.9499 81.8338C58.9941 81.8173 59.0341 81.792 59.0672 81.7594L69.1359 72.8036C69.2047 72.7366 69.2431 72.6466 69.2431 72.5528C69.2431 72.459 69.2047 72.369 69.1359 72.302L67.8859 71.0363C67.8158 70.9706 67.7216 70.9339 67.6234 70.9339C67.5253 70.9339 67.431 70.9706 67.3609 71.0363L59.3734 78.1234C59.3129 78.177 59.2418 78.2187 59.1643 78.246C59.0868 78.2733 59.0044 78.2856 58.9219 78.2823C58.8393 78.2789 58.7583 78.26 58.6835 78.2266C58.6087 78.1932 58.5415 78.1459 58.4859 78.0875L55.5922 75.0425C55.5569 75.0092 55.5148 74.983 55.4687 74.9656C55.4225 74.9481 55.3731 74.9398 55.3234 74.941Z" fill="#093F68"/>
<path d="M32.2875 110.627C31.9375 111.153 31.5875 111.696 31.225 112.251C21.5592 107.08 13.6009 99.4274 8.25 90.1603C10.6761 89.2971 13.3332 89.2257 15.8062 89.9573C17.1562 90.3573 28.4813 94.4113 28.4813 94.4113C28.4813 94.4113 29.5687 92.6978 31.0562 90.3752L37.2062 80.7566C37.4437 80.3864 37.6687 80.0461 37.8687 79.7296C39.175 77.6996 42.8 72.5291 47.475 74.2068C51.9812 75.8249 49.9187 79.8311 48.3312 83.3239L48.1625 83.706C45.8814 88.8322 43.2205 93.7964 40.2 98.5609C37.8187 102.37 35.2625 106.084 32.2875 110.627Z" fill="#FFC9B0"/>
<path d="M31.2499 112.848C31.1426 112.848 31.0371 112.821 30.9437 112.771C21.1714 107.55 13.1207 99.8237 7.69995 90.4646C7.65682 90.3894 7.63114 90.3062 7.62467 90.2207C7.6182 90.1352 7.63109 90.0493 7.66245 89.969C7.69441 89.8878 7.74451 89.8142 7.80927 89.7534C7.87403 89.6925 7.9519 89.6459 8.03745 89.6167C10.5917 88.7053 13.3909 88.6318 15.9937 89.4078C17.1999 89.76 25.9937 92.9065 28.2187 93.6947C28.6249 93.0498 29.4687 91.7184 30.5249 90.1123L36.6749 80.4937L36.9687 80.0399C37.0937 79.8369 37.2187 79.6518 37.3312 79.4429C41.4374 73.0722 45.2312 72.7856 47.6937 73.6693C48.3067 73.8481 48.8739 74.147 49.3592 74.5469C49.8445 74.9468 50.2373 75.4389 50.5125 75.9919C51.4312 78.0696 50.25 80.6489 49.1062 83.1566L48.9062 83.5984C48.8499 83.7178 48.7937 83.8492 48.7374 83.9745C46.4457 89.1254 43.7722 94.1136 40.7374 98.901C39.2062 101.355 37.5812 103.791 35.8624 106.376C34.8937 107.833 33.8812 109.361 32.8187 110.98C32.5687 111.356 32.3187 111.744 32.0624 112.138L31.7625 112.598C31.7043 112.676 31.6274 112.739 31.5382 112.783C31.449 112.826 31.3502 112.849 31.2499 112.848ZM9.18745 90.5004C10.5473 92.7764 12.0719 94.959 13.7499 97.0322C18.4556 102.876 24.3297 107.77 31.0312 111.427C31.2812 111.039 31.5312 110.657 31.7812 110.287C32.8437 108.657 33.8562 107.134 34.8249 105.672C36.5437 103.098 38.1562 100.668 39.6812 98.2323C42.6884 93.4914 45.3368 88.551 47.6062 83.4491C47.6624 83.3237 47.7187 83.2043 47.7687 83.073L47.9812 82.6192C48.9687 80.4579 50.0874 78.0099 49.3749 76.4098C49.1672 76.0067 48.8728 75.6499 48.511 75.3629C48.1491 75.0758 47.7279 74.865 47.2749 74.744C43.6062 73.4245 40.4374 76.8874 38.4187 80.016C38.3062 80.2011 38.1812 80.3922 38.0499 80.6131L37.7562 81.0609L31.6062 90.6795L29.0375 94.7156C28.962 94.8354 28.845 94.926 28.7069 94.9718C28.5687 95.0177 28.418 95.0157 28.2812 94.9664C28.1687 94.9246 16.9562 90.9124 15.6375 90.5243C13.5307 89.8948 11.2742 89.8865 9.16245 90.5004H9.18745Z" fill="#093F68"/>
<path d="M89.9986 109.642C89.9986 109.642 89.5611 109.254 88.8236 108.58C86.7423 106.705 82.2486 102.579 78.3111 98.5609C74.9986 95.1815 72.0611 91.8738 71.3111 90.0349C70.7865 88.9515 70.5808 87.7521 70.7163 86.5654C70.8517 85.3788 71.3231 84.2499 72.0799 83.3C72.7499 82.5208 73.5759 81.877 74.5096 81.4065C75.4432 80.9359 76.4658 80.648 77.5173 80.5595C78.4299 80.464 79.8736 81.1566 81.6236 82.3507C84.2044 84.1773 86.6498 86.1723 88.9424 88.3213C94.8736 93.7426 99.8361 98.3638 101.442 100.071" fill="#FFC9B0"/>
<path d="M89.9988 110.239C89.8409 110.239 89.6891 110.181 89.5738 110.078C89.5738 110.078 89.1363 109.69 88.3926 109.009C87.0051 107.761 82.1426 103.331 77.8551 98.9667C73.8238 94.859 71.4301 91.9274 70.7301 90.2556C70.1782 89.0748 69.9689 87.774 70.1239 86.4893C70.2789 85.2047 70.7927 83.9835 71.6113 82.9536C72.3298 82.1068 73.2189 81.4062 74.2259 80.8934C75.2329 80.3807 76.3373 80.0661 77.4738 79.9683C78.5113 79.8608 79.9738 80.4579 82.0113 81.8431C84.6103 83.7032 87.0705 85.7342 89.3738 87.9211C96.3801 94.3216 100.474 98.1786 101.874 99.7071C101.938 99.7638 101.988 99.8326 102.023 99.9091C102.057 99.9857 102.074 100.068 102.073 100.152C102.072 100.235 102.053 100.317 102.017 100.393C101.98 100.468 101.928 100.536 101.863 100.591C101.798 100.647 101.721 100.688 101.638 100.713C101.555 100.739 101.467 100.747 101.38 100.738C101.294 100.729 101.21 100.703 101.135 100.661C101.059 100.619 100.994 100.563 100.943 100.495C99.5613 99.0145 95.3738 95.0739 88.4926 88.7809C86.2266 86.6406 83.8038 84.6573 81.2426 82.8461C78.9551 81.2998 77.9551 81.1326 77.5676 81.1744C76.6003 81.2544 75.6596 81.5185 74.8009 81.9513C73.9422 82.384 73.1828 82.9765 72.5676 83.694C71.1676 85.3956 70.9176 87.5689 71.8613 89.8138C72.2988 90.8646 73.8488 93.1693 78.7363 98.1726C82.9863 102.507 87.8363 106.914 89.2238 108.161C89.9551 108.836 90.3926 109.218 90.3926 109.224C90.5132 109.332 90.5842 109.481 90.5901 109.639C90.5959 109.797 90.5362 109.95 90.4238 110.066C90.3105 110.173 90.1584 110.235 89.9988 110.239Z" fill="#093F68"/>
<path d="M79.8359 51.5424V3.8732C79.8359 2.4355 78.6159 1.27002 77.1109 1.27002L42.8797 1.27002C41.3747 1.27002 40.1547 2.4355 40.1547 3.8732V51.5424C40.1547 52.9801 41.3747 54.1455 42.8797 54.1455H77.1109C78.6159 54.1455 79.8359 52.9801 79.8359 51.5424Z" fill="white"/>
<path d="M77.1125 54.7427H42.8875C41.9984 54.7427 41.1457 54.4057 40.5165 53.8057C39.8872 53.2057 39.5329 52.3917 39.5312 51.5424V3.89116C39.5346 3.04234 39.8894 2.22927 40.5183 1.62962C41.1472 1.02997 41.999 0.69249 42.8875 0.690918H77.1125C78.001 0.69249 78.8528 1.02997 79.4817 1.62962C80.1106 2.22927 80.4654 3.04234 80.4687 3.89116V51.5603C80.4621 52.4065 80.1056 53.2159 79.4769 53.8121C78.8482 54.4082 77.9983 54.7427 77.1125 54.7427ZM42.8875 1.86713C42.6098 1.86712 42.3349 1.91956 42.0786 2.02142C41.8222 2.12328 41.5895 2.27256 41.3937 2.46067C41.198 2.64877 41.0431 2.872 40.938 3.1175C40.8329 3.36299 40.7796 3.62592 40.7812 3.89116V51.5603C40.7812 51.8243 40.8358 52.0857 40.9417 52.3294C41.0476 52.5732 41.2029 52.7946 41.3985 52.981C41.5942 53.1674 41.8264 53.315 42.0819 53.4155C42.3375 53.5159 42.6112 53.5673 42.8875 53.5665H77.1125C77.3888 53.5673 77.6625 53.5159 77.918 53.4155C78.1735 53.315 78.4058 53.1674 78.6015 52.981C78.7971 52.7946 78.9524 52.5732 79.0583 52.3294C79.1642 52.0857 79.2187 51.8243 79.2187 51.5603V3.89116C79.2171 3.35855 78.9944 2.8483 78.5996 2.47225C78.2048 2.0962 77.67 1.88503 77.1125 1.88504L42.8875 1.86713Z" fill="#093F68"/>
<path d="M79.0984 53.9306C79.0086 53.9313 78.9197 53.9136 78.8377 53.8786C78.7558 53.8435 78.6827 53.792 78.6234 53.7276L55.0734 28.1018C54.9732 27.9929 54.918 27.8528 54.918 27.7078C54.918 27.5628 54.9732 27.4227 55.0734 27.3137L78.6234 1.69394C78.7328 1.57438 78.8875 1.50124 79.0533 1.4906C79.2192 1.47997 79.3826 1.5327 79.5078 1.63722C79.6329 1.74173 79.7095 1.88945 79.7206 2.04789C79.7318 2.20633 79.6766 2.3625 79.5672 2.48205L56.3797 27.7078L79.5672 52.9395C79.6764 53.0583 79.7319 53.2137 79.7213 53.3715C79.7108 53.5294 79.6351 53.6767 79.5109 53.7813C79.397 53.8773 79.2503 53.9304 79.0984 53.9306Z" fill="#093F68"/>
<path d="M40.9113 53.9366C40.7579 53.9342 40.6101 53.8815 40.4925 53.7873C40.4306 53.7351 40.3801 53.6715 40.344 53.6005C40.3079 53.5294 40.2869 53.4523 40.2822 53.3734C40.2776 53.2945 40.2894 53.2156 40.3169 53.1411C40.3444 53.0666 40.3871 52.9981 40.4425 52.9395L59.5925 32.2275C59.7028 32.1088 59.8579 32.0367 60.0237 32.0272C60.1896 32.0177 60.3526 32.0715 60.4769 32.1768C60.6012 32.2821 60.6767 32.4303 60.6866 32.5887C60.6966 32.7471 60.6403 32.9029 60.53 33.0216L41.38 53.7336C41.3215 53.7973 41.2494 53.8483 41.1685 53.8833C41.0877 53.9183 41 53.9365 40.9113 53.9366Z" fill="#093F68"/>
<path d="M60.0621 23.3912C59.9733 23.3911 59.8856 23.3729 59.8048 23.3379C59.724 23.3029 59.6519 23.2519 59.5933 23.1882L40.4433 2.4762C40.3333 2.35814 40.2768 2.20322 40.2862 2.0454C40.2955 1.88759 40.37 1.73977 40.4933 1.63435C40.5551 1.58176 40.6271 1.5414 40.7053 1.5156C40.7835 1.48981 40.8663 1.47911 40.9488 1.48411C41.0314 1.4891 41.1121 1.50971 41.1862 1.54472C41.2604 1.57974 41.3265 1.62847 41.3808 1.68809L60.5308 22.4001C60.6401 22.5189 60.6955 22.6743 60.685 22.8321C60.6744 22.9899 60.5987 23.1373 60.4746 23.2419C60.3606 23.3379 60.214 23.391 60.0621 23.3912Z" fill="#093F68"/>
<path d="M67.3242 63.597C67.1585 63.597 66.9995 63.5341 66.8823 63.4222C66.7651 63.3102 66.6992 63.1583 66.6992 63V48.8258C66.6992 48.6675 66.7651 48.5156 66.8823 48.4036C66.9995 48.2917 67.1585 48.2288 67.3242 48.2288C67.49 48.2288 67.649 48.2917 67.7662 48.4036C67.8834 48.5156 67.9492 48.6675 67.9492 48.8258V63C67.9492 63.1583 67.8834 63.3102 67.7662 63.4222C67.649 63.5341 67.49 63.597 67.3242 63.597Z" fill="#68E1FD"/>
<path d="M59.6738 66.5823C59.5081 66.5823 59.3491 66.5194 59.2319 66.4074C59.1147 66.2955 59.0488 66.1436 59.0488 65.9853V41.0939C59.0488 40.9355 59.1147 40.7837 59.2319 40.6717C59.3491 40.5597 59.5081 40.4968 59.6738 40.4968C59.8396 40.4968 59.9986 40.5597 60.1158 40.6717C60.233 40.7837 60.2988 40.9355 60.2988 41.0939V65.9853C60.2988 66.1436 60.233 66.2955 60.1158 66.4074C59.9986 66.5194 59.8396 66.5823 59.6738 66.5823Z" fill="#68E1FD"/>
<path d="M50.2109 62.5403C50.0452 62.5403 49.8862 62.4774 49.769 62.3655C49.6518 62.2535 49.5859 62.1016 49.5859 61.9433V55.913C49.5859 55.7546 49.6518 55.6028 49.769 55.4908C49.8862 55.3788 50.0452 55.3159 50.2109 55.3159C50.3767 55.3159 50.5357 55.3788 50.6529 55.4908C50.7701 55.6028 50.8359 55.7546 50.8359 55.913V61.9433C50.8359 62.1016 50.7701 62.2535 50.6529 62.3655C50.5357 62.4774 50.3767 62.5403 50.2109 62.5403Z" fill="#68E1FD"/>
<path d="M20.8867 62.1164C20.721 62.1164 20.562 62.0535 20.4448 61.9415C20.3276 61.8295 20.2617 61.6777 20.2617 61.5193V39.8341C20.2617 39.6758 20.3276 39.5239 20.4448 39.4119C20.562 39.3 20.721 39.2371 20.8867 39.2371C21.0525 39.2371 21.2115 39.3 21.3287 39.4119C21.4459 39.5239 21.5117 39.6758 21.5117 39.8341V61.5193C21.5117 61.6777 21.4459 61.8295 21.3287 61.9415C21.2115 62.0535 21.0525 62.1164 20.8867 62.1164Z" fill="#DFEAEF"/>
<path d="M11.3867 75.5383C11.221 75.5383 11.062 75.4754 10.9448 75.3634C10.8276 75.2514 10.7617 75.0996 10.7617 74.9412V57.0294C10.7617 56.8711 10.8276 56.7192 10.9448 56.6072C11.062 56.4953 11.221 56.4324 11.3867 56.4324C11.5525 56.4324 11.7115 56.4953 11.8287 56.6072C11.9459 56.7192 12.0117 56.8711 12.0117 57.0294V74.9412C12.0117 75.0996 11.9459 75.2514 11.8287 75.3634C11.7115 75.4754 11.5525 75.5383 11.3867 75.5383Z" fill="#DFEAEF"/>
<path d="M98.3183 54.1336C98.1526 54.1336 97.9936 54.0707 97.8764 53.9587C97.7592 53.8468 97.6934 53.6949 97.6934 53.5366V37.9235C97.6934 37.7651 97.7592 37.6133 97.8764 37.5013C97.9936 37.3893 98.1526 37.3264 98.3183 37.3264C98.4841 37.3264 98.6431 37.3893 98.7603 37.5013C98.8775 37.6133 98.9433 37.7651 98.9433 37.9235V53.5604C98.9369 53.7146 98.8682 53.8604 98.7517 53.9673C98.6351 54.0741 98.4799 54.1337 98.3183 54.1336Z" fill="#DFEAEF"/>
<path d="M103.48 62.6596C103.315 62.6596 103.156 62.5967 103.039 62.4848C102.921 62.3728 102.855 62.2209 102.855 62.0626V51.9603C102.855 51.802 102.921 51.6501 103.039 51.5382C103.156 51.4262 103.315 51.3633 103.48 51.3633C103.646 51.3633 103.805 51.4262 103.922 51.5382C104.04 51.6501 104.105 51.802 104.105 51.9603V62.0626C104.105 62.2209 104.04 62.3728 103.922 62.4848C103.805 62.5967 103.646 62.6596 103.48 62.6596Z" fill="#DFEAEF"/>
<path d="M110.48 70.9408C110.315 70.9408 110.156 70.8779 110.039 70.766C109.921 70.654 109.855 70.5021 109.855 70.3438V50.6766C109.855 50.5183 109.921 50.3664 110.039 50.2545C110.156 50.1425 110.315 50.0796 110.48 50.0796C110.646 50.0796 110.805 50.1425 110.922 50.2545C111.04 50.3664 111.105 50.5183 111.105 50.6766V70.3438C111.105 70.5021 111.04 70.654 110.922 70.766C110.805 70.8779 110.646 70.9408 110.48 70.9408Z" fill="#DFEAEF"/>
</svg>
