<svg width="9" height="7" viewBox="0 0 9 7" fill="none" xmlns="http://www.w3.org/2000/svg">
<path d="M0.124305 1.33333C0.12402 1.13862 0.174878 0.949928 0.268054 0.800001C0.320522 0.715619 0.384961 0.645868 0.457678 0.594741C0.530396 0.543614 0.609962 0.512118 0.691822 0.502054C0.773683 0.491991 0.856228 0.503559 0.93473 0.536097C1.01323 0.568634 1.08615 0.6215 1.1493 0.691668L4.4993 4.425L7.85555 0.825002C7.91948 0.75578 7.99304 0.704087 8.07201 0.672894C8.15097 0.641701 8.23378 0.631623 8.31567 0.643239C8.39756 0.654855 8.47693 0.687936 8.5492 0.740581C8.62147 0.793225 8.68523 0.864396 8.7368 0.950002C8.7937 1.03622 8.83662 1.13719 8.86286 1.24658C8.88911 1.35597 8.89811 1.4714 8.88931 1.58565C8.8805 1.69989 8.85408 1.81048 8.81171 1.91046C8.76933 2.01045 8.71191 2.09767 8.64305 2.16667L4.89305 6.19167C4.78122 6.31424 4.64094 6.38124 4.49618 6.38124C4.35141 6.38124 4.21114 6.31424 4.0993 6.19167L0.349305 2.025C0.273669 1.9414 0.213879 1.83521 0.174786 1.71503C0.135694 1.59486 0.118398 1.46409 0.124305 1.33333Z" fill="#023047"/>
</svg>
