<svg width="120" height="114" viewBox="0 0 120 114" fill="none" xmlns="http://www.w3.org/2000/svg">
<path d="M91.1699 1.00903H5.23242V101.806H91.1699V1.00903Z" fill="#68E1FD"/>
<path d="M91.1699 102.476H5.23242C5.06666 102.476 4.90769 102.406 4.79048 102.282C4.67327 102.157 4.60742 101.988 4.60742 101.813V1.0091C4.60742 0.833158 4.67327 0.664419 4.79048 0.540008C4.90769 0.415596 5.06666 0.345703 5.23242 0.345703H91.1699C91.3357 0.345703 91.4946 0.415596 91.6119 0.540008C91.7291 0.664419 91.7949 0.833158 91.7949 1.0091V101.846C91.7869 102.016 91.7175 102.176 91.6012 102.293C91.4848 102.411 91.3304 102.476 91.1699 102.476ZM5.85742 101.149H90.5449V1.6725H5.85742V101.149Z" fill="#093F68"/>
<path d="M99.0187 112.991H15.5V23.903L30.325 9.32812H99.0187V112.991Z" fill="white"/>
<path d="M99.0187 113.654H15.5C15.3342 113.654 15.1753 113.584 15.0581 113.46C14.9408 113.335 14.875 113.167 14.875 112.991V23.9029C14.8753 23.812 14.8932 23.722 14.9276 23.6387C14.962 23.5554 15.0122 23.4805 15.075 23.4186L29.9 8.82387C30.0162 8.71173 30.1679 8.65016 30.325 8.65139H99.0187C99.1845 8.65139 99.3435 8.72128 99.4607 8.84569C99.5779 8.9701 99.6437 9.13884 99.6437 9.31478V112.991C99.6437 113.167 99.5779 113.335 99.4607 113.46C99.3435 113.584 99.1845 113.654 99.0187 113.654ZM16.125 112.327H98.3937V9.99145H30.5687L16.125 24.1948V112.327Z" fill="#093F68"/>
<path d="M15.5 23.903H30.1562L30.325 9.32812L15.5 23.903Z" fill="white"/>
<path d="M30.156 24.5665H15.4998C15.3746 24.566 15.2525 24.5257 15.1491 24.4507C15.0458 24.3757 14.9661 24.2694 14.9203 24.1458C14.8745 24.0221 14.8647 23.8867 14.8923 23.7571C14.9198 23.6275 14.9834 23.5096 15.0748 23.4188L29.8998 8.82405C29.9896 8.73559 30.1019 8.67712 30.2228 8.65588C30.3437 8.63464 30.4678 8.65158 30.5797 8.7046C30.6915 8.75761 30.7863 8.84436 30.8521 8.95406C30.9179 9.06376 30.9519 9.19156 30.9498 9.32159L30.781 23.9164C30.7778 24.09 30.7105 24.2553 30.5936 24.3769C30.4768 24.4985 30.3197 24.5665 30.156 24.5665ZM17.0936 23.2397H29.5373L29.6811 10.8607L17.0936 23.2397Z" fill="#093F68"/>
<path d="M87.875 36.6337H35.5625C35.3967 36.6337 35.2378 36.5638 35.1206 36.4394C35.0033 36.315 34.9375 36.1462 34.9375 35.9703C34.9375 35.7943 35.0033 35.6256 35.1206 35.5012C35.2378 35.3768 35.3967 35.3069 35.5625 35.3069H87.875C88.0408 35.3069 88.1997 35.3768 88.3169 35.5012C88.4342 35.6256 88.5 35.7943 88.5 35.9703C88.5 36.1462 88.4342 36.315 88.3169 36.4394C88.1997 36.5638 88.0408 36.6337 87.875 36.6337Z" fill="#DFEAEF"/>
<path d="M69.4496 45.8615H26.6621C26.4963 45.8615 26.3374 45.7916 26.2202 45.6672C26.103 45.5427 26.0371 45.374 26.0371 45.1981C26.0371 45.0221 26.103 44.8534 26.2202 44.729C26.3374 44.6046 26.4963 44.5347 26.6621 44.5347H69.4496C69.6154 44.5347 69.7744 44.6046 69.8916 44.729C70.0088 44.8534 70.0746 45.0221 70.0746 45.1981C70.0746 45.374 70.0088 45.5427 69.8916 45.6672C69.7744 45.7916 69.6154 45.8615 69.4496 45.8615Z" fill="#DFEAEF"/>
<path d="M87.8758 55.0892H25.0508C24.885 55.0892 24.726 55.0193 24.6088 54.8949C24.4916 54.7705 24.4258 54.6018 24.4258 54.4258C24.4258 54.2499 24.4916 54.0812 24.6088 53.9568C24.726 53.8323 24.885 53.7625 25.0508 53.7625H87.8758C88.0415 53.7625 88.2005 53.8323 88.3177 53.9568C88.4349 54.0812 88.5008 54.2499 88.5008 54.4258C88.5008 54.6018 88.4349 54.7705 88.3177 54.8949C88.2005 55.0193 88.0415 55.0892 87.8758 55.0892Z" fill="#DFEAEF"/>
<path d="M87.8754 64.2973H46.9316C46.7659 64.2973 46.6069 64.2274 46.4897 64.103C46.3725 63.9785 46.3066 63.8098 46.3066 63.6339C46.3066 63.4579 46.3725 63.2892 46.4897 63.1648C46.6069 63.0404 46.7659 62.9705 46.9316 62.9705H87.8754C88.0411 62.9705 88.2001 63.0404 88.3173 63.1648C88.4345 63.2892 88.5004 63.4579 88.5004 63.6339C88.5004 63.8098 88.4345 63.9785 88.3173 64.103C88.2001 64.2274 88.0411 64.2973 87.8754 64.2973Z" fill="#DFEAEF"/>
<path d="M40.6875 64.2973H32.5625C32.3967 64.2973 32.2378 64.2274 32.1206 64.103C32.0033 63.9785 31.9375 63.8098 31.9375 63.6339C31.9375 63.4579 32.0033 63.2892 32.1206 63.1648C32.2378 63.0404 32.3967 62.9705 32.5625 62.9705H40.6875C40.8533 62.9705 41.0122 63.0404 41.1294 63.1648C41.2467 63.2892 41.3125 63.4579 41.3125 63.6339C41.3125 63.8098 41.2467 63.9785 41.1294 64.103C41.0122 64.2274 40.8533 64.2973 40.6875 64.2973Z" fill="#DFEAEF"/>
<path d="M87.8762 73.5451H69.4512C69.2854 73.5451 69.1264 73.4752 69.0092 73.3508C68.892 73.2263 68.8262 73.0576 68.8262 72.8817C68.8262 72.7057 68.892 72.537 69.0092 72.4126C69.1264 72.2882 69.2854 72.2183 69.4512 72.2183H87.8762C88.0419 72.2183 88.2009 72.2882 88.3181 72.4126C88.4353 72.537 88.5012 72.7057 88.5012 72.8817C88.5012 73.0576 88.4353 73.2263 88.3181 73.3508C88.2009 73.4752 88.0419 73.5451 87.8762 73.5451Z" fill="#DFEAEF"/>
<path d="M64.75 73.5451H26.625C26.4592 73.5451 26.3003 73.4752 26.1831 73.3508C26.0658 73.2263 26 73.0576 26 72.8817C26 72.7057 26.0658 72.537 26.1831 72.4126C26.3003 72.2882 26.4592 72.2183 26.625 72.2183H64.75C64.9158 72.2183 65.0747 72.2882 65.1919 72.4126C65.3092 72.537 65.375 72.7057 65.375 72.8817C65.375 73.0576 65.3092 73.2263 65.1919 73.3508C65.0747 73.4752 64.9158 73.5451 64.75 73.5451Z" fill="#DFEAEF"/>
<path d="M87.875 82.7731H77.9375C77.7717 82.7731 77.6128 82.7032 77.4956 82.5788C77.3783 82.4544 77.3125 82.2856 77.3125 82.1097C77.3125 81.9337 77.3783 81.765 77.4956 81.6406C77.6128 81.5162 77.7717 81.4463 77.9375 81.4463H87.875C88.0407 81.4463 88.1997 81.5162 88.3169 81.6406C88.4341 81.765 88.5 81.9337 88.5 82.1097C88.5 82.2856 88.4341 82.4544 88.3169 82.5788C88.1997 82.7032 88.0407 82.7731 87.875 82.7731Z" fill="#DFEAEF"/>
<path d="M73.6371 82.7731H59.4121C59.2463 82.7731 59.0874 82.7032 58.9702 82.5788C58.853 82.4544 58.7871 82.2856 58.7871 82.1097C58.7871 81.9337 58.853 81.765 58.9702 81.6406C59.0874 81.5162 59.2463 81.4463 59.4121 81.4463H73.6371C73.8029 81.4463 73.9619 81.5162 74.0791 81.6406C74.1963 81.765 74.2621 81.9337 74.2621 82.1097C74.2621 82.2856 74.1963 82.4544 74.0791 82.5788C73.9619 82.7032 73.8029 82.7731 73.6371 82.7731Z" fill="#DFEAEF"/>
<path d="M54.2887 82.7731H42.9199C42.7542 82.7731 42.5952 82.7032 42.478 82.5788C42.3608 82.4544 42.2949 82.2856 42.2949 82.1097C42.2949 81.9337 42.3608 81.765 42.478 81.6406C42.5952 81.5162 42.7542 81.4463 42.9199 81.4463H54.2887C54.4544 81.4463 54.6134 81.5162 54.7306 81.6406C54.8478 81.765 54.9137 81.9337 54.9137 82.1097C54.9137 82.2856 54.8478 82.4544 54.7306 82.5788C54.6134 82.7032 54.4544 82.7731 54.2887 82.7731Z" fill="#DFEAEF"/>
<path d="M38.4621 82.7731H26.6621C26.4963 82.7731 26.3374 82.7032 26.2202 82.5788C26.103 82.4544 26.0371 82.2856 26.0371 82.1097C26.0371 81.9337 26.103 81.765 26.2202 81.6406C26.3374 81.5162 26.4963 81.4463 26.6621 81.4463H38.4621C38.6279 81.4463 38.7868 81.5162 38.9041 81.6406C39.0213 81.765 39.0871 81.9337 39.0871 82.1097C39.0871 82.2856 39.0213 82.4544 38.9041 82.5788C38.7868 82.7032 38.6279 82.7731 38.4621 82.7731Z" fill="#DFEAEF"/>
<path d="M75.4687 92.0009H35.5625C35.3967 92.0009 35.2378 91.931 35.1206 91.8066C35.0033 91.6822 34.9375 91.5134 34.9375 91.3375C34.9375 91.1615 35.0033 90.9928 35.1206 90.8684C35.2378 90.744 35.3967 90.6741 35.5625 90.6741H75.4687C75.6345 90.6741 75.7935 90.744 75.9107 90.8684C76.0279 90.9928 76.0937 91.1615 76.0937 91.3375C76.0937 91.5134 76.0279 91.6822 75.9107 91.8066C75.7935 91.931 75.6345 92.0009 75.4687 92.0009Z" fill="#DFEAEF"/>
<path d="M82.875 45.8615H77.875C77.7092 45.8615 77.5503 45.7916 77.4331 45.6672C77.3158 45.5427 77.25 45.374 77.25 45.1981C77.25 45.0221 77.3158 44.8534 77.4331 44.729C77.5503 44.6046 77.7092 44.5347 77.875 44.5347H82.875C83.0407 44.5347 83.1997 44.6046 83.3169 44.729C83.4341 44.8534 83.5 45.0221 83.5 45.1981C83.5 45.374 83.4341 45.5427 83.3169 45.6672C83.1997 45.7916 83.0407 45.8615 82.875 45.8615Z" fill="#DFEAEF"/>
<path d="M87.8762 22.2047H69.4512C69.2854 22.2047 69.1264 22.1348 69.0092 22.0104C68.892 21.886 68.8262 21.7173 68.8262 21.5413C68.8262 21.3654 68.892 21.1966 69.0092 21.0722C69.1264 20.9478 69.2854 20.8779 69.4512 20.8779H87.8762C88.0419 20.8779 88.2009 20.9478 88.3181 21.0722C88.4353 21.1966 88.5012 21.3654 88.5012 21.5413C88.5012 21.7173 88.4353 21.886 88.3181 22.0104C88.2009 22.1348 88.0419 22.2047 87.8762 22.2047Z" fill="#DFEAEF"/>
<path d="M68.882 60.8743H113.47V95.5169C113.47 96.1187 113.244 96.6958 112.843 97.1212C112.443 97.5467 111.899 97.7858 111.332 97.7858H71.0008C70.4339 97.7858 69.8902 97.5467 69.4893 97.1212C69.0885 96.6958 68.8633 96.1187 68.8633 95.5169V60.8743H68.882Z" fill="white"/>
<path d="M111.332 98.449H71.0008C70.2686 98.4472 69.5669 98.1377 69.0492 97.5882C68.5315 97.0387 68.2399 96.2939 68.2383 95.5168V60.8741C68.2383 60.6981 68.3041 60.5294 68.4213 60.405C68.5385 60.2806 68.6975 60.2107 68.8633 60.2107H113.501C113.667 60.2107 113.825 60.2806 113.943 60.405C114.06 60.5294 114.126 60.6981 114.126 60.8741V95.5168C114.125 95.9044 114.052 96.288 113.911 96.6455C113.77 97.0031 113.563 97.3274 113.304 97.6C113.044 97.8725 112.736 98.0879 112.398 98.2336C112.059 98.3793 111.697 98.4525 111.332 98.449ZM69.507 61.5375V95.5168C69.5087 95.942 69.6686 96.3493 69.9519 96.65C70.2351 96.9507 70.6189 97.1204 71.0195 97.1222H111.332C111.733 97.1204 112.116 96.9507 112.4 96.65C112.683 96.3493 112.843 95.942 112.845 95.5168V61.5375H69.507Z" fill="#093F68"/>
<path d="M70.9996 56.7478H111.306C111.873 56.7478 112.416 56.9868 112.817 57.4123C113.218 57.8378 113.443 58.4149 113.443 59.0166V60.8741H68.8809V58.9901C68.8874 58.3964 69.1129 57.8291 69.509 57.4099C69.9051 56.9907 70.4403 56.753 70.9996 56.7478Z" fill="#FFBC0E"/>
<path d="M113.5 61.5377H68.8809C68.7151 61.5377 68.5561 61.4678 68.4389 61.3433C68.3217 61.2189 68.2559 61.0502 68.2559 60.8743V58.9902C68.2559 58.2125 68.5469 57.4667 69.065 56.9168C69.583 56.3669 70.2857 56.058 71.0184 56.058H111.331C111.696 56.0545 112.058 56.1277 112.397 56.2734C112.735 56.4191 113.043 56.6344 113.303 56.907C113.562 57.1795 113.769 57.5039 113.91 57.8614C114.051 58.219 114.124 58.6026 114.125 58.9902V60.8477C114.128 60.937 114.114 61.0262 114.084 61.1097C114.054 61.1933 114.009 61.2696 113.951 61.3341C113.892 61.3985 113.822 61.4498 113.745 61.4847C113.667 61.5197 113.584 61.5377 113.5 61.5377ZM69.5371 60.2109H112.875V58.9902C112.875 58.5644 112.715 58.1561 112.432 57.855C112.148 57.5539 111.763 57.3848 111.362 57.3848H70.9996C70.5985 57.3848 70.2138 57.5539 69.9301 57.855C69.6465 58.1561 69.4871 58.5644 69.4871 58.9902L69.5371 60.2109Z" fill="#093F68"/>
<path d="M84.3691 85.7715V66.9177L101.625 76.3446L84.3691 85.7715Z" fill="#FFBC0E"/>
<path d="M84.3692 86.435C84.2551 86.4339 84.1433 86.4019 84.0441 86.3421C83.952 86.2825 83.876 86.1987 83.8234 86.0987C83.7708 85.9988 83.7435 85.8861 83.7442 85.7716V66.9509C83.7445 66.8379 83.772 66.7267 83.8242 66.6281C83.8764 66.5295 83.9514 66.4467 84.0422 66.3876C84.133 66.3284 84.2365 66.2949 84.343 66.2901C84.4494 66.2854 84.5553 66.3096 84.6504 66.3605L101.913 75.7874C102.015 75.8435 102.1 75.9282 102.16 76.0323C102.219 76.1365 102.251 76.256 102.25 76.3778C102.251 76.4997 102.219 76.6192 102.16 76.7233C102.1 76.8275 102.015 76.9122 101.913 76.9683L84.6504 86.3952C84.5608 86.4311 84.4645 86.4448 84.3692 86.435ZM84.9941 68.0057V84.6836L100.257 76.3447L84.9941 68.0057Z" fill="#093F68"/>
<path d="M107.787 92.724H74.5625C74.3967 92.724 74.2378 92.6541 74.1206 92.5297C74.0033 92.4053 73.9375 92.2366 73.9375 92.0606C73.9375 91.8847 74.0033 91.7159 74.1206 91.5915C74.2378 91.4671 74.3967 91.3972 74.5625 91.3972H107.787C107.953 91.3972 108.112 91.4671 108.229 91.5915C108.347 91.7159 108.412 91.8847 108.412 92.0606C108.412 92.2366 108.347 92.4053 108.229 92.5297C108.112 92.6541 107.953 92.724 107.787 92.724Z" fill="#093F68"/>
<path d="M100.544 94.1303C101.621 94.1303 102.494 93.2036 102.494 92.0605C102.494 90.9174 101.621 89.9907 100.544 89.9907C99.4668 89.9907 98.5938 90.9174 98.5938 92.0605C98.5938 93.2036 99.4668 94.1303 100.544 94.1303Z" fill="#093F68"/>
<path d="M100.544 94.8136C100.034 94.8136 99.5366 94.6533 99.1132 94.353C98.6897 94.0526 98.3597 93.6258 98.1648 93.1263C97.9699 92.6269 97.9189 92.0773 98.0182 91.5472C98.1176 91.017 98.3628 90.53 98.723 90.1477C99.0831 89.7655 99.5419 89.5051 100.041 89.3997C100.541 89.2942 101.059 89.3484 101.529 89.5552C102 89.7621 102.402 90.1124 102.685 90.5619C102.968 91.0114 103.119 91.5398 103.119 92.0804C103.117 92.8047 102.845 93.4989 102.363 94.0111C101.88 94.5233 101.226 94.8118 100.544 94.8136ZM100.544 90.674C100.282 90.674 100.026 90.7565 99.8076 90.911C99.5897 91.0655 99.4199 91.2852 99.3196 91.5422C99.2193 91.7992 99.1931 92.0819 99.2442 92.3548C99.2953 92.6276 99.4215 92.8782 99.6068 93.0749C99.7921 93.2715 100.028 93.4055 100.285 93.4598C100.542 93.514 100.809 93.4862 101.051 93.3797C101.293 93.2733 101.5 93.093 101.645 92.8617C101.791 92.6305 101.869 92.3585 101.869 92.0804C101.871 91.894 101.839 91.709 101.773 91.5361C101.708 91.3631 101.611 91.2057 101.487 91.073C101.364 90.9403 101.217 90.8349 101.055 90.763C100.893 90.6911 100.719 90.654 100.544 90.6541V90.674Z" fill="#093F68"/>
<path d="M118.795 19.425H82.2949V48.2895H118.795V19.425Z" fill="#70CC40"/>
<path d="M118.795 48.9596H82.2949C82.1292 48.9596 81.9702 48.8897 81.853 48.7653C81.7358 48.6409 81.6699 48.4722 81.6699 48.2962V19.4251C81.6699 19.2492 81.7358 19.0804 81.853 18.956C81.9702 18.8316 82.1292 18.7617 82.2949 18.7617H118.795C118.961 18.7617 119.12 18.8316 119.237 18.956C119.354 19.0804 119.42 19.2492 119.42 19.4251V48.2962C119.42 48.4722 119.354 48.6409 119.237 48.7653C119.12 48.8897 118.961 48.9596 118.795 48.9596ZM82.9199 47.6328H118.17V20.0885H82.9199V47.6328Z" fill="#093F68"/>
<path d="M82.2941 40.866C82.1917 40.8662 82.0908 40.8397 82.0004 40.7888C81.9099 40.7379 81.8326 40.6642 81.7753 40.5741C81.7292 40.5019 81.6971 40.4207 81.6806 40.3352C81.6642 40.2497 81.6638 40.1616 81.6794 40.0759C81.6951 39.9903 81.7266 39.9087 81.772 39.836C81.8174 39.7633 81.8758 39.7007 81.9441 39.652L98.8816 27.5848C98.9886 27.5018 99.1178 27.457 99.2503 27.457C99.3829 27.457 99.512 27.5018 99.6191 27.5848L112.969 38.9024C113.097 39.0128 113.178 39.1723 113.196 39.3463C113.214 39.5202 113.166 39.6945 113.063 39.8311C112.96 39.9678 112.81 40.0557 112.646 40.0756C112.482 40.0955 112.317 40.0458 112.188 39.9373L99.1941 28.9249L82.6441 40.7201C82.5443 40.8057 82.4221 40.8567 82.2941 40.866Z" fill="#093F68"/>
<path d="M118.794 35.8773C118.654 35.8784 118.517 35.8293 118.407 35.738L112.619 30.9284L108.013 35.6916C107.954 35.7521 107.884 35.7997 107.808 35.8317C107.731 35.8636 107.65 35.8792 107.568 35.8777C107.485 35.8762 107.404 35.8575 107.329 35.8227C107.254 35.7879 107.186 35.7377 107.129 35.675C107.072 35.6123 107.027 35.5382 106.997 35.4571C106.967 35.376 106.952 35.2894 106.953 35.2022C106.955 35.115 106.972 35.029 107.005 34.9491C107.038 34.8691 107.085 34.7968 107.144 34.7363L112.144 29.5684C112.252 29.4572 112.395 29.3913 112.545 29.3828C112.696 29.3742 112.844 29.4237 112.963 29.522L119.182 34.6898C119.285 34.7749 119.36 34.8921 119.398 35.0251C119.435 35.158 119.432 35.3 119.389 35.4311C119.346 35.5621 119.266 35.6757 119.159 35.7557C119.053 35.8358 118.925 35.8783 118.794 35.8773Z" fill="#093F68"/>
<path d="M107.093 29.1041C108.557 29.1041 109.743 27.8448 109.743 26.2913C109.743 24.7379 108.557 23.4785 107.093 23.4785C105.63 23.4785 104.443 24.7379 104.443 26.2913C104.443 27.8448 105.63 29.1041 107.093 29.1041Z" fill="#F56132"/>
<path d="M107.094 29.7608C106.445 29.7621 105.811 29.5591 105.272 29.1777C104.732 28.7962 104.312 28.2534 104.063 27.6179C103.814 26.9824 103.749 26.2829 103.875 25.608C104.001 24.9331 104.313 24.3131 104.772 23.8265C105.23 23.3399 105.814 23.0087 106.45 22.8748C107.086 22.7409 107.745 22.8103 108.344 23.0742C108.942 23.3382 109.454 23.7847 109.813 24.3574C110.173 24.9301 110.364 25.6031 110.363 26.2912C110.361 27.2108 110.016 28.0923 109.403 28.7426C108.791 29.3929 107.96 29.759 107.094 29.7608ZM107.094 24.1418C106.693 24.1405 106.301 24.2654 105.967 24.5008C105.633 24.7362 105.373 25.0714 105.218 25.464C105.064 25.8567 105.023 26.289 105.101 26.7064C105.178 27.1238 105.37 27.5074 105.653 27.8087C105.936 28.11 106.297 28.3153 106.69 28.3988C107.083 28.4823 107.491 28.4401 107.861 28.2776C108.231 28.1151 108.548 27.8396 108.771 27.486C108.994 27.1324 109.113 26.7166 109.113 26.2912C109.113 25.7223 108.9 25.1766 108.522 24.7737C108.143 24.3708 107.63 24.1435 107.094 24.1418Z" fill="#093F68"/>
<path d="M6.94792 41.0073L0.708984 43.7246L17.4881 87.1282L23.727 84.4109L6.94792 41.0073Z" fill="#F56132"/>
<path d="M17.4816 87.7949C17.4003 87.7959 17.3197 87.7802 17.2441 87.7485C17.1679 87.7144 17.0988 87.6646 17.0409 87.6019C16.983 87.5393 16.9373 87.4651 16.9066 87.3836L0.131615 43.984C0.0976416 43.9037 0.0800781 43.8167 0.0800781 43.7286C0.0800781 43.6406 0.0976416 43.5535 0.131615 43.4732C0.195036 43.3111 0.316397 43.1823 0.469115 43.115L6.71911 40.3951C6.87247 40.3294 7.04408 40.331 7.19636 40.3994C7.34865 40.4677 7.4692 40.5974 7.53161 40.7599L24.3066 84.1993C24.3684 84.362 24.367 84.5442 24.3026 84.7058C24.2381 84.8675 24.116 84.9954 23.9629 85.0617L17.7129 87.7816C17.6372 87.8013 17.5588 87.8058 17.4816 87.7949ZM1.51911 44.0902L17.8254 86.2691L22.9129 84.0533L6.62536 41.8744L1.51911 44.0902Z" fill="#093F68"/>
<path d="M23.7262 84.4116L24.3949 90.84L25.0512 97.2749L21.2699 92.1999L17.4824 87.1316L23.7262 84.4116Z" fill="white"/>
<path d="M25.0509 97.9383C24.9559 97.9388 24.8621 97.9164 24.7766 97.8727C24.691 97.829 24.616 97.7653 24.5571 97.6862L16.9884 87.5163C16.929 87.4358 16.8879 87.3418 16.8684 87.2417C16.8489 87.1416 16.8515 87.038 16.8759 86.9391C16.9007 86.8398 16.9469 86.7479 17.0109 86.6708C17.0749 86.5937 17.1549 86.5334 17.2446 86.4947L23.4946 83.7747C23.5839 83.7352 23.6806 83.7182 23.7772 83.7251C23.8737 83.732 23.9674 83.7626 24.0509 83.8145C24.1349 83.8665 24.2063 83.9385 24.2594 84.0249C24.3126 84.1112 24.346 84.2096 24.3571 84.3121L25.6759 97.1754C25.6861 97.3145 25.6548 97.4534 25.5863 97.5725C25.5179 97.6916 25.4158 97.7848 25.2946 97.8388C25.2209 97.8898 25.1378 97.9237 25.0509 97.9383ZM18.5009 87.4101L24.2071 95.0591L23.2071 85.3602L18.5009 87.4101Z" fill="#093F68"/>
<path d="M24.3945 90.8398L25.0508 97.2748L21.2695 92.1998L24.3945 90.8398Z" fill="#093F68"/>
<path d="M25.0495 97.9383C24.9546 97.9388 24.8608 97.9164 24.7752 97.8727C24.6897 97.829 24.6146 97.7653 24.5558 97.6862L20.7745 92.6112C20.7152 92.5304 20.6744 92.4362 20.6551 92.3358C20.6359 92.2355 20.6388 92.1318 20.6636 92.0328C20.6884 91.9339 20.7345 91.8424 20.7982 91.7655C20.8619 91.6886 20.9415 91.6283 21.0308 91.5896L24.1558 90.2628C24.2451 90.2232 24.3418 90.2063 24.4383 90.2132C24.5348 90.2201 24.6285 90.2507 24.712 90.3026C24.7948 90.3553 24.865 90.4276 24.9171 90.5139C24.9691 90.6003 25.0016 90.6982 25.012 90.8001L25.6683 97.2351C25.6785 97.3742 25.6472 97.5131 25.5787 97.6322C25.5103 97.7513 25.4082 97.8445 25.287 97.8985C25.211 97.9279 25.1304 97.9415 25.0495 97.9383ZM22.2495 92.4785L24.1683 95.0591L23.837 91.7886L22.2495 92.4785Z" fill="#093F68"/>
</svg>
