<svg width="10" height="7" viewBox="0 0 10 7" fill="none" xmlns="http://www.w3.org/2000/svg">
<path d="M9.3757 5.16666C9.37598 5.36137 9.32512 5.55007 9.23195 5.7C9.17948 5.78438 9.11504 5.85413 9.04232 5.90526C8.9696 5.95638 8.89004 5.98788 8.80818 5.99794C8.72632 6.00801 8.64377 5.99644 8.56527 5.9639C8.48677 5.93137 8.41385 5.8785 8.3507 5.80833L5.0007 2.075L1.64445 5.675C1.58052 5.74422 1.50696 5.79591 1.42799 5.82711C1.34903 5.8583 1.26622 5.86838 1.18433 5.85676C1.10244 5.84514 1.02307 5.81206 0.950802 5.75942C0.878529 5.70677 0.814772 5.6356 0.763195 5.55C0.706297 5.46378 0.66338 5.36281 0.637137 5.25342C0.610894 5.14403 0.601892 5.0286 0.610695 4.91435C0.619498 4.80011 0.645916 4.68952 0.688292 4.58954C0.730669 4.48955 0.788087 4.40233 0.856945 4.33333L4.60695 0.308332C4.71878 0.185764 4.85905 0.118759 5.00382 0.118759C5.14859 0.118759 5.28886 0.185764 5.4007 0.308332L9.15069 4.475C9.22633 4.5586 9.28612 4.66479 9.32521 4.78497C9.36431 4.90514 9.3816 5.03591 9.3757 5.16666Z" fill="black"/>
</svg>
