<svg width="112" height="92" viewBox="0 0 112 92" fill="none" xmlns="http://www.w3.org/2000/svg">
<path d="M105.774 11.2046V87.1306C105.774 88.0789 105.491 88.9884 104.985 89.659C104.48 90.3296 103.794 90.7063 103.079 90.7063H3.99945C3.28643 90.7028 2.60351 90.3245 2.10026 89.6543C1.59701 88.9841 1.31445 88.0766 1.31445 87.1306V11.2046H105.774Z" fill="white"/>
<path d="M103.079 91.383H3.99947C3.5799 91.3813 3.16469 91.2699 2.77755 91.0553C2.39042 90.8406 2.03894 90.5269 1.74319 90.132C1.44743 89.7372 1.21319 89.2689 1.05384 88.7539C0.894495 88.2389 0.813154 87.6873 0.814469 87.1306V11.2047C0.814469 11.0287 0.867147 10.86 0.960915 10.7356C1.05468 10.6112 1.18186 10.5413 1.31447 10.5413H105.774C105.907 10.5413 106.034 10.6112 106.128 10.7356C106.222 10.86 106.274 11.0287 106.274 11.2047V87.1306C106.275 87.6882 106.193 88.2405 106.033 88.7559C105.873 89.2714 105.637 89.7399 105.341 90.1348C105.044 90.5296 104.692 90.8431 104.304 91.0573C103.916 91.2715 103.5 91.3822 103.079 91.383ZM1.81447 11.8681V87.1306C1.81579 87.9025 2.04747 88.6422 2.45883 89.188C2.87019 89.7338 3.42772 90.0412 4.00947 90.043H103.079C103.661 90.0412 104.219 89.7338 104.63 89.188C105.041 88.6422 105.273 87.9025 105.274 87.1306V11.8681H1.81447Z" fill="#093F68"/>
<path d="M3.99945 1.07446H103.079C103.794 1.07446 104.48 1.45119 104.985 2.12177C105.491 2.79235 105.774 3.70184 105.774 4.65018V11.2112H1.31445V4.65018C1.31445 3.70414 1.59701 2.79664 2.10026 2.12645C2.60351 1.45625 3.28643 1.07797 3.99945 1.07446Z" fill="#68E1FD"/>
<path d="M105.774 11.868H1.31445C1.18184 11.868 1.05467 11.7981 0.960899 11.6737C0.867131 11.5493 0.814453 11.3806 0.814453 11.2046V4.65025C0.815765 3.5288 1.15143 2.45358 1.74817 1.65935C2.3449 0.865117 3.15423 0.416388 3.99945 0.411133H103.079C103.926 0.412887 104.738 0.860072 105.337 1.65468C105.936 2.44929 106.273 3.5265 106.274 4.65025V11.2046C106.274 11.3806 106.222 11.5493 106.128 11.6737C106.034 11.7981 105.907 11.868 105.774 11.868ZM1.81445 10.5412H105.274V4.65025C105.273 3.87839 105.041 3.13865 104.63 2.59286C104.219 2.04708 103.661 1.73968 103.079 1.73793H3.99945C3.41771 1.73968 2.86017 2.04708 2.44881 2.59286C2.03746 3.13865 1.80578 3.87839 1.80445 4.65025L1.81445 10.5412Z" fill="#093F68"/>
<path d="M7.04024 7.19781C7.68917 7.19781 8.21524 6.49983 8.21524 5.63883C8.21524 4.77782 7.68917 4.07983 7.04024 4.07983C6.3913 4.07983 5.86523 4.77782 5.86523 5.63883C5.86523 6.49983 6.3913 7.19781 7.04024 7.19781Z" fill="#F56132"/>
<path d="M7.04023 4.08632C7.27305 4.08501 7.50091 4.17549 7.6949 4.34629C7.88889 4.51709 8.04027 4.7605 8.12982 5.04564C8.21937 5.33077 8.24307 5.64478 8.19789 5.94781C8.15271 6.25084 8.0407 6.52923 7.87607 6.74766C7.71144 6.96609 7.50162 7.1147 7.27323 7.17464C7.04484 7.23458 6.80817 7.20315 6.59326 7.08433C6.37836 6.96552 6.1949 6.76467 6.06617 6.50728C5.93744 6.24989 5.86924 5.94757 5.87023 5.63867C5.87155 5.2275 5.99524 4.83367 6.21437 4.54292C6.4335 4.25218 6.73033 4.08806 7.04023 4.08632ZM7.04023 2.75952C6.60985 2.75952 6.18913 2.92894 5.83135 3.24633C5.47356 3.56372 5.19479 4.01481 5.03032 4.5425C4.86584 5.07019 4.82307 5.65077 4.9074 6.21074C4.99172 6.77071 5.19937 7.28489 5.50405 7.68821C5.80873 8.09152 6.19675 8.36584 6.61898 8.47644C7.04122 8.58704 7.4787 8.52894 7.87604 8.30951C8.27338 8.09007 8.61272 7.71917 8.85111 7.24373C9.0895 6.76829 9.21622 6.20971 9.21523 5.63867C9.21391 4.87447 8.98417 4.14215 8.57642 3.6024C8.16868 3.06264 7.61621 2.75952 7.04023 2.75952Z" fill="#093F68"/>
<path d="M12.4387 7.19781C13.0876 7.19781 13.6137 6.49983 13.6137 5.63883C13.6137 4.77782 13.0876 4.07983 12.4387 4.07983C11.7897 4.07983 11.2637 4.77782 11.2637 5.63883C11.2637 6.49983 11.7897 7.19781 12.4387 7.19781Z" fill="#FFBC0E"/>
<path d="M12.4398 4.08633C12.6724 4.08633 12.8997 4.17793 13.0931 4.34953C13.2864 4.52113 13.437 4.76501 13.5258 5.05026C13.6146 5.33552 13.6376 5.64932 13.5918 5.95191C13.5461 6.25451 13.4337 6.53228 13.2688 6.75004C13.104 6.9678 12.8942 7.11576 12.6659 7.17516C12.4377 7.23456 12.2012 7.20274 11.9866 7.08372C11.772 6.96471 11.5889 6.76386 11.4603 6.50661C11.3318 6.24936 11.2638 5.9473 11.2648 5.63869C11.2648 5.43427 11.2952 5.23186 11.3543 5.04309C11.4134 4.85431 11.5 4.68289 11.6092 4.53865C11.7184 4.39441 11.848 4.28021 11.9905 4.20259C12.133 4.12497 12.2857 4.08546 12.4398 4.08633ZM12.4398 2.75953C12.0092 2.75822 11.588 2.92652 11.2295 3.24311C10.8711 3.5597 10.5915 4.01033 10.4263 4.53791C10.261 5.06549 10.2176 5.64627 10.3013 6.20668C10.3851 6.76708 10.5923 7.28189 10.8968 7.68587C11.2013 8.08986 11.5893 8.36484 12.0117 8.47597C12.434 8.58711 12.8718 8.5294 13.2694 8.31016C13.667 8.09092 14.0067 7.72002 14.2453 7.24444C14.4839 6.76886 14.6108 6.21001 14.6098 5.63869C14.6084 4.87563 14.3794 4.14431 13.9727 3.60475C13.5661 3.06518 13.0149 2.76128 12.4398 2.75953Z" fill="#093F68"/>
<path d="M17.8352 7.19781C18.4841 7.19781 19.0102 6.49983 19.0102 5.63883C19.0102 4.77782 18.4841 4.07983 17.8352 4.07983C17.1862 4.07983 16.6602 4.77782 16.6602 5.63883C16.6602 6.49983 17.1862 7.19781 17.8352 7.19781Z" fill="#70CC40"/>
<path d="M17.8354 4.08635C18.068 4.08635 18.2954 4.17795 18.4887 4.34955C18.682 4.52115 18.8326 4.76502 18.9214 5.05028C19.0102 5.33553 19.0332 5.64933 18.9874 5.95193C18.9417 6.25452 18.8293 6.53229 18.6644 6.75005C18.4996 6.96782 18.2898 7.11577 18.0615 7.17517C17.8333 7.23457 17.5969 7.20275 17.3823 7.08374C17.1676 6.96472 16.9845 6.76387 16.856 6.50662C16.7275 6.24938 16.6594 5.94732 16.6604 5.6387C16.6617 5.22638 16.7861 4.83155 17.0063 4.54062C17.2265 4.24968 17.5246 4.08634 17.8354 4.08635ZM17.8354 2.75955C17.4046 2.75693 16.9829 2.92411 16.6238 3.23989C16.2647 3.55568 15.9844 4.00585 15.8184 4.5333C15.6523 5.06076 15.6081 5.64175 15.6913 6.20259C15.7745 6.76343 15.9814 7.27886 16.2857 7.6835C16.5899 8.08815 16.9779 8.36379 17.4004 8.47547C17.8229 8.58715 18.2609 8.52983 18.6589 8.31079C19.0568 8.09175 19.3967 7.72085 19.6356 7.24513C19.8744 6.76941 20.0014 6.2103 20.0004 5.6387C19.9991 4.8745 19.7693 4.14218 19.3616 3.60243C18.9538 3.06267 18.4014 2.75955 17.8254 2.75955H17.8354Z" fill="#093F68"/>
<path d="M110.685 18.0376H54.3945V62.2399H110.685V18.0376Z" fill="#68E1FD"/>
<path d="M110.685 62.9033H54.3945C54.2619 62.9033 54.1347 62.8334 54.041 62.709C53.9472 62.5846 53.8945 62.4159 53.8945 62.2399V18.0377C53.8945 17.8617 53.9472 17.693 54.041 17.5686C54.1347 17.4442 54.2619 17.3743 54.3945 17.3743H110.685C110.817 17.3743 110.944 17.4442 111.038 17.5686C111.132 17.693 111.185 17.8617 111.185 18.0377V62.2399C111.185 62.4159 111.132 62.5846 111.038 62.709C110.944 62.8334 110.817 62.9033 110.685 62.9033ZM54.8945 61.5765H110.185V18.7011H54.8945V61.5765Z" fill="#093F68"/>
<path d="M82.5395 35.4121L54.3945 62.24H110.685L82.5395 35.4121Z" fill="#68E1FD"/>
<path d="M110.685 62.9033H54.3952C54.2898 62.9024 54.1874 62.8573 54.1024 62.7746C54.0175 62.6918 53.9544 62.5755 53.9223 62.4423C53.8901 62.3092 53.8905 62.1659 53.9234 62.0331C53.9562 61.9002 54.0199 61.7845 54.1052 61.7025L82.2502 34.8747C82.3349 34.7947 82.4363 34.7517 82.5402 34.7517C82.6442 34.7517 82.7456 34.7947 82.8302 34.8747L111 61.7025C111.086 61.7849 111.15 61.9012 111.183 62.0347C111.215 62.1682 111.215 62.312 111.182 62.4455C111.15 62.579 111.086 62.6952 111 62.7775C110.914 62.8597 110.811 62.9038 110.705 62.9033H110.685ZM55.9502 61.5765H109.135L82.5402 36.228L55.9502 61.5765Z" fill="#093F68"/>
<path d="M82.5395 44.8654L54.3945 18.0376H110.685L82.5395 44.8654Z" fill="#68E1FD"/>
<path d="M82.5393 45.5289C82.4351 45.528 82.3337 45.484 82.2493 45.4029L54.1043 18.575C54.0191 18.4936 53.9554 18.3787 53.9221 18.2465C53.8889 18.1143 53.8879 17.9716 53.9193 17.8386C53.9511 17.7044 54.0143 17.5871 54.0997 17.5036C54.185 17.4201 54.2882 17.3748 54.3943 17.3743H110.684C110.79 17.3748 110.894 17.4201 110.979 17.5036C111.064 17.5871 111.127 17.7044 111.159 17.8386C111.191 17.9709 111.191 18.1132 111.159 18.2453C111.126 18.3774 111.064 18.4927 110.979 18.575L82.8293 45.4029C82.7459 45.4865 82.6438 45.5309 82.5393 45.5289ZM55.9493 18.7011L82.5393 44.0495L109.134 18.7011H55.9493Z" fill="#093F68"/>
<path d="M84.2342 33.8995C84.2342 34.0255 84.1943 34.1715 84.1743 34.344C84.1557 34.4886 84.1456 34.635 84.1443 34.7818C84.1439 34.8753 84.163 34.9671 84.1992 35.0472C84.2261 35.0885 84.2602 35.1205 84.2986 35.1401C84.337 35.1598 84.3784 35.1666 84.4192 35.1599C84.5297 35.1579 84.638 35.1191 84.7342 35.0472C84.8486 34.9576 84.9447 34.8324 85.0142 34.6823C85.1033 34.4892 85.1691 34.2788 85.2092 34.0587C85.265 33.766 85.2919 33.465 85.2892 33.1631C85.2954 32.679 85.2273 32.1983 85.0892 31.7501C84.9673 31.3579 84.7812 31.0067 84.5442 30.7218C84.3018 30.4388 84.0174 30.2264 83.7093 30.0982C83.3664 29.9557 83.0086 29.8862 82.6492 29.8926C82.2587 29.8853 81.871 29.9823 81.5093 30.1778C81.176 30.3563 80.8746 30.6252 80.6243 30.9673C80.3754 31.3126 80.1815 31.721 80.0543 32.168C79.9176 32.6537 79.8498 33.1688 79.8543 33.6872C79.8482 34.2276 79.923 34.7643 80.0743 35.2661C80.2148 35.7158 80.4281 36.1189 80.6993 36.4469C80.9729 36.7738 81.2923 37.0262 81.6393 37.1899C82.0201 37.3661 82.421 37.4537 82.8242 37.4487C83.1822 37.4525 83.5383 37.3808 83.8793 37.2364C84.1865 37.1011 84.474 36.8969 84.7292 36.6327H85.8442C85.493 37.2777 85.0254 37.7955 84.4842 38.1386C83.941 38.4826 83.3462 38.6595 82.7442 38.656C82.2312 38.6571 81.7225 38.5311 81.2443 38.2845C80.7825 38.0524 80.3583 37.7056 79.9943 37.2629C79.6238 36.8077 79.33 36.2539 79.1318 35.6378C78.9336 35.0217 78.8357 34.357 78.8443 33.6872C78.8372 33.0025 78.9413 32.3237 79.1493 31.697C79.3428 31.1015 79.6231 30.5626 79.9743 30.1115C80.33 29.6609 80.7475 29.3051 81.2043 29.0633C81.6804 28.8059 82.1901 28.6752 82.7043 28.6785C83.15 28.68 83.5926 28.7786 84.0142 28.9704C84.4328 29.1552 84.8213 29.4433 85.1592 29.8196C85.5199 30.2171 85.8081 30.7179 86.0021 31.2844C86.196 31.8508 86.2908 32.4682 86.2792 33.0901C86.2857 33.5075 86.2435 33.9237 86.1542 34.3241C86.0822 34.6381 85.9743 34.9357 85.8342 35.2064C85.7103 35.4331 85.5601 35.6324 85.3892 35.7968C85.2347 35.9405 85.0666 36.0565 84.8892 36.1418C84.7352 36.2182 84.5762 36.276 84.4142 36.3142C84.2884 36.3397 84.1615 36.3552 84.0343 36.3607C83.8177 36.3883 83.6013 36.3052 83.4292 36.1285C83.319 36.0015 83.2493 35.8236 83.2343 35.6309C83.0855 35.8264 82.9173 35.9938 82.7343 36.1285C82.4924 36.2956 82.2217 36.3757 81.9493 36.3607C81.7453 36.3633 81.5435 36.3043 81.3593 36.1882C81.1823 36.0827 81.0252 35.9264 80.8993 35.7305C80.7656 35.5218 80.6637 35.2808 80.5993 35.0206C80.5273 34.725 80.4918 34.4158 80.4943 34.1051C80.4948 33.7217 80.5421 33.3408 80.6343 32.9774C80.7252 32.6267 80.8604 32.2992 81.0343 32.0088C81.207 31.7317 81.4216 31.5057 81.6643 31.3454C81.9292 31.1765 82.2204 31.0925 82.5143 31.0999C82.7445 31.09 82.9735 31.1489 83.1842 31.2724C83.3712 31.3994 83.5195 31.6079 83.6042 31.8628L83.6842 31.2592H84.6342L84.2342 33.8995ZM83.2993 33.5346C83.3065 33.2224 83.242 32.9147 83.1143 32.6523C83.0503 32.5353 82.9647 32.4422 82.8658 32.3817C82.7668 32.3213 82.6578 32.2957 82.5493 32.3073C82.4066 32.3008 82.265 32.341 82.1368 32.4243C82.0086 32.5076 81.8978 32.6315 81.8143 32.785C81.6258 33.1268 81.529 33.5425 81.5393 33.9658C81.5393 34.1105 81.5494 34.2548 81.5693 34.397C81.5876 34.5302 81.6231 34.6581 81.6743 34.7752C81.729 34.8886 81.8025 34.9839 81.8893 35.0538C81.9971 35.1284 82.1177 35.1649 82.2393 35.1599C82.412 35.1613 82.5829 35.1114 82.7393 35.014C82.8694 34.9223 82.9808 34.7903 83.0643 34.6292C83.144 34.4693 83.2015 34.2919 83.2343 34.1051C83.2708 33.9185 83.2926 33.7273 83.2993 33.5346Z" fill="white"/>
<path d="M49.3148 29.3485H26.5898C26.4572 29.3485 26.3301 29.2786 26.2363 29.1542C26.1425 29.0298 26.0898 28.8611 26.0898 28.6851C26.0898 28.5092 26.1425 28.3404 26.2363 28.216C26.3301 28.0916 26.4572 28.0217 26.5898 28.0217H49.3148C49.4475 28.0217 49.5746 28.0916 49.6684 28.216C49.7622 28.3404 49.8148 28.5092 49.8148 28.6851C49.8148 28.8611 49.7622 29.0298 49.6684 29.1542C49.5746 29.2786 49.4475 29.3485 49.3148 29.3485Z" fill="#093F68"/>
<path d="M44.5845 39.3195H12.4395C12.3068 39.3195 12.1797 39.2496 12.0859 39.1252C11.9921 39.0008 11.9395 38.832 11.9395 38.6561C11.9395 38.4801 11.9921 38.3114 12.0859 38.187C12.1797 38.0626 12.3068 37.9927 12.4395 37.9927H44.5845C44.7171 37.9927 44.8442 38.0626 44.938 38.187C45.0318 38.3114 45.0845 38.4801 45.0845 38.6561C45.0845 38.832 45.0318 39.0008 44.938 39.1252C44.8442 39.2496 44.7171 39.3195 44.5845 39.3195Z" fill="#093F68"/>
<path d="M58.6804 49.4894H23.4004C23.2678 49.4894 23.1406 49.4195 23.0468 49.2951C22.9531 49.1707 22.9004 49.0019 22.9004 48.826C22.9004 48.6501 22.9531 48.4813 23.0468 48.3569C23.1406 48.2325 23.2678 48.1626 23.4004 48.1626H58.6804C58.813 48.1626 58.9402 48.2325 59.034 48.3569C59.1277 48.4813 59.1804 48.6501 59.1804 48.826C59.1804 49.0019 59.1277 49.1707 59.034 49.2951C58.9402 49.4195 58.813 49.4894 58.6804 49.4894Z" fill="#093F68"/>
<path d="M85.5888 68.0845H21.4938C18.6937 68.0845 16.4238 71.0947 16.4238 74.808C16.4238 78.5213 18.6937 81.5316 21.4938 81.5316H85.5888C88.3889 81.5316 90.6588 78.5213 90.6588 74.808C90.6588 71.0947 88.3889 68.0845 85.5888 68.0845Z" fill="#FFBC0E"/>
<path d="M85.5947 82.2014H21.4997C20.0224 82.2014 18.6057 81.4228 17.5611 80.0369C16.5165 78.6509 15.9297 76.7712 15.9297 74.8112C15.9297 72.8511 16.5165 70.9714 17.5611 69.5855C18.6057 68.1995 20.0224 67.4209 21.4997 67.4209H85.5997C87.0769 67.4209 88.4937 68.1995 89.5383 69.5855C90.5828 70.9714 91.1697 72.8511 91.1697 74.8112C91.1697 76.7712 90.5828 78.6509 89.5383 80.0369C88.4937 81.4228 87.0769 82.2014 85.5997 82.2014H85.5947ZM21.4997 68.7477C20.2876 68.7477 19.1253 69.3865 18.2682 70.5236C17.4112 71.6608 16.9297 73.203 16.9297 74.8112C16.9297 76.4193 17.4112 77.9616 18.2682 79.0987C19.1253 80.2358 20.2876 80.8746 21.4997 80.8746H85.5997C86.8117 80.8746 87.9741 80.2358 88.8312 79.0987C89.6882 77.9616 90.1697 76.4193 90.1697 74.8112C90.1697 73.203 89.6882 71.6608 88.8312 70.5236C87.9741 69.3865 86.8117 68.7477 85.5997 68.7477H21.4997Z" fill="#093F68"/>
<path d="M47.9086 73.1992C47.8324 73.0433 47.7201 72.9246 47.5886 72.8608C47.3734 72.742 47.1354 72.7164 46.9086 72.7879C46.8298 72.8142 46.7553 72.8591 46.6886 72.9205C46.6226 72.9779 46.5678 73.0552 46.5286 73.1461C46.4871 73.2478 46.4665 73.3622 46.4686 73.4778C46.4658 73.5613 46.478 73.6445 46.5041 73.7206C46.5301 73.7966 46.5694 73.8635 46.6186 73.9156C46.7322 74.0244 46.8568 74.1115 46.9886 74.1744C47.1386 74.2473 47.2986 74.3203 47.4886 74.3933C47.665 74.455 47.8335 74.5511 47.9886 74.6786C48.1366 74.803 48.2628 74.9682 48.3586 75.1628C48.4667 75.4052 48.5188 75.6843 48.5086 75.9656C48.5144 76.2402 48.4716 76.5129 48.3836 76.7616C48.3046 76.98 48.1881 77.1709 48.0436 77.3189C47.8951 77.4738 47.7253 77.5887 47.5436 77.6572C47.3502 77.7305 47.1497 77.7663 46.9486 77.7634C46.6896 77.766 46.4322 77.7076 46.1886 77.5909C45.9425 77.4726 45.7249 77.2686 45.5586 77.0005L46.1286 76.2707C46.2185 76.4557 46.3447 76.6048 46.4936 76.7019C46.647 76.8119 46.8193 76.8668 46.9936 76.8611C47.0833 76.8593 47.1725 76.8415 47.2586 76.8081C47.3435 76.7783 47.4245 76.7313 47.4986 76.6688C47.5691 76.6039 47.6287 76.5203 47.6736 76.4233C47.7162 76.3195 47.7385 76.2032 47.7386 76.085C47.7426 75.9955 47.7311 75.9059 47.7051 75.8232C47.6791 75.7404 47.6393 75.6666 47.5886 75.6073C47.4769 75.4858 47.35 75.3915 47.2136 75.3287C47.0502 75.243 46.8833 75.1699 46.7136 75.1098C46.5388 75.0421 46.3709 74.9463 46.2136 74.8245C46.0647 74.7044 45.9382 74.5411 45.8436 74.3469C45.7349 74.1048 45.6827 73.8255 45.6936 73.5441C45.6884 73.2808 45.7349 73.0202 45.8286 72.7879C45.9148 72.5811 46.0343 72.4022 46.1786 72.2638C46.3297 72.1191 46.499 72.0113 46.6786 71.9453C46.8661 71.8789 47.0595 71.8454 47.2536 71.8458C47.4743 71.8429 47.6938 71.8877 47.9036 71.9785C48.1144 72.0695 48.3073 72.2213 48.4686 72.423L47.9086 73.1992Z" fill="#093F68"/>
<path d="M49.2695 71.9919H52.0845V72.9008H50.0295V74.2873H51.9995V75.1895H50.0495V76.7153H52.2145V77.6242H49.2895L49.2695 71.9919Z" fill="#093F68"/>
<path d="M52.9395 71.9919H53.9395L55.9995 76.178V71.9919H56.7544V77.6308H55.7944L53.6945 73.3055V77.6308H52.9395V71.9919Z" fill="#093F68"/>
<path d="M57.7148 71.9919H59.3898C59.665 71.992 59.9385 72.0502 60.1998 72.1644C60.4582 72.2751 60.6961 72.457 60.8977 72.6982C61.0993 72.9395 61.2602 73.2346 61.3698 73.5642C61.496 73.9582 61.5573 74.3834 61.5498 74.8114C61.5571 75.2184 61.4937 75.6221 61.3645 75.9914C61.2353 76.3607 61.0438 76.6856 60.8048 76.9409C60.5897 77.172 60.3438 77.3475 60.0798 77.4584C59.8282 77.5693 59.565 77.6275 59.2998 77.6308H57.7148V71.9919ZM59.0348 76.722C59.2607 76.7247 59.4858 76.689 59.7048 76.6158C59.9013 76.5509 60.0864 76.436 60.2498 76.2775C60.4089 76.1283 60.5363 75.9272 60.6198 75.6937C60.715 75.4171 60.7612 75.1153 60.7548 74.8114C60.7603 74.5117 60.7195 74.2137 60.6348 73.9357C60.5638 73.7053 60.4504 73.5023 60.3048 73.3453C60.1569 73.1893 59.9869 73.0743 59.8048 73.007C59.5962 72.9329 59.3808 72.8972 59.1648 72.9008H58.4748V76.722H59.0348Z" fill="#093F68"/>
<path d="M86.4939 75.5345L76.5039 72.1445L79.0639 85.3992L81.3139 82.4073L87.7389 90.9253L90.6589 87.0445L84.2389 78.5264L86.4939 75.5345Z" fill="white"/>
<path d="M87.74 91.5887C87.6742 91.5892 87.6089 91.5724 87.548 91.5394C87.4871 91.5064 87.4317 91.4578 87.385 91.3963L81.315 83.3426L79.415 85.8635C79.3514 85.9499 79.2712 86.0117 79.1831 86.0421C79.0949 86.0725 79.0022 86.0704 78.915 86.036C78.8307 86.005 78.754 85.9452 78.6926 85.8625C78.6312 85.7799 78.5872 85.6773 78.565 85.565L76.01 72.297C75.9883 72.1857 75.9889 72.0689 76.0115 71.958C76.0342 71.8471 76.0781 71.7459 76.1391 71.6643C76.2001 71.5827 76.2761 71.5235 76.3595 71.4925C76.4429 71.4616 76.5309 71.4599 76.615 71.4877L86.615 74.8776C86.7009 74.9063 86.7795 74.9648 86.8428 75.047C86.9061 75.1293 86.9518 75.2324 86.9752 75.3458C86.9986 75.4592 86.9989 75.5788 86.976 75.6924C86.9531 75.8059 86.9079 75.9094 86.845 75.9922L84.945 78.5131L91 86.58C91.0923 86.7036 91.1444 86.8703 91.145 87.0444C91.1454 87.1317 91.1327 87.2182 91.1078 87.2991C91.083 87.3799 91.0463 87.4534 91 87.5154L88.075 91.3963C87.9856 91.5141 87.8659 91.5828 87.74 91.5887ZM81.315 81.7438C81.3808 81.7433 81.446 81.76 81.5069 81.7931C81.5678 81.8261 81.6232 81.8747 81.67 81.9362L87.74 89.9899L89.955 87.0444L83.885 78.9974C83.8386 78.9354 83.802 78.8619 83.7771 78.781C83.7522 78.7002 83.7396 78.6136 83.74 78.5263C83.7418 78.3507 83.7936 78.1825 83.885 78.0553L85.52 75.8926L77.2 73.0666L79.33 84.1055L80.965 81.9362C81.0581 81.8136 81.1838 81.7446 81.315 81.7438Z" fill="#093F68"/>
</svg>
