<svg width="10" height="6" viewBox="0 0 10 6" fill="none" xmlns="http://www.w3.org/2000/svg">
<path d="M0.144991 1.24988C0.144672 1.10385 0.201467 0.962324 0.305516 0.849879C0.364107 0.786592 0.436066 0.734279 0.517269 0.695934C0.598473 0.657589 0.687324 0.633966 0.778737 0.626419C0.870151 0.618871 0.96233 0.627547 1.04999 0.65195C1.13766 0.676353 1.21908 0.716002 1.28961 0.768629L5.03055 3.56863L8.77848 0.86863C8.84987 0.816713 8.93201 0.777943 9.02019 0.754549C9.10837 0.731154 9.20084 0.723595 9.29229 0.732307C9.38374 0.741019 9.47236 0.76583 9.55307 0.805313C9.63378 0.844797 9.70498 0.898175 9.76257 0.962379C9.82611 1.02705 9.87403 1.10277 9.90334 1.18481C9.93265 1.26685 9.9427 1.35343 9.93287 1.43911C9.92304 1.5248 9.89354 1.60774 9.84622 1.68272C9.79889 1.75771 9.73477 1.82313 9.65788 1.87488L5.47025 4.89363C5.34537 4.98555 5.18872 5.03581 5.02706 5.03581C4.8654 5.03581 4.70876 4.98555 4.58387 4.89363L0.396249 1.76863C0.311787 1.70593 0.245019 1.62628 0.201364 1.53615C0.157708 1.44602 0.138395 1.34795 0.144991 1.24988Z" fill="#188EAF"/>
</svg>
