<svg width="20" height="14" viewBox="0 0 20 14" fill="none" xmlns="http://www.w3.org/2000/svg">
<path d="M10 0.75C5.63875 0.75 1.8575 3.29 0 7C1.8575 10.71 5.63875 13.25 10 13.25C14.3612 13.25 18.1425 10.71 20 7C18.1425 3.29 14.3612 0.75 10 0.75ZM14.9312 4.065C16.1062 4.815 17.1025 5.81875 17.85 7C17.1048 8.18113 16.1082 9.18328 14.9312 9.935C13.4588 10.8758 11.748 11.3757 10.0006 11.3757C8.25329 11.3757 6.54243 10.8758 5.07 9.935C3.89357 9.18261 2.8971 8.18059 2.15125 7C2.94549 5.74142 4.02452 4.68722 5.30125 3.9225C5.02648 4.67781 4.93785 5.48822 5.04286 6.28507C5.14787 7.08191 5.44342 7.8417 5.90448 8.50004C6.36554 9.15838 6.97851 9.69587 7.69144 10.067C8.40438 10.4381 9.19627 10.6318 10 10.6318C10.8037 10.6318 11.5956 10.4381 12.3086 10.067C13.0215 9.69587 13.6345 9.15838 14.0955 8.50004C14.5566 7.8417 14.8521 7.08191 14.9571 6.28507C15.0622 5.48822 14.9735 4.67781 14.6987 3.9225C14.7762 3.96875 14.8538 4.01625 14.93 4.065H14.9312ZM10 5.125C9.99983 5.62245 9.80206 6.09945 9.4502 6.45108C9.09834 6.80271 8.6212 7.00017 8.12375 7C7.6263 6.99983 7.1493 6.80207 6.79767 6.4502C6.44604 6.09834 6.24858 5.6212 6.24875 5.12375C6.24892 4.6263 6.44668 4.1493 6.79855 3.79767C7.15041 3.44604 7.62755 3.24858 8.125 3.24875C8.62245 3.24892 9.09945 3.44668 9.45108 3.79855C9.80272 4.15041 10.0002 4.62755 10 5.125Z" fill="#138ECB"/>
</svg>
