<svg width="18" height="14" viewBox="0 0 18 14" fill="none" xmlns="http://www.w3.org/2000/svg">
<path d="M15.6665 11.9999H13.9998V4.70825L8.99984 7.83325L3.99984 4.70825V11.9999H2.33317V1.99992H3.33317L8.99984 5.54158L14.6665 1.99992H15.6665V11.9999ZM15.6665 0.333252H2.33317C1.40817 0.333252 0.666504 1.07492 0.666504 1.99992V11.9999C0.666504 12.4419 0.842099 12.8659 1.15466 13.1784C1.46722 13.491 1.89114 13.6666 2.33317 13.6666H15.6665C16.1085 13.6666 16.5325 13.491 16.845 13.1784C17.1576 12.8659 17.3332 12.4419 17.3332 11.9999V1.99992C17.3332 1.55789 17.1576 1.13397 16.845 0.821407C16.5325 0.508847 16.1085 0.333252 15.6665 0.333252Z" fill="#023047"/>
</svg>
