<svg width="5" height="9" viewBox="0 0 5 9" fill="none" xmlns="http://www.w3.org/2000/svg">
<path d="M0.6261 8.76827C0.480067 8.76856 0.338545 8.7177 0.2261 8.62452C0.162813 8.57206 0.1105 8.50762 0.0721547 8.4349C0.0338098 8.36218 0.0101871 8.28262 0.00263964 8.20076C-0.00490778 8.1189 0.00376849 8.03635 0.0281713 7.95785C0.0525741 7.87935 0.0922235 7.80643 0.14485 7.74327L2.94485 4.39327L0.24485 1.03702C0.192934 0.973094 0.154164 0.899534 0.130769 0.820571C0.107375 0.741609 0.0998159 0.658802 0.108528 0.576909C0.11724 0.495017 0.14205 0.415653 0.181534 0.34338C0.221018 0.271107 0.274396 0.20735 0.3386 0.155773C0.403266 0.0988755 0.478995 0.0559583 0.561034 0.0297152C0.643073 0.00347204 0.729651 -0.00553027 0.815334 0.00327278C0.901017 0.0120758 0.983956 0.0384944 1.05894 0.0808706C1.13393 0.123247 1.19935 0.180665 1.2511 0.249523L4.26985 3.99952C4.36178 4.11136 4.41203 4.25163 4.41203 4.3964C4.41203 4.54116 4.36178 4.68144 4.26985 4.79327L1.14485 8.54327C1.08215 8.61891 1.00251 8.6787 0.912375 8.71779C0.822244 8.75688 0.724166 8.77418 0.6261 8.76827Z" fill="black"/>
</svg>
