<svg width="659" height="709" viewBox="0 0 659 709" fill="none" xmlns="http://www.w3.org/2000/svg">
<g clip-path="url(#clip0_12_201)">
<path d="M194.359 266.092L10.4148 233.2L8.02423 232.773C6.80687 232.554 5.53962 232.624 4.36817 232.975C3.19673 233.327 2.16868 233.945 1.40225 234.759C0.635828 235.573 0.162126 236.55 0.0356583 237.577C-0.0908093 238.605 0.135103 239.641 0.687362 240.566L73.7209 363.512C74.1935 364.302 74.8882 364.986 75.7464 365.507C76.6047 366.028 77.6013 366.37 78.6524 366.505C79.7069 366.641 80.7854 366.562 81.7948 366.275C82.8042 365.988 83.7142 365.502 84.4462 364.858L135.174 320.519C135.534 320.196 135.972 319.938 136.459 319.762C136.946 319.586 137.472 319.495 138.003 319.495C138.725 319.487 139.437 319.641 140.061 319.942C140.686 320.243 141.2 320.679 141.548 321.204L151.939 337.135C152.602 338.197 153.675 339.045 154.987 339.543C156.299 340.042 157.774 340.162 159.177 339.885L159.229 339.875C160.65 339.626 161.928 338.988 162.858 338.063C163.789 337.139 164.317 335.982 164.359 334.779L166.44 298.003C166.465 297.544 166.603 297.095 166.846 296.682C167.107 296.273 167.461 295.911 167.889 295.614L197.154 275.7C198.116 275.046 198.836 274.18 199.232 273.202C199.627 272.224 199.682 271.173 199.391 270.17C199.099 269.167 198.472 268.253 197.582 267.532C196.692 266.81 195.575 266.312 194.359 266.092H194.359ZM195.483 274.008L166.218 293.922C165.837 294.176 165.491 294.466 165.188 294.784L10.0823 236.473C9.9455 236.42 9.8028 236.379 9.65622 236.349C9.05796 236.221 8.42461 236.271 7.86572 236.489C7.30683 236.707 6.85753 237.081 6.59554 237.544C6.33355 238.008 6.27534 238.533 6.43097 239.029C6.5866 239.525 6.94629 239.96 7.44783 240.259L134.979 317.916C134.332 318.194 133.748 318.564 133.252 319.007L82.5253 363.346C82.0851 363.73 81.5396 364.02 80.9352 364.192C80.3308 364.364 79.6853 364.412 79.0535 364.333C78.4217 364.253 77.8223 364.049 77.3064 363.736C76.7904 363.424 76.373 363.013 76.0896 362.538L3.05616 239.593C2.72967 239.037 2.59794 238.417 2.67603 237.802C2.75411 237.188 3.03884 236.604 3.49779 236.117C3.95675 235.63 4.57147 235.26 5.2719 235.048C5.97234 234.837 6.73034 234.793 7.45954 234.921L9.90683 235.359L193.794 268.24C194.524 268.371 195.195 268.67 195.73 269.103C196.265 269.535 196.642 270.084 196.818 270.685C196.994 271.287 196.962 271.918 196.726 272.505C196.49 273.093 196.059 273.614 195.483 274.008Z" fill="#219EBC"/>
<path d="M233.57 704.679C217.07 700.985 196.989 685.62 201.288 664.501C203.42 654.027 211.604 647.247 220.089 642.863C231.825 636.799 245.191 634.514 258.073 633.937C272.93 633.271 287.771 634.95 302.517 636.726C317.075 638.478 331.634 640.048 346.257 641.006C403.477 644.727 461.047 641.183 516.976 630.498C530.78 627.858 544.502 624.76 558.14 621.204C571.064 618.051 583.7 614.136 595.95 609.49C612.165 603.037 638.535 590.479 636.385 567.223C635.244 554.892 626.484 545.043 617.648 538.182C606.964 529.885 594.601 524.427 582.493 519.126C526.171 494.47 469.739 470.106 413.362 445.599C400.204 439.879 386.959 434.312 374.189 427.609C362.233 421.334 350.334 414.044 340.713 403.964C332.309 395.161 324.8 383.342 325.065 370.13C325.285 359.174 331.299 349.876 338.666 342.928C356.904 325.724 382.704 318.748 406.022 315.095C434.992 310.555 464.381 310.579 493.37 306.196C516.777 302.656 541.787 295.824 560.823 279.813C568.876 273.301 574.572 265.052 577.267 255.997C579.698 246.514 578.516 236.639 573.886 227.737C568.729 217.527 560.503 209.393 551.854 202.733C541.919 195.189 530.65 188.948 518.44 184.227C492.729 174.071 465.694 168.783 439.358 160.99C426.442 157.167 413.396 152.976 401.403 146.411C391.243 140.848 380.174 133.351 374.521 122.201C362.858 99.1977 390.683 85.4878 406.449 80.2947C417.165 76.9255 428.203 74.3061 439.446 72.4641C441.824 72.041 440.815 68.1072 438.449 68.5283C426.614 70.441 415.015 73.2485 403.798 76.9157C394.29 80.1902 384.48 84.4936 377.012 91.8988C373.612 95.2422 371.098 99.1411 369.634 103.342C368.169 107.543 367.787 111.953 368.511 116.284C370.489 127.322 379.088 135.826 387.163 141.986C397.842 150.132 410.018 155.452 422.363 159.789C435.365 164.356 448.642 167.915 461.915 171.407C488.438 178.383 516.15 184.601 540.093 199.446C556.842 209.831 579.594 229.302 574.023 253.437C571.55 264.151 564.04 272.527 555.936 278.688C546.418 285.71 535.443 291.242 523.542 295.015C470.485 312.716 412.092 300.058 360.403 324.099C342.828 332.273 321.481 347.155 321.309 370.571C321.22 382.735 327.102 393.892 334.374 402.71C343.084 413.271 354.362 421.081 365.838 427.609C377.92 434.23 390.467 440.252 403.41 445.641C417.549 451.798 431.692 457.946 445.838 464.086L531.681 501.403L574.333 519.944C587.35 525.603 600.702 531.031 612.538 539.338C622.229 546.14 633.679 557.299 632.69 571.154C631.905 582.158 623.086 590.099 615.028 595.408C604.594 602.283 592.873 606.729 581.211 610.424C567.759 614.686 554.086 618.222 540.387 621.401C512.325 627.902 483.686 632.549 454.738 635.297C425.862 638.053 396.772 638.952 367.729 637.986C353.054 637.496 338.403 636.523 323.774 635.067C308.694 633.561 293.679 631.242 278.561 630.213C264.886 629.282 251.08 629.498 237.613 632.489C226.369 634.987 214.489 639.44 205.953 648.127C199.662 654.76 196.512 663.07 197.095 671.493C197.673 679.899 201.288 687.967 207.471 694.647C213.752 701.469 222.576 706.38 232.572 708.615C234.929 709.143 235.937 705.209 233.57 704.679L233.57 704.679Z" fill="#E6E6E6"/>
<path d="M659 706.542H230.295V709H659V706.542Z" fill="#3F3D56"/>
<path d="M624.652 590.778C640.119 590.778 652.658 580.384 652.658 567.562C652.658 554.741 640.119 544.347 624.652 544.347C609.185 544.347 596.646 554.741 596.646 567.562C596.646 580.384 609.185 590.778 624.652 590.778Z" fill="#E6E6E6"/>
<path d="M573.558 263.563C589.026 263.563 601.564 253.169 601.564 240.347C601.564 227.526 589.026 217.132 573.558 217.132C558.091 217.132 545.552 227.526 545.552 240.347C545.552 253.169 558.091 263.563 573.558 263.563Z" fill="#E6E6E6"/>
<path d="M510.239 0.971046L432.475 28.9945C429.04 30.236 426.34 32.5561 424.967 35.4459C423.593 38.3356 423.659 41.559 425.149 44.4088L449.296 90.4535C450.793 93.3006 453.592 95.5389 457.078 96.6775C460.564 97.816 464.453 97.7618 467.89 96.5268L545.654 68.5033C549.089 67.2618 551.789 64.9417 553.162 62.0519C554.536 59.1622 554.471 55.9388 552.981 53.0889L528.834 7.04425C527.336 4.1972 524.537 1.95886 521.051 0.820307C517.565 -0.318245 513.677 -0.264032 510.239 0.971046ZM513.458 7.11034C513.923 6.94455 514.412 6.82798 514.912 6.76337L488.621 47.8824L434.622 35.6328C434.958 35.4367 435.318 35.2695 435.695 35.1338L513.458 7.11034ZM542.435 62.364L464.671 90.3875C463.197 90.9167 461.531 90.94 460.037 90.452C458.543 89.964 457.343 89.0048 456.702 87.7846L432.772 42.1534L489.609 55.047C490.494 55.2477 491.435 55.1926 492.277 54.8907C493.119 54.5887 493.812 54.0581 494.242 53.386L521.76 10.3473L545.575 55.7578C546.213 56.9792 546.241 58.3606 545.652 59.5991C545.064 60.8376 543.907 61.8319 542.435 62.364Z" fill="#E6E6E6"/>
<path d="M423.017 400.37C462.123 400.37 493.824 374.091 493.824 341.674C493.824 309.257 462.123 282.978 423.017 282.978C383.911 282.978 352.209 309.257 352.209 341.674C352.209 374.091 383.911 400.37 423.017 400.37Z" fill="#219EBC"/>
<path d="M411.86 707.265H392.333C390.053 707.263 387.867 706.511 386.255 705.175C384.642 703.838 383.736 702.026 383.733 700.136V565.223C383.736 563.333 384.642 561.521 386.255 560.185C387.867 558.848 390.053 558.097 392.333 558.094H411.86C414.14 558.097 416.326 558.848 417.938 560.185C419.55 561.521 420.457 563.333 420.46 565.223V700.136C420.457 702.026 419.55 703.838 417.938 705.175C416.326 706.511 414.14 707.263 411.86 707.265Z" fill="#2F2E41"/>
<path d="M450.483 707.265H430.955C428.675 707.263 426.489 706.511 424.877 705.175C423.265 703.838 422.358 702.026 422.355 700.136V565.223C422.358 563.333 423.265 561.521 424.877 560.185C426.489 558.848 428.675 558.097 430.955 558.094H450.483C452.763 558.097 454.949 558.848 456.561 560.185C458.173 561.521 459.08 563.333 459.082 565.223V700.136C459.08 702.026 458.173 703.838 456.561 705.175C454.949 706.511 452.763 707.263 450.483 707.265Z" fill="#2F2E41"/>
<path d="M531.403 551.116C530.545 551.115 529.692 551.008 528.872 550.8C527.791 550.527 526.786 550.08 525.915 549.484C525.044 548.887 524.324 548.154 523.797 547.325L447.505 428.153C446.975 427.326 446.647 426.421 446.54 425.489C446.433 424.557 446.548 423.617 446.879 422.722C447.21 421.827 447.75 420.994 448.469 420.273C449.188 419.551 450.072 418.953 451.069 418.515L468.318 410.926C469.315 410.487 470.407 410.215 471.532 410.126C472.656 410.037 473.79 410.132 474.87 410.407C475.95 410.681 476.954 411.129 477.825 411.725C478.696 412.322 479.417 413.054 479.946 413.881L556.237 533.054C556.767 533.881 557.095 534.786 557.202 535.718C557.31 536.65 557.195 537.59 556.864 538.485C556.533 539.38 555.992 540.212 555.273 540.934C554.554 541.656 553.67 542.253 552.673 542.692L535.424 550.28C534.187 550.828 532.806 551.115 531.403 551.116Z" fill="#219EBC"/>
<path d="M372.583 441.27C371.551 441.27 370.527 441.115 369.562 440.812H369.56L217.309 393.133C216.253 392.802 215.286 392.302 214.463 391.661C213.641 391.02 212.978 390.251 212.515 389.398C212.051 388.545 211.794 387.624 211.76 386.688C211.725 385.753 211.914 384.821 212.314 383.946L219.202 368.803C220.015 367.036 221.639 365.609 223.718 364.833C225.797 364.056 228.163 363.994 230.297 364.66L382.545 412.328C384.675 413 386.397 414.343 387.335 416.064C388.274 417.785 388.353 419.744 387.554 421.513L380.654 436.659C380.03 438.015 378.925 439.182 377.483 440.005C376.042 440.829 374.333 441.27 372.583 441.27Z" fill="#219EBC"/>
<path d="M466.575 410.568H377.849C373.465 410.568 369.911 413.514 369.911 417.148V573.406C369.911 577.041 373.465 579.987 377.849 579.987H466.575C470.959 579.987 474.513 577.041 474.513 573.406V417.148C474.513 413.514 470.959 410.568 466.575 410.568Z" fill="#2F2E41"/>
<path d="M475.318 284.193C479.478 291.762 483.46 300.908 478.982 309.004C477.339 312.275 474.257 314.905 470.361 316.361C465.746 317.887 460.715 317.016 456.438 315.171C447.434 311.286 441.629 304.068 433.589 299.123C429.929 296.76 425.601 295.214 421.015 294.631C415.732 294.06 410.488 295.093 405.321 295.89C399.825 296.739 394.145 297.186 389.059 294.876C384.584 292.708 381.082 289.391 379.082 285.427C378.035 283.5 374.613 285.171 375.655 287.088C379.98 295.047 388.924 300.47 399.671 299.843C405.357 299.511 410.85 297.989 416.546 297.771C421.742 297.628 426.838 298.979 430.971 301.594C439.799 306.81 445.79 314.82 455.916 318.609C460.694 320.396 466.166 321.141 471.204 319.602C475.549 318.201 479.169 315.587 481.44 312.212C488.086 302.726 483.818 291.761 478.745 282.533C477.687 280.609 474.265 282.279 475.318 284.193Z" fill="#2F2E41"/>
<path d="M430.845 361.273C426.471 361.171 421.027 361.044 416.834 358.505C415.586 357.718 414.56 356.714 413.828 355.564C413.097 354.413 412.678 353.144 412.6 351.845C412.524 350.922 412.707 349.997 413.134 349.142C413.561 348.287 414.221 347.526 415.062 346.918C417.25 345.383 420.448 345.023 423.898 345.864L420.325 324.229L422.948 323.932L427.146 349.364L424.957 348.533C422.421 347.568 418.935 347.076 416.77 348.593C416.238 348.989 415.824 349.482 415.56 350.032C415.295 350.583 415.188 351.177 415.245 351.768C415.309 352.734 415.624 353.678 416.167 354.535C416.711 355.392 417.471 356.142 418.395 356.733C421.659 358.71 425.997 358.966 430.92 359.079L430.845 361.273Z" fill="#2F2E41"/>
<path d="M407.361 326.095H393.11V328.289H407.361V326.095Z" fill="#2F2E41"/>
<path d="M452.344 326.095H438.093V328.289H452.344V326.095Z" fill="#2F2E41"/>
<path d="M369.794 440.3L307.223 424.484C305.272 423.991 303.625 422.893 302.623 421.42C301.621 419.947 301.343 418.21 301.845 416.571L309.149 392.712C309.438 391.77 309.975 390.892 310.721 390.142C311.468 389.392 312.406 388.789 313.467 388.375C314.529 387.962 315.688 387.748 316.861 387.751C318.034 387.753 319.192 387.97 320.251 388.388L382.312 412.841C384.279 413.46 385.87 414.7 386.736 416.289C387.603 417.878 387.675 419.687 386.936 421.32L380.035 436.466C379.289 438.099 377.791 439.42 375.871 440.139C373.951 440.858 371.766 440.916 369.794 440.3Z" fill="#2F2E41"/>
<path d="M448.629 426.803L475.463 476.257C476.3 477.799 477.821 479.015 479.711 479.653C481.601 480.29 483.714 480.3 485.612 479.68L513.24 470.658C514.331 470.301 515.314 469.749 516.117 469.04C516.92 468.331 517.523 467.484 517.884 466.559C518.245 465.633 518.354 464.653 518.203 463.689C518.052 462.725 517.645 461.8 517.012 460.982L479.905 413.039C478.916 411.5 477.231 410.349 475.22 409.837C473.209 409.325 471.036 409.494 469.175 410.308L451.923 417.898C450.063 418.718 448.671 420.116 448.053 421.786C447.436 423.455 447.643 425.26 448.629 426.803Z" fill="#2F2E41"/>
<path d="M194.359 266.092L10.4148 233.2L8.02423 232.773C6.80687 232.554 5.53962 232.624 4.36817 232.975C3.19673 233.327 2.16868 233.945 1.40225 234.759C0.635828 235.573 0.162126 236.55 0.0356583 237.577C-0.0908093 238.605 0.135103 239.641 0.687362 240.566L73.7209 363.512C74.1935 364.302 74.8882 364.986 75.7464 365.507C76.6047 366.028 77.6013 366.37 78.6524 366.505C79.7069 366.641 80.7854 366.562 81.7948 366.275C82.8042 365.988 83.7142 365.502 84.4462 364.858L135.174 320.519C135.534 320.196 135.972 319.938 136.459 319.762C136.946 319.586 137.472 319.495 138.003 319.495C138.725 319.487 139.437 319.641 140.061 319.942C140.686 320.243 141.2 320.679 141.548 321.204L151.939 337.135C152.602 338.197 153.675 339.045 154.987 339.543C156.299 340.042 157.774 340.162 159.177 339.885L159.229 339.875C160.65 339.626 161.928 338.988 162.858 338.063C163.789 337.139 164.317 335.982 164.359 334.779L166.44 298.003C166.465 297.544 166.603 297.095 166.846 296.682C167.107 296.273 167.461 295.911 167.889 295.614L197.154 275.7C198.116 275.046 198.836 274.18 199.232 273.202C199.627 272.224 199.682 271.173 199.391 270.17C199.099 269.167 198.472 268.253 197.582 267.532C196.692 266.81 195.575 266.312 194.359 266.092H194.359ZM195.483 274.008L166.218 293.922C165.837 294.176 165.491 294.466 165.188 294.784C164.914 295.068 164.678 295.375 164.483 295.7C164.279 296.032 164.118 296.382 164.004 296.743L164.006 296.753C163.885 297.129 163.815 297.515 163.798 297.904L161.717 334.679C161.7 335.402 161.386 336.099 160.827 336.654C160.269 337.21 159.499 337.591 158.644 337.736L158.618 337.741C157.776 337.914 156.888 337.847 156.097 337.549C155.307 337.252 154.661 336.742 154.265 336.102L143.871 320.16C143.336 319.34 142.557 318.647 141.607 318.147C140.658 317.646 139.57 317.356 138.447 317.302L138.435 317.304C138.284 317.298 138.133 317.292 137.985 317.297C136.938 317.297 135.906 317.51 134.979 317.916C134.332 318.194 133.748 318.564 133.252 319.007L82.5253 363.346C82.0851 363.73 81.5397 364.02 80.9352 364.192C80.3308 364.364 79.6853 364.412 79.0535 364.333C78.4217 364.253 77.8224 364.049 77.3064 363.736C76.7904 363.424 76.373 363.013 76.0897 362.538L3.05616 239.593C2.72967 239.037 2.59794 238.417 2.67603 237.802C2.75411 237.188 3.03884 236.604 3.49779 236.117C3.95675 235.63 4.57147 235.26 5.2719 235.048C5.97234 234.837 6.73034 234.793 7.45954 234.921L9.90683 235.359L193.794 268.24C194.524 268.371 195.195 268.67 195.73 269.103C196.265 269.535 196.642 270.084 196.818 270.685C196.994 271.287 196.962 271.918 196.726 272.505C196.49 273.093 196.059 273.614 195.483 274.008Z" fill="#3F3D56"/>
<path d="M165.775 295.002L164.682 297L164.007 296.753L164.004 296.743L9.02104 238.488L138.435 317.304L138.447 317.302L138.79 317.52L137.23 319.289L134.98 317.916L7.448 240.259C6.94647 239.96 6.58677 239.525 6.43114 239.029C6.27551 238.533 6.33373 238.008 6.59571 237.544C6.8577 237.081 7.30701 236.707 7.86589 236.489C8.42478 236.271 9.05813 236.221 9.65639 236.349C9.80297 236.379 9.94568 236.42 10.0825 236.473L165.188 294.784L165.775 295.002Z" fill="#3F3D56"/>
</g>
<defs>
<clipPath id="clip0_12_201">
<rect width="659" height="709" fill="white"/>
</clipPath>
</defs>
</svg>
