<svg width="512" height="673" viewBox="0 0 512 673" fill="none" xmlns="http://www.w3.org/2000/svg">
<g clip-path="url(#clip0_111_14)">
<path d="M222.703 586.845C211.261 574.533 194.681 567.472 177.214 567.472L176.54 567.474C165.035 567.478 153.735 564.294 143.796 558.247L142.761 557.618L143.594 556.722C148.104 551.854 151.87 546.291 154.759 540.229C152.707 542.225 150.259 543.726 147.589 544.626C144.919 545.526 142.092 545.803 139.309 545.437C136.37 545.071 133.548 544.016 131.056 542.35C128.563 540.684 126.465 538.451 124.918 535.819C118.813 525.483 111.535 510.817 111.535 499.645C111.545 490.201 113.44 480.863 117.099 472.226C120.759 463.589 126.103 455.842 132.791 449.48C137.025 445.496 140.407 440.626 142.716 435.187C145.026 429.749 146.211 423.863 146.194 417.914L146.19 417.068C146.189 409.236 147.106 401.433 148.922 393.834L149.106 393.067L149.862 393.094C154.742 393.268 159.624 392.841 164.408 391.823C159.921 391.248 155.531 390.03 151.363 388.203L150.549 387.859L150.825 386.989C169.869 374.685 212.856 381.057 237.806 321.491C258.038 273.192 329.422 364.367 329.422 417.068C329.422 422.445 324.322 429.552 328.14 433.106C369.414 471.528 340.936 496.2 331.957 521.026C329.826 526.916 334.446 533.383 334.446 539.755C334.446 540.837 334.419 541.953 334.367 543.073L334.288 544.795L332.911 543.839C330.189 541.978 327.665 539.818 325.384 537.397C327.751 543.08 328.866 549.245 328.648 555.438C328.43 561.631 326.884 567.694 324.124 573.181C319.798 581.699 315.614 587.798 311.686 591.306C299.105 602.54 282.886 608.335 266.346 607.506C249.806 606.676 234.194 599.286 222.703 586.845H222.703Z" fill="#E6E6E6"/>
<path d="M291.804 715C292.086 715 292.357 714.893 292.57 714.701C292.782 714.508 292.921 714.243 292.96 713.952C293.01 713.588 297.875 676.978 293.506 628.321C289.471 583.386 276.513 518.663 237.695 465.508C237.602 465.38 237.486 465.273 237.354 465.192C237.221 465.111 237.074 465.058 236.922 465.037C236.77 465.015 236.615 465.025 236.466 465.066C236.318 465.107 236.178 465.178 236.056 465.275C235.934 465.373 235.831 465.494 235.754 465.633C235.677 465.771 235.627 465.924 235.606 466.083C235.586 466.242 235.595 466.404 235.635 466.559C235.674 466.714 235.742 466.859 235.836 466.986C274.318 519.683 287.171 583.931 291.178 628.549C295.522 676.922 290.695 713.247 290.646 713.608C290.622 713.781 290.635 713.957 290.682 714.125C290.73 714.293 290.811 714.448 290.921 714.58C291.031 714.712 291.166 714.817 291.319 714.89C291.471 714.962 291.637 715 291.804 715V715Z" fill="#3F3D56"/>
<path d="M260.127 540.486C260.374 540.486 260.615 540.405 260.815 540.254C261.015 540.102 261.164 539.889 261.24 539.644C261.316 539.399 261.316 539.135 261.24 538.89C261.164 538.645 261.015 538.431 260.816 538.28C249.755 530.468 237.806 524.121 225.245 519.386C205.62 511.889 175.777 505.092 145.054 515.295C144.908 515.343 144.772 515.421 144.654 515.524C144.536 515.628 144.439 515.754 144.369 515.896C144.298 516.039 144.255 516.194 144.242 516.354C144.228 516.514 144.246 516.675 144.292 516.828C144.339 516.981 144.414 517.123 144.513 517.245C144.612 517.368 144.734 517.469 144.87 517.542C145.007 517.616 145.156 517.66 145.309 517.674C145.463 517.687 145.617 517.668 145.763 517.619C175.856 507.626 205.158 514.31 224.441 521.677C236.801 526.331 248.557 532.571 259.441 540.253C259.64 540.405 259.881 540.486 260.127 540.486Z" fill="#3F3D56"/>
<path d="M313.633 401.436C313.651 401.179 313.59 400.923 313.46 400.704C313.33 400.485 313.137 400.315 312.908 400.218C312.679 400.12 312.427 400.101 312.187 400.163C311.947 400.225 311.732 400.364 311.573 400.561C303.309 411.509 296.382 423.488 290.951 436.22C282.372 456.104 273.726 486.673 281.266 519.381C281.302 519.537 281.366 519.684 281.457 519.814C281.547 519.944 281.661 520.053 281.792 520.137C281.923 520.221 282.068 520.277 282.22 520.302C282.372 520.327 282.527 520.321 282.676 520.283C282.826 520.246 282.966 520.178 283.091 520.084C283.215 519.989 283.32 519.87 283.4 519.734C283.48 519.597 283.534 519.445 283.558 519.287C283.581 519.128 283.575 518.967 283.539 518.811C276.154 486.772 284.653 456.759 293.083 437.221C298.422 424.693 305.234 412.907 313.361 402.134C313.52 401.937 313.615 401.693 313.633 401.436Z" fill="#3F3D56"/>
<path d="M539.125 713.708H446.061L445.661 712.951C444.471 710.7 443.322 708.314 442.249 705.862C432.662 684.448 428.611 659.956 425.035 638.348L422.343 622.06C422.017 620.087 422.263 618.058 423.049 616.232C423.834 614.406 425.124 612.866 426.754 611.809C428.383 610.753 430.278 610.228 432.195 610.301C434.112 610.374 435.964 611.043 437.515 612.221C451.658 622.96 465.807 633.688 479.961 644.405C485.321 648.475 491.441 653.184 497.303 658.273C497.869 655.407 498.46 652.532 499.052 649.698C499.46 647.74 500.418 645.955 501.804 644.569C503.19 643.184 504.941 642.261 506.833 641.92C508.724 641.579 510.67 641.834 512.422 642.654C514.173 643.473 515.651 644.819 516.665 646.52L527.553 664.774C535.495 678.104 542.504 691.24 541.076 705.407C541.083 705.58 541.071 705.752 541.039 705.922C540.754 708.249 540.224 710.536 539.459 712.743L539.125 713.708Z" fill="#F0F0F0"/>
<path d="M495.767 331.945L477.807 262.58C477.037 259.644 475.193 257.141 472.67 255.611C470.148 254.081 467.15 253.648 464.324 254.404C462.862 254.795 461.492 255.493 460.297 256.455C459.102 257.417 458.107 258.622 457.373 259.998C456.639 261.375 456.181 262.892 456.028 264.459C455.874 266.025 456.028 267.608 456.48 269.111L477.254 340.568L488.123 384.543C486.54 385.804 485.367 387.543 484.765 389.524C484.162 391.504 484.158 393.631 484.754 395.614C485.35 397.597 486.516 399.34 488.094 400.608C489.673 401.875 491.587 402.604 493.577 402.697C495.566 402.79 497.535 402.241 499.216 401.126C500.896 400.01 502.207 398.382 502.969 396.462C503.732 394.542 503.91 392.424 503.478 390.395C503.047 388.366 502.028 386.525 500.559 385.122L495.767 331.945Z" fill="#A0616A"/>
<path d="M344.631 317.006L399.203 273.184C401.51 271.32 403.022 268.585 403.413 265.568C403.804 262.551 403.042 259.495 401.293 257.059C400.388 255.799 399.246 254.744 397.938 253.959C396.629 253.174 395.181 252.676 393.682 252.494C392.183 252.312 390.664 252.451 389.218 252.901C387.772 253.352 386.429 254.105 385.271 255.115L329.921 302.449L295.127 329.731C293.405 328.687 291.417 328.221 289.433 328.396C287.448 328.572 285.563 329.381 284.035 330.713C282.506 332.045 281.407 333.836 280.888 335.842C280.369 337.848 280.454 339.973 281.132 341.927C281.81 343.881 283.049 345.57 284.679 346.764C286.309 347.958 288.252 348.599 290.243 348.601C292.235 348.603 294.179 347.965 295.811 346.774C297.443 345.583 298.684 343.897 299.366 341.944L344.631 317.006Z" fill="#A0616A"/>
<path d="M389.11 327.08L386.705 383.137L462.233 366.008C455.805 343.484 451.433 339.642 456.264 323.966L389.11 327.08Z" fill="#A0616A"/>
<path d="M435.551 224.313H410.384L399.576 243.61L394.427 243.314C391.908 243.169 389.387 243.561 387.019 244.467C384.65 245.373 382.484 246.773 380.651 248.582C378.819 250.391 377.36 252.571 376.362 254.989C375.365 257.407 374.851 260.011 374.851 262.643L381.196 272.905C381.196 272.905 369.848 293.541 386.194 303.693C386.194 303.693 383.279 322.82 386.194 322.614C389.11 322.409 395.825 318.516 389.11 322.409C382.394 326.302 382.895 326.824 383.764 327.731L384.633 328.637L455.246 341.009C455.246 341.009 457.311 326.726 457.534 324.178C457.756 321.63 456.264 327.859 457.756 321.63C459.248 315.402 461.487 317.737 459.248 315.402C457.01 313.066 473.752 284.129 466.874 272.905L477.902 261.681C477.902 250.914 461.33 242.186 451.011 242.186H449.689L435.551 224.313Z" fill="#E6E6E6"/>
<path d="M374.915 692.098H364.728L359.882 651.102L374.916 651.103L374.915 692.098Z" fill="#A0616A"/>
<path d="M526.299 664.258L517.732 670.009L492.4 638.266L505.044 629.781L526.299 664.258Z" fill="#A0616A"/>
<path d="M508.574 694.803C509.195 695.801 510.169 696.504 511.284 696.757C512.399 697.011 513.565 696.796 514.528 696.158L530.655 685.333L530.488 683.917L529.741 677.475L533.653 681.793L534.514 682.742L540.597 678.659L539.839 677.63L525.705 658.424L523.499 659.712L513.982 665.299L511.642 666.667L515.378 672.727C514.838 675.77 505.848 691.943 508.574 694.803Z" fill="#2F2E41"/>
<path d="M461.049 359.676C461.049 359.676 412.77 386.323 387.234 368.143C387.234 368.143 381.648 396.372 379.41 398.708C377.171 401.043 373.605 402.061 376.134 404.667C378.664 407.272 380.072 410.791 375.264 415.26C370.456 419.729 365.662 418.311 370.297 422.913C374.933 427.515 356.279 540.406 356.279 540.406C356.279 540.406 359.264 645.391 356.279 648.566C353.294 651.741 349.305 652.452 353.165 656.379C357.025 660.305 357.025 657.26 357.025 662.675V668.091L358.791 673.473H383.018C383.018 673.473 388.865 666.387 383.018 660.232C377.171 654.077 384.797 652.392 386.58 646.617C388.364 640.841 391.348 647.07 388.364 640.841C385.379 634.613 383.945 635.798 383.916 631.702C383.887 627.605 427.91 467.221 427.91 467.221L433.242 555.992L497.378 653.21L516.256 638.437C516.256 638.437 502.511 618.248 505.725 615.472C508.939 612.697 496.253 609.216 500.253 606.085C504.254 602.954 494.623 599.799 498.253 595.649C501.882 591.499 493.252 581.039 488.251 581.039C483.25 581.039 476.232 563.601 476.232 563.601L486.709 425.853L461.049 359.676Z" fill="#2F2E41"/>
<path d="M409.878 167.651C409.537 168.119 406.814 167.867 403.541 167.368C397.069 166.382 396.187 167.554 391.348 172.146C384.339 178.798 388.324 219.372 384.88 228.163L383.768 229.019C385.975 228.579 388.142 227.946 390.247 227.127C391.437 223.212 392.629 219.284 393.829 215.372C394.963 218.416 395.675 221.612 395.945 224.865C397.611 224.18 399.268 222.504 406.229 220.256C409.735 217.775 435.096 215.28 438.356 214.188C446.631 184.812 433.296 172.932 409.878 167.651Z" fill="#2F2E41"/>
<path d="M418.441 212.95C431.826 212.95 442.676 201.628 442.676 187.662C442.676 173.696 431.826 162.374 418.441 162.374C405.056 162.374 394.206 173.696 394.206 187.662C394.206 201.628 405.056 212.95 418.441 212.95Z" fill="#A0616A"/>
<path d="M433.699 165.422C432.333 165.212 431.018 164.731 429.826 164.005C429.234 163.633 428.755 163.094 428.444 162.451C428.132 161.808 428 161.087 428.062 160.369C428.361 158.572 430.307 157.499 432.052 157.609C433.789 157.87 435.439 158.567 436.861 159.639C436.705 157.903 435.994 156.272 434.842 155.008C433.691 153.744 432.166 152.92 430.512 152.669C432.806 152.54 435.191 152.426 437.313 153.347C439.435 154.268 441.203 156.548 440.82 158.912C444.387 158.433 447.904 161.026 449.377 164.45C450.85 167.873 450.558 171.894 449.381 175.44C449.265 175.983 449.039 176.494 448.717 176.937C448.395 177.381 447.986 177.747 447.517 178.012C446.316 178.487 445.024 177.69 443.984 176.904C438.551 172.799 433.605 168.034 429.253 162.708" fill="#2F2E41"/>
<path d="M444.266 214.547C443.238 215.051 443.773 216.929 442.975 217.77C442.628 218.126 442.21 218.397 441.751 218.564C441.631 216.997 441.281 215.458 440.714 214.002C440.61 213.737 440.438 213.441 440.169 213.464C439.856 213.503 439.774 213.932 439.766 214.251C439.703 215.834 439.367 217.393 438.774 218.852C438.766 218.868 438.759 218.891 438.752 218.907C438.52 218.899 438.281 218.891 438.058 218.883C436.327 218.813 432.491 214.173 431.641 215.746C434.64 210.195 438.296 201.848 438.856 195.503C439.05 194.175 438.956 192.818 438.58 191.532C438.384 190.893 438.016 190.326 437.52 189.898C437.024 189.47 436.421 189.2 435.782 189.119C435.467 189.104 435.152 189.162 434.861 189.288C434.57 189.415 434.309 189.607 434.097 189.851C433.886 190.095 433.728 190.385 433.636 190.7C433.544 191.015 433.52 191.347 433.566 191.672L433.133 191.61C429.119 188.2 432.581 182.275 427.91 179.932C426.328 179.138 416.643 181.792 414.934 181.325C414.898 179.447 414.531 177.592 413.852 175.852C413.748 175.587 413.576 175.291 413.308 175.315C412.994 175.354 412.912 175.782 412.905 176.101C412.842 177.685 412.505 179.243 411.912 180.703C409.545 180.352 407.135 180.484 404.816 181.092C402.772 181.652 400.832 182.618 398.78 183.132C397.766 183.456 396.699 183.561 395.644 183.441C394.59 183.32 393.57 182.977 392.647 182.431C390.043 180.609 389.587 176.576 390.886 173.602C391.825 171.694 393.095 169.983 394.631 168.557C395.803 167.373 397.019 166.237 398.235 165.1C399.325 164.08 400.414 163.06 401.503 162.04C402.875 160.693 404.336 159.45 405.876 158.319C408.335 156.637 411.097 155.498 413.993 154.97C416.889 154.443 419.857 154.538 422.717 155.251C426.149 156.108 430.738 154.901 433.879 156.575C435.521 157.455 439.155 160.826 440.595 162.025C444.281 165.085 441.786 162.591 445.818 164.36C455.431 168.579 451.18 211.15 444.266 214.547Z" fill="#2F2E41"/>
<path d="M175.926 399.12C258.933 399.12 326.224 328.907 326.224 242.294C326.224 155.682 258.933 85.469 175.926 85.469C92.919 85.469 25.6284 155.682 25.6284 242.294C25.6284 328.907 92.919 399.12 175.926 399.12Z" fill="white"/>
<path d="M175.926 400.685C92.2248 400.685 24.1284 329.631 24.1284 242.294C24.1284 154.957 92.2249 83.9033 175.926 83.9033C259.628 83.9033 327.724 154.957 327.724 242.294C327.724 329.631 259.628 400.685 175.926 400.685ZM175.926 87.0341C93.8794 87.0341 27.1289 156.684 27.1289 242.294C27.1289 327.905 93.8794 397.554 175.926 397.554C257.973 397.554 324.724 327.905 324.724 242.294C324.724 156.684 257.973 87.0341 175.926 87.0341Z" fill="#219EBC"/>
<path d="M155.422 323.915C152.827 323.915 150.267 323.284 147.946 322.073C145.625 320.861 143.606 319.103 142.049 316.936L101.045 259.889C99.7282 258.056 98.7699 255.971 98.2251 253.751C97.6803 251.532 97.5597 249.223 97.8702 246.955C98.1808 244.687 98.9164 242.506 100.035 240.534C101.154 238.563 102.633 236.841 104.39 235.467C106.146 234.092 108.145 233.093 110.272 232.524C112.399 231.956 114.612 231.83 116.785 232.154C118.959 232.478 121.05 233.245 122.939 234.413C124.828 235.58 126.478 237.124 127.795 238.957L154.621 276.275L223.52 168.44C225.981 164.593 229.805 161.924 234.151 161.018C238.498 160.112 243.011 161.045 246.699 163.61C250.387 166.176 252.948 170.164 253.818 174.699C254.689 179.233 253.798 183.943 251.342 187.793L169.335 316.146C167.851 318.468 165.856 320.384 163.516 321.735C161.177 323.085 158.561 323.831 155.888 323.909C155.733 323.912 155.578 323.915 155.422 323.915Z" fill="#219EBC"/>
<path d="M330.777 95.2673C331.195 92.269 328.185 89.3301 324.055 88.703C319.924 88.0759 316.237 89.9981 315.819 92.9964C315.4 95.9947 318.41 98.9337 322.541 99.5608C326.671 100.188 330.359 98.2656 330.777 95.2673Z" fill="#E6E6E6"/>
<path d="M379.956 90.2603C380.374 87.262 377.364 84.3231 373.234 83.696C369.103 83.0689 365.416 84.9911 364.998 87.9894C364.58 90.9876 367.589 93.9266 371.72 94.5537C375.851 95.1808 379.538 93.2586 379.956 90.2603Z" fill="#3F3D56"/>
<path d="M317.31 53.7236C317.728 50.7253 314.718 47.7864 310.587 47.1593C306.457 46.5322 302.769 48.4544 302.351 51.4527C301.933 54.451 304.943 57.39 309.073 58.017C313.204 58.6441 316.892 56.7219 317.31 53.7236Z" fill="#FF6584"/>
<path d="M295.94 36.7062C295.96 33.9536 294.488 31.7105 292.653 31.696C290.818 31.6816 289.314 33.9012 289.294 36.6538C289.274 39.4063 290.746 41.6494 292.581 41.6639C294.416 41.6784 295.92 39.4587 295.94 36.7062Z" fill="#E6E6E6"/>
<path d="M288.693 5.01015C288.713 2.2576 287.242 0.0144733 285.407 -6.10706e-06C283.572 -0.0144855 282.068 2.20517 282.048 4.95771C282.028 7.71026 283.499 9.95339 285.334 9.96787C287.17 9.98235 288.673 7.7627 288.693 5.01015Z" fill="#3F3D56"/>
<path d="M345.048 60.7931C345.068 58.0406 343.596 55.7974 341.761 55.783C339.926 55.7685 338.422 57.9881 338.402 60.7407C338.382 63.4932 339.854 65.7363 341.689 65.7508C343.524 65.7653 345.028 63.5457 345.048 60.7931Z" fill="#E6E6E6"/>
<path d="M321.282 73.1745C321.302 70.422 319.83 68.1788 317.995 68.1644C316.16 68.1499 314.656 70.3695 314.636 73.1221C314.616 75.8746 316.088 78.1177 317.923 78.1322C319.758 78.1467 321.262 75.9271 321.282 73.1745Z" fill="#FF6584"/>
<path d="M354.365 96.0583C354.385 93.3058 352.913 91.0626 351.078 91.0481C349.243 91.0337 347.739 93.2533 347.719 96.0059C347.699 98.7584 349.171 101.001 351.006 101.016C352.841 101.03 354.345 98.8109 354.365 96.0583Z" fill="#3F3D56"/>
<path d="M48.7296 466.792C49.1476 463.793 46.138 460.854 42.0073 460.227C37.8767 459.6 34.1892 461.523 33.7712 464.521C33.3531 467.519 36.3627 470.458 40.4933 471.085C44.624 471.712 48.3115 469.79 48.7296 466.792Z" fill="#E6E6E6"/>
<path d="M97.9092 461.784C98.3273 458.786 95.3177 455.847 91.187 455.22C87.0564 454.593 83.3689 456.515 82.9509 459.513C82.5328 462.512 85.5424 465.451 89.673 466.078C93.8037 466.705 97.4911 464.783 97.9092 461.784Z" fill="#3F3D56"/>
<path d="M35.2627 425.248C35.6808 422.249 32.6712 419.31 28.5406 418.683C24.4099 418.056 20.7225 419.978 20.3044 422.977C19.8863 425.975 22.8959 428.914 27.0266 429.541C31.1572 430.168 34.8446 428.246 35.2627 425.248Z" fill="#FF6584"/>
<path d="M13.8926 408.231C13.9126 405.478 12.4411 403.235 10.606 403.22C8.77085 403.206 7.267 405.426 7.24706 408.178C7.22711 410.931 8.69862 413.174 10.5337 413.188C12.3688 413.203 13.8727 410.983 13.8926 408.231Z" fill="#E6E6E6"/>
<path d="M6.64599 376.535C6.66594 373.782 5.19446 371.539 3.35935 371.524C1.52424 371.51 0.020422 373.73 0.000474202 376.482C-0.0194736 379.235 1.452 381.478 3.28711 381.492C5.12223 381.507 6.62604 379.287 6.64599 376.535Z" fill="#3F3D56"/>
<path d="M63.0005 432.317C63.0204 429.565 61.5489 427.322 59.7138 427.307C57.8787 427.293 56.3749 429.512 56.355 432.265C56.335 435.017 57.8065 437.261 59.6416 437.275C61.4767 437.289 62.9805 435.07 63.0005 432.317Z" fill="#E6E6E6"/>
<path d="M39.2344 444.699C39.2544 441.946 37.7829 439.703 35.9478 439.688C34.1127 439.674 32.6088 441.894 32.5889 444.646C32.5689 447.399 34.0404 449.642 35.8755 449.656C37.7106 449.671 39.2145 447.451 39.2344 444.699Z" fill="#FF6584"/>
<path d="M72.3174 467.583C72.3373 464.83 70.8658 462.587 69.0307 462.572C67.1956 462.558 65.6918 464.778 65.6719 467.53C65.6519 470.283 67.1234 472.526 68.9585 472.54C70.7936 472.555 72.2974 470.335 72.3174 467.583Z" fill="#3F3D56"/>
</g>
<defs>
<clipPath id="clip0_111_14">
<rect width="575" height="715" fill="white"/>
</clipPath>
</defs>
</svg>
