<svg width="176" height="122" viewBox="0 0 176 122" fill="none" xmlns="http://www.w3.org/2000/svg">
<path d="M41.2188 13.1091C41.6598 11.4801 42.7441 10.0256 44.294 8.98389C45.8439 7.94215 47.7676 7.37489 49.75 7.375H102.25C104.232 7.37489 106.156 7.94215 107.706 8.98389C109.256 10.0256 110.34 11.4801 110.781 13.1091L76 31.0266L41.2188 13.1091ZM41 17.3202V43.5162L66.3881 30.3961L41 17.3202ZM70.5794 32.5606L41.8356 47.4065C42.5452 48.6694 43.6658 49.7363 45.0669 50.4832C46.4681 51.23 48.0922 51.626 49.75 51.625H77.12C76.3763 49.8483 75.9975 47.9778 76 46.0937C75.997 43.6714 76.6247 41.278 77.8387 39.0824C79.0527 36.8869 80.8235 34.9425 83.0262 33.3866L81.4206 32.5569L76 35.3484L70.5794 32.5569V32.5606ZM111 17.3202V35.6618C109.156 33.7356 106.824 32.1822 104.174 31.1159C101.524 30.0495 98.6239 29.4974 95.6875 29.5C92.7097 29.4968 89.77 30.0642 87.0906 31.1594L85.6119 30.3961L111 17.3202Z" fill="#023047"/>
<path d="M111 46.0938C111 49.5167 109.387 52.7995 106.515 55.2198C103.643 57.6402 99.7486 59 95.6875 59C91.6264 59 87.7316 57.6402 84.8599 55.2198C81.9883 52.7995 80.375 49.5167 80.375 46.0938C80.375 42.6708 81.9883 39.388 84.8599 36.9677C87.7316 34.5473 91.6264 33.1875 95.6875 33.1875C99.7486 33.1875 103.643 34.5473 106.515 36.9677C109.387 39.388 111 42.6708 111 46.0938ZM102.281 39.9024C102.034 39.7779 101.761 39.6956 101.477 39.6601C101.193 39.6246 100.903 39.6366 100.624 39.6955C100.345 39.7544 100.083 39.859 99.8525 40.0034C99.6217 40.1477 99.427 40.3289 99.2794 40.5367L94.1606 47.7273L91.7675 45.7102C91.3567 45.364 90.7996 45.1695 90.2188 45.1695C89.6379 45.1695 89.0808 45.364 88.67 45.7102C88.2592 46.0565 88.0285 46.526 88.0285 47.0156C88.0285 47.5052 88.2592 47.9748 88.67 48.321L92.0563 51.1714C92.4087 51.4691 92.8371 51.6951 93.3087 51.8322C93.7804 51.9693 94.2829 52.014 94.7782 51.9628C95.2734 51.9116 95.7483 51.7659 96.1666 51.5367C96.585 51.3076 96.9358 51.0011 97.1925 50.6404L103.033 42.4321C103.181 42.2243 103.279 41.9941 103.321 41.7545C103.363 41.515 103.348 41.2708 103.279 41.0359C103.209 40.8009 103.085 40.5799 102.913 40.3855C102.742 40.191 102.527 40.0269 102.281 39.9024Z" fill="#31C178"/>
<path d="M0.15625 90.8875C0.471307 89.7831 1.2458 88.797 2.35288 88.0908C3.45996 87.3845 4.83401 86.9999 6.25 87H43.75C45.166 86.9999 46.54 87.3845 47.6471 88.0908C48.7542 88.797 49.5287 89.7831 49.8438 90.8875L25 103.035L0.15625 90.8875ZM0 93.7425V111.502L18.1344 102.607L0 93.7425ZM21.1281 104.075L0.596875 114.14C1.1037 114.996 1.90413 115.72 2.90496 116.226C3.90579 116.732 5.06583 117.001 6.25 117H25.8C25.2688 115.795 24.9982 114.527 25 113.25C24.9979 111.608 25.4462 109.985 26.3133 108.497C27.1805 107.008 28.4454 105.69 30.0187 104.635L28.8719 104.073L25 105.965L21.1281 104.073V104.075ZM50 93.7425V106.177C48.683 104.872 47.0168 103.818 45.124 103.096C43.2312 102.373 41.1599 101.998 39.0625 102C36.9355 101.998 34.8357 102.383 32.9219 103.125L31.8656 102.607L50 93.7425Z" fill="#023047"/>
<path d="M50 113.25C50 115.571 48.8477 117.796 46.7965 119.437C44.7453 121.078 41.9633 122 39.0625 122C36.1617 122 33.3797 121.078 31.3285 119.437C29.2773 117.796 28.125 115.571 28.125 113.25C28.125 110.929 29.2773 108.704 31.3285 107.063C33.3797 105.422 36.1617 104.5 39.0625 104.5C41.9633 104.5 44.7453 105.422 46.7965 107.063C48.8477 108.704 50 110.929 50 113.25ZM43.7719 109.053C43.5958 108.968 43.4007 108.912 43.1977 108.888C42.9947 108.864 42.7877 108.872 42.5887 108.912C42.3896 108.952 42.2023 109.023 42.0375 109.121C41.8727 109.219 41.7336 109.342 41.6281 109.483L37.9719 114.358L36.2625 112.99C35.9691 112.755 35.5712 112.623 35.1562 112.623C34.7413 112.623 34.3434 112.755 34.05 112.99C33.7566 113.225 33.5918 113.543 33.5918 113.875C33.5918 114.207 33.7566 114.525 34.05 114.76L36.4688 116.692C36.7205 116.894 37.0265 117.048 37.3634 117.14C37.7003 117.233 38.0592 117.264 38.413 117.229C38.7667 117.194 39.1059 117.096 39.4047 116.94C39.7036 116.785 39.9542 116.577 40.1375 116.332L44.3094 110.767C44.4149 110.627 44.4847 110.471 44.5148 110.308C44.5448 110.146 44.5346 109.98 44.4847 109.821C44.4348 109.662 44.3462 109.512 44.2239 109.38C44.1015 109.248 43.948 109.137 43.7719 109.053Z" fill="#31C178"/>
<path d="M126.156 67.8875C126.471 66.7831 127.246 65.797 128.353 65.0908C129.46 64.3845 130.834 63.9999 132.25 64H169.75C171.166 63.9999 172.54 64.3845 173.647 65.0908C174.754 65.797 175.529 66.7831 175.844 67.8875L151 80.035L126.156 67.8875ZM126 70.7425V88.5025L144.134 79.6075L126 70.7425ZM147.128 81.075L126.597 91.14C127.104 91.9962 127.904 92.7196 128.905 93.2259C129.906 93.7322 131.066 94.0007 132.25 94H151.8C151.269 92.7955 150.998 91.5273 151 90.25C150.998 88.6077 151.446 86.9851 152.313 85.4966C153.181 84.008 154.445 82.6898 156.019 81.635L154.872 81.0725L151 82.965L147.128 81.0725V81.075ZM176 70.7425V83.1775C174.683 81.8716 173.017 80.8184 171.124 80.0955C169.231 79.3726 167.16 78.9982 165.062 79C162.935 78.9978 160.836 79.3825 158.922 80.125L157.866 79.6075L176 70.7425Z" fill="#023047"/>
<path d="M176 90.25C176 92.5706 174.848 94.7962 172.796 96.4372C170.745 98.0781 167.963 99 165.062 99C162.162 99 159.38 98.0781 157.329 96.4372C155.277 94.7962 154.125 92.5706 154.125 90.25C154.125 87.9294 155.277 85.7038 157.329 84.0628C159.38 82.4219 162.162 81.5 165.062 81.5C167.963 81.5 170.745 82.4219 172.796 84.0628C174.848 85.7038 176 87.9294 176 90.25ZM169.772 86.0525C169.596 85.9681 169.401 85.9123 169.198 85.8882C168.995 85.8641 168.788 85.8723 168.589 85.9122C168.39 85.9522 168.202 86.0231 168.037 86.1209C167.873 86.2188 167.734 86.3416 167.628 86.4825L163.972 91.3575L162.263 89.99C161.969 89.7553 161.571 89.6234 161.156 89.6234C160.741 89.6234 160.343 89.7553 160.05 89.99C159.757 90.2247 159.592 90.5431 159.592 90.875C159.592 91.2069 159.757 91.5253 160.05 91.76L162.469 93.6925C162.721 93.8943 163.026 94.0475 163.363 94.1405C163.7 94.2334 164.059 94.2637 164.413 94.229C164.767 94.1943 165.106 94.0955 165.405 93.9402C165.704 93.7848 165.954 93.577 166.137 93.3325L170.309 87.7675C170.415 87.6267 170.485 87.4706 170.515 87.3082C170.545 87.1457 170.535 86.9802 170.485 86.8209C170.435 86.6617 170.346 86.5118 170.224 86.38C170.102 86.2481 169.948 86.1369 169.772 86.0525Z" fill="#31C178"/>
</svg>
