<svg width="215" height="237" viewBox="0 0 215 237" fill="none" xmlns="http://www.w3.org/2000/svg">
<g clip-path="url(#clip0_22_258)">
<path d="M174.008 113.333L179.304 132.343L178.029 155.853C177.629 156.394 177.346 157.121 177.22 157.932C177.094 158.743 177.131 159.597 177.327 160.373C177.522 161.149 177.866 161.806 178.309 162.253C178.752 162.7 179.272 162.913 179.796 162.862C180.319 162.811 180.819 162.499 181.225 161.97C181.631 161.441 181.922 160.721 182.057 159.914C182.192 159.106 182.164 158.251 181.977 157.47C181.79 156.689 181.453 156.022 181.015 155.563L181.223 155.505L183.297 132.011L179.875 108.313L174.008 113.333Z" fill="#FFB8B8"/>
<path d="M158.886 237C164.106 237 168.337 236.298 168.337 235.431C168.337 234.565 164.106 233.862 158.886 233.862C153.667 233.862 149.436 234.565 149.436 235.431C149.436 236.298 153.667 237 158.886 237Z" fill="#E6E6E6"/>
<path d="M186.845 237C192.064 237 196.296 236.298 196.296 235.431C196.296 234.565 192.064 233.862 186.845 233.862C181.625 233.862 177.394 234.565 177.394 235.431C177.394 236.298 181.625 237 186.845 237Z" fill="#E6E6E6"/>
<path d="M208.503 237C212.091 237 215 236.517 215 235.921C215 235.325 212.091 234.842 208.503 234.842C204.914 234.842 202.005 235.325 202.005 235.921C202.005 236.517 204.914 237 208.503 237Z" fill="#E6E6E6"/>
<path d="M210.361 227.745C210.316 230.433 210.034 233.099 209.523 235.662C209.511 235.722 209.499 235.78 209.486 235.84H206.354C206.357 235.787 206.361 235.727 206.364 235.662C206.573 231.834 207.777 208.541 206.337 204.557C206.463 204.88 210.605 215.584 210.361 227.745Z" fill="#E6E6E6"/>
<path d="M210.127 235.662C210.101 235.722 210.074 235.781 210.046 235.84H207.695C207.713 235.789 207.734 235.731 207.758 235.662C208.146 234.545 209.295 231.206 210.362 227.745C211.508 224.024 212.56 220.164 212.471 218.766C212.499 219.081 213.292 228.689 210.127 235.662Z" fill="#E6E6E6"/>
<path d="M144.464 150.217H1.71821C1.26268 150.216 0.825957 149.927 0.503848 149.414C0.181739 148.901 0.000539764 148.205 0 147.479V2.73845C0.000479905 2.0124 0.18166 1.31631 0.503782 0.802918C0.825904 0.289526 1.26266 0.000764863 1.71821 0H144.464C144.919 0.000764863 145.356 0.289526 145.678 0.802918C146 1.31631 146.182 2.0124 146.182 2.73845V147.479C146.182 148.205 146 148.901 145.678 149.414C145.356 149.927 144.919 150.216 144.464 150.217ZM1.71821 1.08353C1.44291 1.08401 1.17897 1.25852 0.984308 1.56877C0.789643 1.87902 0.680151 2.29968 0.679851 2.73845V147.479C0.680151 147.917 0.789643 148.338 0.984308 148.648C1.17897 148.959 1.44291 149.133 1.71821 149.134H144.464C144.739 149.133 145.003 148.959 145.198 148.648C145.392 148.338 145.502 147.917 145.502 147.479V2.73845C145.502 2.29968 145.392 1.87902 145.198 1.56877C145.003 1.25852 144.739 1.08401 144.464 1.08353H1.71821Z" fill="#E6E6E6"/>
<path d="M107.49 21.3389H31.8585C31.487 21.3395 31.1309 21.575 30.8683 21.9936C30.6057 22.4122 30.4579 22.9797 30.4575 23.5717V126.645C30.4579 127.237 30.6057 127.805 30.8683 128.224C31.1309 128.642 31.487 128.878 31.8585 128.878H107.49C107.861 128.878 108.217 128.642 108.48 128.224C108.743 127.805 108.89 127.237 108.891 126.645V23.5717C108.89 22.9797 108.743 22.4122 108.48 21.9936C108.217 21.575 107.861 21.3395 107.49 21.3389ZM108.328 126.646C108.328 127.001 108.24 127.341 108.083 127.593C107.926 127.844 107.713 127.986 107.49 127.988H31.8585C31.6357 127.987 31.4222 127.845 31.265 127.593C31.1078 127.342 31.0197 127.001 31.02 126.646V23.5717C31.0197 23.2166 31.1078 22.8758 31.265 22.6241C31.4222 22.3725 31.6357 22.2306 31.8585 22.2295H107.49C107.713 22.2312 107.926 22.3734 108.083 22.6249C108.24 22.8764 108.328 23.2168 108.328 23.5717V126.646Z" fill="#3F3D56"/>
<path d="M49.3161 110.551C49.3161 110.71 49.3134 110.868 49.3082 111.023C49.2317 113.349 48.5981 115.539 47.538 117.143C46.478 118.746 45.0723 119.64 43.6109 119.64C42.1495 119.64 40.7439 118.746 39.6838 117.143C38.6238 115.539 37.9902 113.349 37.9137 111.023C37.9085 110.868 37.9058 110.71 37.9058 110.551C37.9058 108.139 38.5068 105.826 39.5767 104.121C40.6466 102.416 42.0977 101.458 43.6108 101.458C45.1239 101.458 46.575 102.416 47.6449 104.121C48.7148 105.826 49.3159 108.139 49.3159 110.551H49.3161Z" fill="#31C178"/>
<path d="M101.613 104.488H56.7854C56.5394 104.503 56.3066 104.669 56.1358 104.952C55.965 105.234 55.8696 105.611 55.8696 106.004C55.8696 106.396 55.965 106.773 56.1358 107.056C56.3066 107.339 56.5394 107.505 56.7854 107.52H101.613C101.865 107.534 102.11 107.389 102.295 107.115C102.479 106.842 102.588 106.462 102.598 106.061C102.607 105.659 102.517 105.268 102.345 104.973C102.174 104.678 101.936 104.504 101.685 104.488C101.661 104.486 101.637 104.486 101.613 104.488Z" fill="#31C178"/>
<path d="M76.0746 113.582H56.7857C56.5338 113.582 56.2922 113.742 56.1141 114.025C55.936 114.309 55.8359 114.694 55.8359 115.096C55.8359 115.497 55.936 115.882 56.1141 116.166C56.2922 116.45 56.5338 116.609 56.7857 116.609H76.0746C76.3265 116.61 76.5682 116.451 76.7466 116.168C76.925 115.884 77.0255 115.5 77.0259 115.098C77.0263 114.697 76.9267 114.312 76.7489 114.027C76.5711 113.743 76.3297 113.583 76.0778 113.582H76.0746Z" fill="#E6E6E6"/>
<path d="M125.458 93.2425H49.8259C49.4024 93.2417 48.9964 92.9733 48.6969 92.496C48.3975 92.0187 48.229 91.3716 48.2285 90.6966V37.7964C48.229 37.1214 48.3975 36.4743 48.6969 35.997C48.9964 35.5197 49.4024 35.2513 49.8259 35.2505H125.457C125.88 35.2513 126.286 35.5197 126.586 35.997C126.885 36.4743 127.054 37.1214 127.054 37.7964V90.6951C127.054 91.3701 126.886 92.0174 126.587 92.495C126.287 92.9725 125.881 93.2414 125.458 93.2425Z" fill="#31C178"/>
<path d="M65.2297 54.0024C64.9775 53.9849 64.7312 54.1277 64.5451 54.3995C64.359 54.6713 64.2483 55.0498 64.2372 55.4517C64.2262 55.8537 64.3158 56.2461 64.4864 56.5427C64.6569 56.8394 64.8944 57.0159 65.1466 57.0334C65.1743 57.0353 65.2019 57.0353 65.2297 57.0334H110.056C110.301 57.0164 110.532 56.8492 110.702 56.5669C110.872 56.2845 110.966 55.9088 110.966 55.5179C110.966 55.1271 110.872 54.7513 110.702 54.4689C110.532 54.1866 110.301 54.0195 110.056 54.0024H65.2297Z" fill="white"/>
<path d="M65.2297 62.7837C64.9775 62.7661 64.7312 62.909 64.5451 63.1807C64.359 63.4525 64.2483 63.831 64.2372 64.233C64.2262 64.6349 64.3158 65.0274 64.4864 65.324C64.6569 65.6206 64.8944 65.7971 65.1466 65.8147C65.1743 65.8166 65.2019 65.8166 65.2297 65.8147H110.056C110.301 65.7976 110.532 65.6305 110.702 65.3482C110.872 65.0658 110.966 64.69 110.966 64.2992C110.966 63.9083 110.872 63.5325 110.702 63.2502C110.532 62.9678 110.301 62.8007 110.056 62.7837H65.2297Z" fill="white"/>
<path d="M65.2296 71.458C64.9846 71.475 64.7532 71.6422 64.5836 71.9245C64.414 72.2068 64.3193 72.5826 64.3193 72.9735C64.3193 73.3644 64.414 73.7401 64.5836 74.0225C64.7532 74.3048 64.9846 74.4719 65.2296 74.489H84.5185C84.6434 74.4977 84.7681 74.4671 84.8856 74.399C85.003 74.3308 85.1109 74.2265 85.203 74.0919C85.2952 73.9573 85.3698 73.7951 85.4226 73.6146C85.4755 73.4341 85.5055 73.2387 85.5109 73.0397C85.5164 72.8407 85.4972 72.6419 85.4544 72.4547C85.4117 72.2675 85.3462 72.0956 85.2618 71.9487C85.1773 71.8018 85.0756 71.6829 84.9623 71.5987C84.849 71.5145 84.7264 71.4667 84.6016 71.458C84.5739 71.4561 84.5462 71.4561 84.5185 71.458H65.2296Z" fill="white"/>
<path d="M6.09883 9.58936C6.75127 9.58936 7.28018 8.7464 7.28018 7.70655C7.28018 6.6667 6.75127 5.82373 6.09883 5.82373C5.44639 5.82373 4.91748 6.6667 4.91748 7.70655C4.91748 8.7464 5.44639 9.58936 6.09883 9.58936Z" fill="#31C178"/>
<path d="M10.2336 9.58936C10.886 9.58936 11.4149 8.7464 11.4149 7.70655C11.4149 6.6667 10.886 5.82373 10.2336 5.82373C9.58116 5.82373 9.05225 6.6667 9.05225 7.70655C9.05225 8.7464 9.58116 9.58936 10.2336 9.58936Z" fill="#31C178"/>
<path d="M14.3684 9.58936C15.0208 9.58936 15.5497 8.7464 15.5497 7.70655C15.5497 6.6667 15.0208 5.82373 14.3684 5.82373C13.7159 5.82373 13.187 6.6667 13.187 7.70655C13.187 8.7464 13.7159 9.58936 14.3684 9.58936Z" fill="#31C178"/>
<path d="M172.2 89.7093C175.107 89.7093 177.463 85.9544 177.463 81.3224C177.463 76.6905 175.107 72.9355 172.2 72.9355C169.294 72.9355 166.938 76.6905 166.938 81.3224C166.938 85.9544 169.294 89.7093 172.2 89.7093Z" fill="#FFB8B8"/>
<path d="M161.792 126.05L175.613 130.147C180.272 116.543 182.842 104.258 178.505 96.3384L170.309 95.5698C165.072 104.495 160.643 113.157 163.653 119.391L161.792 126.05Z" fill="#6C63FF"/>
<path d="M174.099 115.367C177.262 117.296 180.198 115.62 182.892 110.122L178.899 97.8423L173.81 99.4495L174.099 115.367Z" fill="#6C63FF"/>
<path d="M160.506 227.989L165.97 227.542L169.505 168.568L187.504 227.223L193.129 226.967L182.363 175.483C181.938 158.307 181.493 141.175 176.899 133.733L175.292 128.355L162.435 124L160.668 129.379C156.569 144.633 158.975 188.216 160.506 227.989Z" fill="#2F2E41"/>
<path d="M167.095 109.914L162.595 129.381L154.436 147.887C153.912 147.941 153.413 148.257 153.009 148.789C152.604 149.321 152.315 150.042 152.182 150.851C152.049 151.659 152.079 152.514 152.268 153.294C152.458 154.073 152.796 154.738 153.235 155.194C153.675 155.65 154.193 155.874 154.717 155.834C155.241 155.794 155.743 155.493 156.154 154.972C156.564 154.451 156.861 153.738 157.002 152.933C157.144 152.128 157.123 151.273 156.942 150.488L157.131 150.639L167.577 133.735L173.683 111.451L167.095 109.914Z" fill="#FFB8B8"/>
<path d="M165.97 109.914C168.221 113.946 171.312 114.609 175.291 111.707V97.8758L170.309 95.5708L165.97 109.914Z" fill="#6C63FF"/>
<path d="M188.704 104.677C187.904 103.082 186.787 101.985 185.704 100.894C184.622 99.8024 183.522 98.6427 182.786 96.9704C181.612 94.3021 181.556 90.7925 181.731 87.5455C181.906 84.2985 182.265 80.9819 181.768 77.8201C181.111 73.6377 178.937 70.2513 176.368 68.9008C173.799 67.5504 170.91 68.1268 168.493 70.0642L169.157 69.0648C168.628 69.2387 168.145 69.6669 167.773 70.2917C167.401 70.9166 167.159 71.7081 167.078 72.5596C166.997 73.4111 167.081 74.2817 167.32 75.0541C167.559 75.8265 167.941 76.4636 168.414 76.8796C169.505 77.8378 170.99 77.5633 171.866 78.9719C172.728 80.3606 172.547 82.64 172.236 84.5297C171.431 89.4215 170.153 94.1305 169.71 99.1371C169.268 104.144 169.827 109.754 172.158 113.185C173.871 115.707 176.305 116.68 178.637 116.605C180.969 116.531 183.244 115.514 185.487 114.503C187.061 113.794 188.837 112.811 189.453 110.396C189.936 108.506 189.504 106.273 188.704 104.677Z" fill="#2F2E41"/>
<path d="M166.107 234.739L154.375 234.739V234.502C154.376 232.572 154.857 230.721 155.713 229.356C156.569 227.991 157.731 227.225 158.942 227.225H158.942L166.107 227.225L166.107 234.739Z" fill="#2F2E41"/>
<path d="M193.302 234.017L181.57 234.017V233.78C181.57 231.85 182.051 229.999 182.907 228.634C183.764 227.269 184.925 226.503 186.136 226.502H186.136L193.302 226.503L193.302 234.017Z" fill="#2F2E41"/>
</g>
<defs>
<clipPath id="clip0_22_258">
<rect width="215" height="237" fill="white"/>
</clipPath>
</defs>
</svg>
