<svg width="517" height="599" viewBox="0 0 517 599" fill="none" xmlns="http://www.w3.org/2000/svg">
<g clip-path="url(#clip0_147_275)">
<path d="M512.694 598.872L487.088 627.209L507.438 586.164C491.405 551.216 465.185 521.012 465.185 521.012C465.185 521.012 410.787 583.662 410.787 632.909C410.787 682.156 435.142 699.352 465.185 699.352C495.228 699.352 519.583 682.156 519.583 632.909C519.583 621.948 516.884 610.323 512.694 598.872Z" fill="#F2F2F2"/>
<path d="M480.504 628.743V631.17C480.384 659.387 476.425 681.402 468.658 696.904C468.548 697.132 468.428 697.349 468.318 697.577L467.448 696.94L466.618 696.315C475.236 679.575 478.285 655.914 478.395 631.302C478.405 630.509 478.415 629.704 478.405 628.899C478.375 618.48 477.845 607.941 476.995 597.702C476.935 596.909 476.865 596.104 476.795 595.299C475.616 581.792 473.916 568.885 472.177 557.673C472.057 556.88 471.927 556.087 471.797 555.306C468.788 536.343 465.719 522.607 465.019 519.567C464.939 519.194 464.889 518.99 464.879 518.942L465.829 518.618L465.839 518.605L466.798 518.281C466.808 518.329 466.978 519.014 467.258 520.288C468.328 525.047 471.107 537.965 473.836 555.005C473.956 555.775 474.086 556.568 474.206 557.361C475.626 566.458 477.015 576.624 478.115 587.296C478.395 589.975 478.645 592.619 478.864 595.227C478.944 596.032 479.014 596.837 479.074 597.63C479.994 608.698 480.471 619.069 480.504 628.743Z" fill="white"/>
<path d="M473.835 555.005C473.166 555.114 472.486 555.222 471.796 555.306C469.923 555.538 468.041 555.654 466.158 555.654C458.132 555.667 450.207 553.515 442.965 549.357C442.545 549.994 442.125 550.631 441.695 551.28C449.313 555.75 457.681 558.068 466.158 558.058C468.168 558.057 470.177 557.929 472.176 557.673C472.856 557.589 473.535 557.481 474.205 557.361C479.734 556.407 485.11 554.45 490.15 551.557C489.72 550.896 489.3 550.247 488.891 549.61C484.121 552.29 479.047 554.108 473.835 555.005Z" fill="white"/>
<path d="M478.864 595.227C478.174 595.275 477.485 595.299 476.795 595.299C476.585 595.311 476.365 595.311 476.155 595.311C467.459 595.311 458.892 592.783 451.184 587.943C443.476 583.104 436.856 576.095 431.889 567.515C431.489 568.224 431.089 568.933 430.699 569.654C435.877 578.336 442.701 585.409 450.606 590.289C458.511 595.168 467.269 597.714 476.155 597.714C476.435 597.714 476.715 597.714 476.995 597.702C477.694 597.69 478.384 597.666 479.074 597.63C489.748 596.973 500.038 592.634 508.715 585.132C508.395 584.423 508.075 583.714 507.745 583.005C499.312 590.371 489.275 594.618 478.864 595.227Z" fill="white"/>
<path d="M480.503 628.743C479.804 628.815 479.104 628.863 478.404 628.899C477.654 628.935 476.905 628.959 476.155 628.959C464.47 628.943 453.103 624.377 443.757 615.946C434.411 607.514 427.589 595.671 424.311 582.188C423.861 583.162 423.411 584.123 422.981 585.096C426.675 598.548 433.8 610.258 443.346 618.564C452.891 626.869 464.371 631.348 476.155 631.363C476.905 631.363 477.654 631.351 478.394 631.302C479.104 631.278 479.804 631.23 480.503 631.17C494.638 629.841 507.824 622.105 517.392 609.527C517.182 608.638 516.942 607.761 516.702 606.872C507.461 619.543 494.477 627.388 480.503 628.743Z" fill="white"/>
<path d="M420.615 151.355L142.114 108.673C141.364 108.557 140.608 108.498 139.852 108.496C139.106 108.495 138.361 108.551 137.622 108.665C136.884 108.779 136.152 108.951 135.433 109.18C134.705 109.414 133.99 109.704 133.293 110.048C132.611 110.385 131.946 110.772 131.302 111.206C130.649 111.643 130.019 112.126 129.414 112.652C128.795 113.192 128.202 113.774 127.637 114.395C127.055 115.034 126.501 115.71 125.979 116.42C125.443 117.152 124.939 117.916 124.468 118.709C123.992 119.512 123.546 120.348 123.128 121.216C122.711 122.087 122.324 122.992 121.967 123.932C121.61 124.873 121.284 125.845 120.99 126.849C120.685 127.886 120.418 128.947 120.189 130.031C119.959 131.115 119.767 132.218 119.613 133.339C119.463 134.46 119.347 135.599 119.267 136.756C119.187 137.914 119.146 139.085 119.146 140.27C119.15 141.454 119.19 142.635 119.267 143.811C119.344 144.988 119.459 146.155 119.613 147.312C119.769 148.474 119.962 149.624 120.191 150.763C120.42 151.902 120.688 153.028 120.992 154.141C121.287 155.216 121.613 156.267 121.97 157.293C122.327 158.32 122.714 159.319 123.131 160.29C123.548 161.262 123.994 162.205 124.47 163.12C124.945 164.039 125.449 164.923 125.982 165.773C126.514 166.623 127.067 167.433 127.64 168.205C128.213 168.971 128.805 169.695 129.416 170.374C130.027 171.054 130.657 171.689 131.304 172.28C131.944 172.864 132.609 173.408 133.296 173.911C133.987 174.418 134.701 174.879 135.435 175.29C136.147 175.689 136.878 176.037 137.624 176.333C138.355 176.623 139.1 176.859 139.854 177.04C140.601 177.219 141.357 177.342 142.116 177.409L420.618 201.898C421.428 201.969 422.242 201.871 423.025 201.609C423.423 201.475 423.811 201.303 424.186 201.094C424.577 200.875 424.954 200.621 425.313 200.334C425.678 200.044 426.026 199.725 426.356 199.379C426.702 199.017 427.029 198.631 427.338 198.222C427.663 197.79 427.97 197.339 428.256 196.868C428.552 196.384 428.836 195.868 429.109 195.32C429.382 194.773 429.64 194.201 429.883 193.606C430.126 193.011 430.353 192.393 430.565 191.752C430.778 191.111 430.974 190.449 431.155 189.764C431.335 189.079 431.5 188.374 431.648 187.649C431.804 186.899 431.939 186.135 432.052 185.358C432.165 184.581 432.262 183.792 432.342 182.991C432.42 182.191 432.478 181.38 432.517 180.558C432.555 179.737 432.575 178.906 432.575 178.066C432.572 177.227 432.553 176.392 432.517 175.56C432.481 174.729 432.423 173.904 432.342 173.085C432.265 172.266 432.168 171.454 432.052 170.649C431.937 169.844 431.802 169.047 431.648 168.259C431.5 167.498 431.335 166.753 431.155 166.026C430.976 165.308 430.779 164.602 430.565 163.905C430.351 163.209 430.123 162.534 429.883 161.88C429.64 161.227 429.382 160.594 429.109 159.979C428.835 159.365 428.551 158.781 428.256 158.226C427.96 157.672 427.654 157.146 427.338 156.649C427.021 156.153 426.693 155.688 426.356 155.255C426.026 154.831 425.679 154.428 425.313 154.048C424.956 153.677 424.579 153.332 424.186 153.017C423.815 152.719 423.427 152.453 423.025 152.221C422.64 152 422.242 151.814 421.833 151.666C421.435 151.522 421.028 151.418 420.616 151.355" fill="#219EBC"/>
<path d="M420.615 247.619L142.114 239.601C140.603 239.556 139.094 239.741 137.622 240.152C136.879 240.36 136.148 240.623 135.433 240.941C134.702 241.265 133.987 241.641 133.293 242.069C132.608 242.491 131.943 242.958 131.302 243.469C130.648 243.99 130.017 244.552 129.414 245.154C128.794 245.772 128.201 246.428 127.637 247.119C127.064 247.821 126.511 248.567 125.979 249.358C125.447 250.151 124.944 250.977 124.468 251.836C123.992 252.695 123.546 253.586 123.128 254.509C122.711 255.432 122.324 256.386 121.967 257.371C121.61 258.355 121.284 259.368 120.99 260.408C120.685 261.486 120.418 262.58 120.189 263.692C119.959 264.804 119.767 265.93 119.613 267.071C119.463 268.212 119.347 269.366 119.267 270.533C119.187 271.7 119.146 272.876 119.146 274.061C119.15 275.246 119.19 276.422 119.267 277.588C119.344 278.754 119.459 279.907 119.613 281.047C119.769 282.181 119.962 283.303 120.191 284.413C120.42 285.523 120.688 286.615 120.992 287.691C121.287 288.734 121.613 289.747 121.97 290.728C122.327 291.71 122.714 292.661 123.131 293.581C123.548 294.501 123.994 295.389 124.47 296.244C124.945 297.097 125.449 297.916 125.982 298.703C126.514 299.49 127.067 300.232 127.64 300.93C128.204 301.616 128.796 302.268 129.416 302.881C130.02 303.478 130.65 304.036 131.304 304.552C131.946 305.058 132.611 305.52 133.296 305.936C133.99 306.359 134.704 306.73 135.435 307.049C136.151 307.36 136.882 307.618 137.624 307.82C138.359 308.021 139.104 308.166 139.854 308.254C140.606 308.34 141.362 308.369 142.116 308.342L420.615 298.157C421.025 298.142 421.432 298.085 421.833 297.987C422.239 297.888 422.638 297.749 423.025 297.572C423.425 297.388 423.813 297.168 424.186 296.912C424.578 296.644 424.955 296.343 425.313 296.013C425.678 295.676 426.026 295.314 426.356 294.928C426.701 294.523 427.029 294.096 427.337 293.649C427.654 293.194 427.96 292.704 428.256 292.181C428.552 291.657 428.836 291.106 429.109 290.527C429.382 289.945 429.64 289.341 429.883 288.716C430.126 288.091 430.353 287.445 430.565 286.778C430.778 286.1 430.974 285.41 431.155 284.708C431.335 284.006 431.5 283.283 431.648 282.538C431.804 281.776 431.939 280.999 432.052 280.208C432.165 279.416 432.262 278.615 432.342 277.805C432.42 276.992 432.478 276.172 432.517 275.346C432.555 274.519 432.575 273.686 432.575 272.846C432.572 272.014 432.553 271.182 432.517 270.352C432.481 269.522 432.423 268.702 432.342 267.893C432.264 267.081 432.168 266.281 432.052 265.493C431.937 264.705 431.802 263.926 431.648 263.154C431.499 262.41 431.334 261.684 431.153 260.978C430.973 260.272 430.777 259.587 430.565 258.921C430.354 258.256 430.127 257.611 429.884 256.987C429.641 256.363 429.383 255.762 429.11 255.183C428.836 254.604 428.552 254.054 428.257 253.534C427.962 253.015 427.656 252.527 427.339 252.072C427.03 251.627 426.703 251.203 426.357 250.8C426.027 250.417 425.679 250.058 425.315 249.724C424.956 249.396 424.58 249.099 424.187 248.833C423.814 248.582 423.425 248.365 423.025 248.185C422.637 248.01 422.239 247.874 421.833 247.779C421.432 247.684 421.024 247.631 420.615 247.619Z" fill="#E4E4E4"/>
<path d="M420.615 337.866L142.114 362.351C141.354 362.417 140.599 362.541 139.852 362.72C139.097 362.901 138.353 363.137 137.622 363.427C136.876 363.723 136.145 364.071 135.433 364.47C134.699 364.881 133.985 365.342 133.293 365.849C132.607 366.351 131.942 366.896 131.302 367.48C130.654 368.075 130.024 368.71 129.414 369.385C128.803 370.063 128.211 370.787 127.637 371.555C127.064 372.324 126.511 373.134 125.979 373.987C125.447 374.842 124.944 375.728 124.468 376.643C123.992 377.558 123.546 378.501 123.128 379.472C122.711 380.444 122.324 381.443 121.967 382.47C121.61 383.496 121.284 384.546 120.99 385.622C120.685 386.733 120.418 387.859 120.189 388.999C119.959 390.14 119.767 391.289 119.613 392.447C119.463 393.606 119.347 394.773 119.267 395.949C119.187 397.124 119.146 398.305 119.146 399.49C119.15 400.675 119.19 401.846 119.267 403.004C119.344 404.161 119.459 405.3 119.613 406.422C119.769 407.546 119.962 408.65 120.191 409.732C120.42 410.814 120.688 411.874 120.992 412.914C121.287 413.919 121.613 414.891 121.97 415.83C122.327 416.771 122.714 417.676 123.131 418.547C123.548 419.418 123.994 420.253 124.47 421.054C124.941 421.847 125.446 422.611 125.982 423.342C126.504 424.053 127.057 424.729 127.64 425.367C128.204 425.988 128.797 426.57 129.416 427.111C130.021 427.637 130.652 428.12 131.304 428.557C131.948 428.991 132.613 429.378 133.296 429.714C133.993 430.059 134.707 430.349 135.435 430.582C136.155 430.811 136.886 430.983 137.624 431.097C138.364 431.212 139.109 431.268 139.854 431.267C140.611 431.265 141.366 431.206 142.116 431.09L420.616 388.418C421.028 388.354 421.435 388.25 421.833 388.107C422.242 387.959 422.64 387.773 423.025 387.551C423.427 387.319 423.815 387.053 424.186 386.756C424.579 386.441 424.956 386.096 425.313 385.724C425.679 385.345 426.026 384.942 426.356 384.518C426.689 384.084 427.017 383.619 427.338 383.123C427.654 382.628 427.96 382.102 428.256 381.547C428.552 380.991 428.836 380.407 429.109 379.793C429.382 379.184 429.64 378.55 429.883 377.893C430.126 377.235 430.353 376.56 430.565 375.867C430.778 375.172 430.974 374.461 431.155 373.734C431.335 373.007 431.5 372.262 431.648 371.5C431.804 370.711 431.939 369.914 432.052 369.109C432.165 368.304 432.262 367.492 432.342 366.673C432.42 365.854 432.478 365.029 432.517 364.198C432.555 363.367 432.575 362.531 432.575 361.691C432.571 360.856 432.552 360.028 432.516 359.206C432.479 358.384 432.421 357.573 432.341 356.773C432.264 355.97 432.168 355.179 432.052 354.402C431.937 353.625 431.802 352.861 431.648 352.111C431.5 351.384 431.335 350.679 431.155 349.996C430.977 349.312 430.78 348.649 430.566 348.008C430.352 347.367 430.125 346.749 429.884 346.154C429.639 345.563 429.38 344.993 429.106 344.444C428.833 343.894 428.548 343.378 428.253 342.896C427.967 342.426 427.661 341.974 427.335 341.542C427.027 341.133 426.699 340.747 426.353 340.385C426.023 340.039 425.675 339.721 425.311 339.43C424.952 339.143 424.575 338.889 424.184 338.67C423.809 338.461 423.42 338.289 423.022 338.155C422.24 337.893 421.426 337.795 420.615 337.866" fill="#E4E4E4"/>
<path d="M268.817 342.353C270.582 345.878 273.361 348.503 276.629 349.727C279.897 350.952 283.425 350.692 286.543 348.996C289.662 347.3 292.154 344.287 293.546 340.528C294.939 336.769 295.134 332.527 294.096 328.606L348.072 195.305L322.236 176.477L275.621 318.07C275.443 318.153 275.267 318.24 275.095 318.331C274.922 318.422 274.75 318.518 274.578 318.617C274.407 318.716 274.236 318.821 274.068 318.93C273.899 319.04 273.731 319.155 273.565 319.276C270.39 321.58 268.106 325.305 267.216 329.632C266.325 333.959 266.901 338.534 268.816 342.351L268.817 342.353Z" fill="#9E616A"/>
<path d="M337.768 246.706L299.423 234.892C299.423 234.892 300.675 231.49 302.71 225.853C304.744 220.217 307.587 212.358 310.785 203.435C313.983 194.511 317.532 184.541 320.997 174.686C324.463 164.83 327.833 155.093 330.672 146.653C333.511 138.213 336.736 133.158 339.977 130.325C342.66 127.874 346.038 126.795 349.379 127.32C351.976 127.785 354.458 128.921 356.654 130.649C357.694 131.427 358.672 132.319 359.575 133.314L368.465 152.749L337.768 246.706Z" fill="#CCCCCC"/>
<path d="M30.8925 236.15C29.9639 236.232 29.0399 236.377 28.1247 236.584C27.2037 236.791 26.293 237.059 25.3967 237.388C24.4868 237.722 23.5925 238.115 22.718 238.565C21.8229 239.026 20.9485 239.543 20.0983 240.113C19.2663 240.675 18.4532 241.287 17.659 241.947C16.8648 242.608 16.0934 243.318 15.3449 244.077C14.5972 244.834 13.8716 245.641 13.168 246.498C12.4644 247.356 11.7866 248.26 11.1343 249.211C10.4821 250.162 9.86396 251.147 9.27991 252.166C8.69586 253.185 8.14793 254.236 7.63611 255.317C7.12909 256.4 6.65494 257.512 6.2137 258.654C5.77247 259.796 5.37136 260.964 5.01034 262.159C4.63409 263.398 4.30477 264.65 4.02237 265.915C3.73997 267.181 3.50451 268.457 3.31598 269.743C3.12665 271.03 2.98466 272.325 2.89 273.629C2.79534 274.932 2.74802 276.242 2.74805 277.556C2.74805 278.87 2.79536 280.168 2.89 281.449C2.98464 282.729 3.12662 283.99 3.31598 285.231C3.50451 286.473 3.73998 287.692 4.02237 288.888C4.30476 290.085 4.63289 291.257 5.00674 292.405C5.37095 293.513 5.77207 294.585 6.2101 295.621C6.64307 296.646 7.11859 297.644 7.63489 298.612C8.1431 299.562 8.69179 300.479 9.27872 301.361C9.86006 302.237 10.4794 303.076 11.1343 303.873C11.7784 304.658 12.4573 305.399 13.168 306.095C13.864 306.777 14.5912 307.411 15.3461 307.995C16.836 309.147 18.4308 310.091 20.0994 310.807C21.81 311.542 23.5876 312.027 25.3943 312.253C26.3005 312.366 27.2114 312.414 28.1223 312.398C29.0479 312.382 29.9719 312.304 30.8901 312.162C31.8165 312.02 32.7357 311.817 33.6434 311.553C34.5539 311.288 35.4517 310.964 36.3329 310.583C37.2242 310.196 38.0978 309.753 38.9503 309.256C39.8188 308.75 40.6655 308.19 41.487 307.581C42.2868 306.981 43.0658 306.338 43.8239 305.651C44.5821 304.965 45.3165 304.233 46.0273 303.455C46.7381 302.678 47.4244 301.858 48.0863 300.996C48.7481 300.134 49.3843 299.229 49.9948 298.282C50.6093 297.336 51.1878 296.362 51.7301 295.359C52.2724 294.356 52.7803 293.327 53.2536 292.271C53.7269 291.215 54.165 290.134 54.5677 289.029C54.9704 287.924 55.3375 286.795 55.6688 285.644C56.0121 284.452 56.3126 283.25 56.5701 282.038C56.8276 280.825 57.0426 279.604 57.2151 278.375C57.3868 277.144 57.5159 275.907 57.6026 274.664C57.6892 273.421 57.7326 272.173 57.7326 270.919C57.7318 269.666 57.6884 268.427 57.6026 267.204C57.5168 265.982 57.3876 264.776 57.2151 263.588C57.0434 262.402 56.8284 261.233 56.5701 260.082C56.3118 258.93 56.0113 257.8 55.6688 256.692C55.3359 255.62 54.9688 254.58 54.5677 253.572C54.161 252.567 53.7209 251.592 53.2476 250.647C52.3106 248.779 51.2209 247.028 49.9949 245.421C49.3932 244.63 48.7577 243.877 48.0911 243.165C47.4347 242.467 46.7473 241.812 46.0322 241.202C45.3238 240.599 44.5882 240.043 43.8288 239.537C43.0699 239.032 42.2881 238.578 41.487 238.178C39.8331 237.35 38.1034 236.76 36.3342 236.42C35.4437 236.249 34.5456 236.142 33.6447 236.097C32.7268 236.053 31.8075 236.071 30.8913 236.152" fill="#E4E4E4"/>
<path d="M30.8925 372.127C29.9639 372.209 29.0399 372.354 28.1247 372.561C27.2037 372.768 26.293 373.036 25.3967 373.365C24.4868 373.699 23.5925 374.092 22.718 374.542C21.8229 375.003 20.9485 375.52 20.0983 376.09C19.2663 376.652 18.4532 377.264 17.659 377.925C16.8648 378.585 16.0934 379.295 15.3449 380.054C14.5972 380.811 13.8716 381.618 13.168 382.475C12.4644 383.333 11.7866 384.237 11.1343 385.188C10.4821 386.139 9.86396 387.124 9.27991 388.143C8.69586 389.162 8.14793 390.213 7.63611 391.294C7.12909 392.377 6.65494 393.489 6.2137 394.631C5.77247 395.773 5.37136 396.941 5.01034 398.136C4.63409 399.375 4.30477 400.627 4.02237 401.893C3.73997 403.158 3.50451 404.434 3.31598 405.72C3.12665 407.007 2.98466 408.302 2.89 409.606C2.79534 410.909 2.74802 412.219 2.74805 413.533C2.74805 414.848 2.79536 416.145 2.89 417.426C2.98464 418.706 3.12662 419.967 3.31598 421.209C3.50451 422.45 3.73998 423.669 4.02237 424.865C4.30476 426.062 4.63289 427.234 5.00674 428.382C5.37095 429.49 5.77207 430.562 6.2101 431.598C6.64307 432.623 7.11859 433.621 7.63489 434.589C8.1431 435.539 8.69179 436.456 9.27872 437.338C9.86006 438.214 10.4794 439.053 11.1343 439.85C11.7784 440.635 12.4573 441.376 13.168 442.072C13.864 442.754 14.5912 443.388 15.3461 443.972C16.836 445.124 18.4308 446.068 20.0994 446.784C21.81 447.519 23.5876 448.004 25.3943 448.23C26.3005 448.343 27.2114 448.391 28.1223 448.375C29.0479 448.359 29.9719 448.281 30.8901 448.139C31.8165 447.997 32.7357 447.794 33.6434 447.53C34.5539 447.266 35.4517 446.941 36.3329 446.56C37.2242 446.173 38.0978 445.73 38.9503 445.233C39.8188 444.727 40.6655 444.168 41.487 443.558C42.2868 442.958 43.0658 442.315 43.8239 441.628C44.5821 440.942 45.3165 440.21 46.0273 439.432C46.7381 438.655 47.4244 437.835 48.0863 436.973C48.7481 436.111 49.3843 435.206 49.9948 434.259C50.6093 433.313 51.1878 432.339 51.7301 431.336C52.2724 430.333 52.7803 429.304 53.2536 428.248C53.7269 427.192 54.165 426.111 54.5677 425.006C54.9704 423.901 55.3375 422.772 55.6688 421.621C56.0121 420.429 56.3126 419.227 56.5701 418.015C56.8276 416.802 57.0426 415.581 57.2151 414.352C57.3868 413.121 57.5159 411.884 57.6026 410.641C57.6892 409.398 57.7326 408.15 57.7326 406.896C57.7318 405.643 57.6884 404.404 57.6026 403.181C57.5168 401.959 57.3876 400.753 57.2151 399.565C57.0434 398.379 56.8284 397.21 56.5701 396.059C56.3118 394.907 56.0113 393.777 55.6688 392.669C55.3359 391.597 54.9688 390.557 54.5677 389.549C54.161 388.544 53.7209 387.569 53.2476 386.624C52.3106 384.756 51.2209 383.005 49.9949 381.398C49.3932 380.607 48.7577 379.854 48.0911 379.142C47.4347 378.444 46.7473 377.789 46.0322 377.179C45.3238 376.576 44.5882 376.02 43.8288 375.514C43.0699 375.009 42.2881 374.555 41.487 374.155C39.8331 373.327 38.1034 372.737 36.3342 372.397C35.4437 372.226 34.5456 372.119 33.6447 372.075C32.7268 372.03 31.8075 372.048 30.8913 372.129" fill="#E4E4E4"/>
<path d="M30.8972 88.8429C29.9736 88.8159 29.0496 88.8521 28.1294 88.9514C27.2131 89.0503 26.3023 89.2126 25.4014 89.4374C24.4955 89.665 23.6011 89.9548 22.7227 90.3053C21.8308 90.6603 20.9562 91.0751 20.103 91.5479C19.2678 92.0104 18.4536 92.5256 17.6637 93.0914C16.866 93.6628 16.0936 94.2838 15.3496 94.9517C14.5936 95.6303 13.8667 96.3545 13.1715 97.1215C12.4648 97.9017 11.7857 98.7286 11.1342 99.6024C10.482 100.477 9.86385 101.39 9.2798 102.342C8.69575 103.294 8.14782 104.281 7.636 105.302C7.12656 106.337 6.65122 107.397 6.20999 108.483C5.76876 109.569 5.36765 110.69 5.00663 111.848C4.63279 113.04 4.30466 114.253 4.02226 115.486C3.73986 116.718 3.5044 117.967 3.31587 119.231C3.12654 120.499 2.98455 121.778 2.88989 123.067C2.79523 124.356 2.74791 125.658 2.74794 126.973C2.74794 128.285 2.79525 129.587 2.88989 130.878C2.98453 132.17 3.12651 133.447 3.31587 134.71C3.5044 135.974 3.73987 137.22 4.02226 138.45C4.30465 139.679 4.63278 140.89 5.00663 142.081C5.37084 143.231 5.77195 144.35 6.20999 145.437C6.65123 146.52 7.12774 147.57 7.63954 148.589C8.15133 149.607 8.69929 150.589 9.28337 151.535C9.86661 152.484 10.4847 153.393 11.1378 154.261C11.7908 155.129 12.4687 155.948 13.1715 156.72C13.863 157.484 14.5863 158.205 15.3387 158.881C16.0828 159.543 16.8553 160.158 17.6528 160.723C18.4429 161.282 19.2571 161.791 20.0921 162.247C20.9455 162.714 21.8202 163.122 22.7118 163.47C24.4664 164.152 26.2807 164.589 28.1186 164.772C29.9589 164.955 31.8107 164.887 33.6384 164.57C34.5446 164.413 35.4426 164.194 36.328 163.914C37.2157 163.633 38.0895 163.292 38.9453 162.892C39.8112 162.489 40.658 162.029 41.482 161.514C42.2856 161.012 43.0672 160.461 43.8238 159.863C44.5848 159.261 45.3202 158.614 46.0272 157.923C46.738 157.229 47.4243 156.489 48.0861 155.704C48.748 154.919 49.3842 154.089 49.9947 153.213C50.6092 152.338 51.1876 151.43 51.73 150.491C52.2723 149.552 52.7801 148.582 53.2535 147.581C53.7284 146.58 54.1664 145.55 54.5675 144.492C54.9687 143.434 55.3357 142.351 55.6686 141.242C56.012 140.09 56.3124 138.923 56.57 137.741C56.8275 136.559 57.0425 135.363 57.215 134.154C57.3867 132.939 57.5158 131.716 57.6025 130.482C57.6891 129.249 57.7324 128.005 57.7324 126.751C57.7316 125.499 57.6883 124.256 57.6025 123.022C57.5166 121.789 57.3875 120.568 57.215 119.361C57.0433 118.153 56.8283 116.958 56.57 115.776C56.3117 114.595 56.0112 113.43 55.6686 112.281C55.3357 111.171 54.9687 110.089 54.5675 109.034C54.1664 107.979 53.7264 106.951 53.2475 105.951C52.7741 104.96 52.2663 103.996 51.7239 103.058C51.1816 102.121 50.6052 101.218 49.9947 100.35C49.3882 99.4832 48.7536 98.6592 48.091 97.878C47.4283 97.0969 46.7419 96.3625 46.032 95.6749C45.3254 94.9884 44.5904 94.3453 43.8298 93.7481C43.0731 93.1557 42.2915 92.6106 41.488 92.1149C40.6639 91.6061 39.817 91.1522 38.9513 90.7552C38.0952 90.3626 37.2214 90.0284 36.334 89.7541C35.4483 89.4807 34.5503 89.2682 33.6445 89.1177C32.7316 88.9664 31.8124 88.8775 30.8911 88.8515L30.8972 88.8429ZM30.8911 85.2322C34.9336 85.3652 38.8983 86.5987 42.4868 88.8399C46.053 91.0815 49.2138 94.151 51.7865 97.8708C54.4758 101.747 56.5701 106.168 57.9719 110.926C60.9738 121.167 60.9738 132.334 57.9719 142.575C56.5687 147.347 54.4747 151.783 51.7865 155.678C49.2135 159.416 46.053 162.507 42.4857 164.776C38.9018 167.044 34.9377 168.308 30.8899 168.475C26.8172 168.635 22.7685 167.665 19.0584 165.639C15.3128 163.577 11.9621 160.607 9.21598 156.915C6.29991 153.006 4.01762 148.475 2.48673 143.558C-0.828909 132.852 -0.828909 121.069 2.48673 110.363C4.01912 105.431 6.30096 100.884 9.21598 96.9537C11.9612 93.2414 15.3111 90.2459 19.0584 88.1528C22.7656 86.0986 26.8164 85.0973 30.8972 85.2264L30.8911 85.2322Z" fill="#219EBC"/>
<path d="M30.895 137.084L21.416 113.346L23.6663 111.584L31.4738 131.086L64.2561 84.7666L66.2405 87.3082L30.895 137.084Z" fill="#219EBC"/>
<path d="M299.744 304.129L260.397 480.642L274.799 649.842L306.689 650.9L299.745 498.121L339.528 421.878L348.156 651.94L377.082 649.481L393.174 451.675C398.639 436.229 402.648 420.096 405.124 403.578C407.069 390.612 408.016 377.457 407.95 364.282C407.917 355.412 407.35 346.557 406.253 337.785C405.862 334.516 405.331 331.274 404.664 328.07L392.932 313.774L299.744 304.129Z" fill="#2F2E41"/>
<path d="M351.876 333.651C345.259 333.651 339.05 333.396 333.42 332.892C327.669 332.418 321.948 331.513 316.291 330.182C311.474 329.1 306.783 327.325 302.32 324.894C298.727 323.029 295.603 320.065 293.258 316.297L292.99 315.829L303.745 231.693L315.342 137.091C316.106 130.831 318.757 125.127 322.793 121.064C326.828 117.002 331.965 114.865 337.226 115.06L373.548 116.398C376.271 116.499 378.951 117.255 381.427 118.624C383.902 119.992 386.125 121.944 387.961 124.364C389.798 126.783 391.212 129.622 392.119 132.711C393.027 135.799 393.409 139.076 393.243 142.345L388.475 236.427L406.063 329.229L404.817 329.438C404.316 329.518 402.386 329.824 399.362 330.233C395.41 330.767 391.375 331.248 387.369 331.663C381.701 332.251 376.154 332.712 370.883 333.036C364.199 333.446 357.792 333.644 351.876 333.651Z" fill="#CCCCCC"/>
<path d="M331.72 98.3426C331.71 98.3427 331.7 98.3427 331.691 98.3426C330.929 98.342 330.174 98.161 329.47 97.81C328.766 97.4589 328.127 96.9446 327.589 96.2965C327.05 95.6483 326.623 94.8791 326.332 94.0325C326.041 93.186 325.891 92.2789 325.892 91.3629V52.4359C325.886 45.4617 327.047 38.5573 329.306 32.1333C333.728 19.5971 342.005 9.59618 352.41 4.21464C358.991 0.821459 366.17 -0.556773 373.303 0.203349C380.436 0.963472 387.3 3.83821 393.282 8.57017C399.264 13.3021 404.176 19.7436 407.579 27.3177C410.982 34.8918 412.769 43.3621 412.78 51.9701V90.9565C412.781 91.8947 412.625 92.8235 412.32 93.6876C411.724 95.373 410.609 96.7164 409.208 97.4371C408.49 97.8058 407.717 97.9972 406.935 97.9998L331.715 98.3426H331.72Z" fill="#2F2E41"/>
<path d="M388.953 39.0854C391.983 45.7378 393.305 53.3204 392.752 60.8755C392.199 68.4306 389.796 75.6193 385.846 81.5337C381.897 87.4481 376.578 91.8228 370.561 94.1055C364.545 96.3881 358.1 96.4762 352.042 94.3587C348.03 92.9729 344.287 90.644 341.03 87.5068C337.772 84.3697 335.065 80.4867 333.065 76.0828C330.042 69.4333 328.725 61.8568 329.279 54.3086C329.833 46.7604 332.234 39.5785 336.179 33.6684C340.124 27.7583 345.437 23.3846 351.447 21.0988C357.457 18.8129 363.895 18.7173 369.95 20.824C373.966 22.2047 377.713 24.53 380.975 27.665C384.237 30.8 386.949 34.6824 388.953 39.0869V39.0854Z" fill="#9E616A"/>
<path d="M315.621 55.6038C315.617 50.088 316.535 44.6276 318.321 39.5469C321.818 29.6339 328.364 21.7261 336.592 17.4723C340.814 15.2978 345.357 14.1664 349.95 14.1452L356.431 14.1062C356.504 14.1057 356.577 14.1054 356.649 14.1055C361.137 14.1088 365.581 15.1747 369.726 17.2424C373.872 19.31 377.638 22.3389 380.809 26.1561C383.981 29.9733 386.496 34.5041 388.211 39.4897C389.926 44.4753 390.807 49.8182 390.804 55.2132V55.9929L377.093 56.0594L372.418 40.3584L371.483 56.0898L364.401 56.1274L362.044 48.206L361.571 56.1375L315.627 56.3849L315.621 55.6038Z" fill="#2F2E41"/>
<path d="M260.422 137.494C258.313 138.115 256.34 139.277 254.639 140.901C253.31 142.165 252.174 143.697 251.281 145.428C249.519 148.854 248.743 152.881 249.072 156.889C249.238 158.914 249.695 160.888 250.422 162.725C251.319 165.015 252.61 167.05 254.209 168.695C255.808 170.341 257.679 171.56 259.699 172.272C261.719 172.984 263.842 173.173 265.927 172.827C268.013 172.48 270.013 171.606 271.797 170.261C271.928 170.159 272.058 170.056 272.187 169.951C272.316 169.846 272.443 169.738 272.567 169.629C272.692 169.519 272.815 169.408 272.936 169.295C273.056 169.182 273.176 169.068 273.295 168.951L348.954 201.321C351.282 202.316 353.816 202.376 356.175 201.49C358.533 200.605 360.589 198.822 362.031 196.411L379.968 166.557L358.282 149.002L346.902 164.543L277.661 147.986C277.585 147.77 277.507 147.556 277.426 147.342C277.345 147.129 277.261 146.916 277.173 146.704C277.083 146.493 276.991 146.283 276.896 146.075C276.801 145.866 276.701 145.658 276.595 145.453C274.943 142.244 272.489 139.746 269.584 138.317C266.679 136.887 263.472 136.599 260.422 137.494Z" fill="#9E616A"/>
<path d="M348.122 154.742C350.386 151.347 353.55 146.939 356.765 142.566C359.98 138.194 363.243 133.86 365.704 130.618C368.165 127.376 369.821 125.228 369.821 125.228C372.093 121.099 375.483 118.042 379.417 116.578C383.35 115.113 387.585 115.33 391.4 117.193C395.215 119.055 398.377 122.448 400.347 126.795C402.318 131.141 402.976 136.174 402.21 141.038C401.772 143.838 400.867 146.502 399.551 148.871C399.551 148.871 397.082 152.754 393.356 158.55C389.63 164.345 384.645 172.06 379.617 179.73C374.589 187.4 369.511 195.03 365.596 200.662C361.681 206.294 358.926 209.933 358.538 209.621L344.882 160.825C344.494 160.514 345.859 158.138 348.122 154.742Z" fill="#CCCCCC"/>
<path d="M356.228 97.116C356.013 98.3745 356.096 99.6801 356.468 100.884C356.655 101.501 356.913 102.083 357.234 102.613C357.509 103.065 357.827 103.476 358.182 103.838C359.234 104.907 360.569 105.49 361.946 105.483C362.032 105.482 362.118 105.479 362.204 105.474C362.29 105.469 362.375 105.462 362.461 105.453C362.548 105.444 362.634 105.432 362.72 105.418C362.806 105.403 362.892 105.387 362.979 105.369L367.845 104.305L374.548 87.0913V102.859L396.673 98.0708V31.1599L359.582 31.374L360.499 32.6542C363.542 36.9498 365.541 42.1716 366.275 47.7448C366.994 53.3896 366.904 59.141 366.008 64.7491C365.136 70.4238 363.814 75.9849 362.058 81.3557C360.523 86.1137 358.762 90.7615 356.783 95.2759C356.527 95.8551 356.34 96.4745 356.228 97.116Z" fill="#2F2E41"/>
</g>
<defs>
<clipPath id="clip0_147_275">
<rect width="559" height="700" fill="white"/>
</clipPath>
</defs>
</svg>
