<svg width="263" height="224" viewBox="0 0 263 224" fill="none" xmlns="http://www.w3.org/2000/svg">
<g clip-path="url(#clip0_26_472)">
<path d="M261.764 13.5439L0.227628 40.2049C0.197249 40.2081 0.16644 40.2037 0.138965 40.1923C0.110378 40.1801 0.0855899 40.1623 0.0666078 40.1405C0.044673 40.1156 0.0281072 40.0876 0.0176766 40.0578C0.00566776 40.0236 -0.00028747 39.9881 1.0663e-05 39.9525C1.97782e-05 39.9156 0.00607418 39.8788 0.0180099 39.8434C0.0291889 39.8105 0.046013 39.7793 0.0679411 39.7507C0.0870308 39.7249 0.11156 39.7024 0.140298 39.6841C0.16626 39.6676 0.196786 39.657 0.228961 39.6533L261.764 12.6244C261.846 12.6155 261.929 12.6191 262.01 12.6351C262.083 12.6494 262.151 12.6758 262.212 12.7128C262.268 12.7475 262.315 12.7927 262.347 12.8449C262.38 12.8982 262.397 12.9575 262.397 13.0177C262.397 13.0814 262.38 13.1443 262.347 13.2019C262.314 13.2618 262.268 13.316 262.212 13.362C262.152 13.4107 262.084 13.4509 262.01 13.4812C261.933 13.5135 261.849 13.5347 261.764 13.5439Z" fill="#CACACA"/>
<path d="M262.235 223.997L0.167723 201.389C0.137267 201.386 0.108349 201.376 0.0845003 201.36C0.0597712 201.343 0.0401909 201.321 0.0273294 201.296C0.0123706 201.267 0.00344738 201.237 0.000983836 201.206C-0.00187801 201.17 0.00151283 201.135 0.0110367 201.1C0.0205975 201.064 0.0360178 201.029 0.0568481 200.997C0.0762463 200.967 0.100739 200.94 0.129552 200.916C0.154843 200.894 0.184607 200.877 0.217361 200.864C0.246966 200.853 0.279507 200.848 0.311851 200.851L262.473 223.1C262.555 223.106 262.636 223.125 262.71 223.156C262.777 223.184 262.837 223.222 262.887 223.269C262.933 223.314 262.967 223.366 262.985 223.424C263.003 223.482 263.005 223.543 262.989 223.601C262.972 223.663 262.939 223.722 262.893 223.772C262.845 223.824 262.786 223.868 262.719 223.903C262.648 223.939 262.572 223.966 262.491 223.982C262.407 223.999 262.321 224.004 262.235 223.997Z" fill="#CACACA"/>
<path d="M5.42151 29.6134C5.7621 29.5688 6.11062 29.6088 6.42497 29.7286C6.74829 29.8555 7.03075 30.0465 7.2484 30.2856C7.49832 30.5587 7.68714 30.8683 7.80551 31.1991C7.94395 31.5814 8.01268 31.9795 8.00933 32.3794C8.00974 32.795 7.94113 33.2085 7.80551 33.6078C7.68122 33.978 7.49351 34.3307 7.2484 34.6546C7.0303 34.9464 6.75126 35.2021 6.42497 35.4092C6.13056 35.596 5.78553 35.7171 5.42151 35.7615C5.08097 35.8008 4.73429 35.7559 4.42314 35.6323C4.10366 35.5012 3.8255 35.3077 3.6116 35.0677C3.36686 34.7951 3.18205 34.4873 3.06603 34.1591C2.9308 33.7812 2.86347 33.3881 2.8663 32.9932C2.86622 32.5828 2.93344 32.1744 3.06603 31.7798C3.18767 31.4128 3.37131 31.0626 3.61126 30.7402C3.82612 30.4482 4.10112 30.1912 4.42315 29.9816C4.71478 29.7906 5.05785 29.6641 5.42151 29.6134Z" fill="#3F3D56"/>
<path d="M14.5091 28.4579C14.8649 28.4113 15.229 28.4512 15.5591 28.573C15.8962 28.7004 16.1921 28.8946 16.422 29.1393C16.6828 29.4169 16.8805 29.7332 17.0049 30.0721C17.1496 30.4626 17.2215 30.8699 17.2179 31.2792C17.218 31.7048 17.1459 32.1282 17.0039 32.5364C16.8735 32.9158 16.6773 33.2767 16.422 33.6073C16.1925 33.9074 15.9006 34.1696 15.5605 34.3812C15.2512 34.5742 14.8906 34.6996 14.5105 34.7462C14.1548 34.7873 13.7927 34.7423 13.4659 34.6164C13.133 34.4841 12.842 34.2868 12.6166 34.0406C12.3609 33.7635 12.1672 33.4492 12.0449 33.113C11.9035 32.7272 11.8331 32.3252 11.836 31.9212C11.836 31.5011 11.9064 31.0831 12.0449 30.6798C12.1726 30.303 12.3648 29.9441 12.6153 29.6146C12.8413 29.3146 13.1289 29.0513 13.4645 28.8373C13.7711 28.6406 14.1297 28.5104 14.5091 28.4579Z" fill="#3F3D56"/>
<path d="M24.0214 27.2461C24.3934 27.197 24.7741 27.2364 25.1213 27.3599C25.4724 27.4888 25.782 27.6872 26.0239 27.9385C26.2967 28.2208 26.5042 28.5442 26.6353 28.8917C26.7873 29.2902 26.8631 29.7068 26.8599 30.1256C26.8598 30.5617 26.7842 30.9955 26.6353 31.413C26.4977 31.8033 26.2916 32.1739 26.0239 32.5122C25.7822 32.8211 25.4764 33.0904 25.1213 33.3067C24.7958 33.5055 24.4184 33.6345 24.0214 33.6827C23.6495 33.7259 23.2708 33.681 22.9272 33.5529C22.5801 33.4197 22.2753 33.2187 22.0375 32.9665C21.7711 32.6843 21.5688 32.3626 21.441 32.0179C21.2932 31.6243 21.2194 31.2134 21.2222 30.8004C21.2222 30.3695 21.2959 29.9409 21.441 29.5279C21.5751 29.1412 21.7761 28.7735 22.0375 28.4368C22.2755 28.1276 22.5769 27.8569 22.9275 27.6377C23.25 27.435 23.6251 27.3007 24.0214 27.2461Z" fill="#3F3D56"/>
<path d="M247.669 1.81262L231.722 3.76651C231.573 3.78567 231.421 3.78088 231.274 3.75241C231.141 3.7265 231.017 3.67747 230.908 3.60846C230.805 3.54284 230.721 3.45793 230.662 3.3603C230.602 3.25833 230.571 3.14581 230.572 3.03182C230.573 2.91042 230.604 2.79052 230.662 2.67974C230.722 2.56536 230.806 2.46073 230.908 2.37055C231.014 2.27658 231.138 2.19775 231.274 2.13707C231.414 2.07423 231.565 2.03198 231.722 2.01212L247.668 0.0130345C247.825 -0.00760736 247.985 -0.00370545 248.14 0.0245484C248.279 0.0496075 248.411 0.0986006 248.526 0.16849C248.638 0.235911 248.728 0.325125 248.79 0.428531C248.852 0.531936 248.883 0.646477 248.882 0.762407C248.881 0.887698 248.848 1.01136 248.786 1.12514C248.722 1.24364 248.634 1.35171 248.526 1.44441C248.295 1.64301 247.994 1.77254 247.668 1.81348L247.669 1.81262Z" fill="#3F3D56"/>
<path d="M247.669 5.18655L231.722 7.05781C231.572 7.07619 231.42 7.07063 231.274 7.0414C231.141 7.01534 231.017 6.96633 230.908 6.89746C230.805 6.83133 230.721 6.74605 230.662 6.64814C230.601 6.54482 230.57 6.43078 230.572 6.31535C230.573 6.19413 230.604 6.0744 230.662 5.96384C230.722 5.84987 230.806 5.74572 230.908 5.65608C231.015 5.56311 231.138 5.48534 231.274 5.42579C231.414 5.36365 231.565 5.32218 231.722 5.30314L247.668 3.38696C247.825 3.36718 247.985 3.37197 248.14 3.40107C248.279 3.42716 248.411 3.47713 248.526 3.54789C248.635 3.61484 248.724 3.70223 248.787 3.80325C248.85 3.90826 248.883 4.02471 248.882 4.14267C248.881 4.26778 248.848 4.39126 248.786 4.50483C248.722 4.62256 248.634 4.72976 248.526 4.82151C248.294 5.01906 247.993 5.14706 247.668 5.18597L247.669 5.18655Z" fill="#3F3D56"/>
<path d="M247.669 8.56019L231.722 10.3451C231.572 10.3627 231.42 10.3563 231.274 10.3264C231.141 10.2993 231.017 10.2493 230.908 10.1796C230.803 10.1117 230.717 10.0239 230.659 9.92313C230.6 9.82237 230.571 9.71143 230.572 9.59918C230.573 9.47807 230.603 9.35842 230.662 9.24795C230.722 9.13429 230.805 9.0305 230.908 8.94135C231.014 8.84824 231.138 8.77045 231.274 8.71106C231.414 8.64959 231.565 8.60889 231.722 8.59072L247.668 6.76093C247.826 6.74202 247.986 6.74768 248.14 6.77762C248.28 6.8045 248.411 6.85515 248.526 6.92647C248.635 6.994 248.724 7.08186 248.787 7.18326C248.85 7.2884 248.883 7.40492 248.882 7.52297C248.881 7.6479 248.848 7.7712 248.786 7.88456C248.722 8.00237 248.634 8.1096 248.526 8.20124C248.294 8.39762 247.993 8.52406 247.668 8.56109L247.669 8.56019Z" fill="#3F3D56"/>
<path d="M171.851 39.7137L248.882 34.1846V73.0984L171.851 73.9502V39.7137Z" fill="#F0F0F0"/>
<path d="M231.878 90.6894L186.13 89.9191C185.602 89.911 185.097 89.7309 184.722 89.4161C184.541 89.2653 184.397 89.0865 184.296 88.8896C184.193 88.6878 184.14 88.4703 184.14 88.2505C184.14 88.0325 184.193 87.8168 184.296 87.6171C184.396 87.423 184.541 87.2477 184.722 87.1012C184.904 86.9532 185.119 86.8364 185.354 86.7575C185.601 86.6747 185.865 86.6339 186.13 86.6374L231.877 87.1481C232.188 87.1512 232.495 87.2018 232.784 87.2975C233.057 87.3879 233.308 87.5197 233.526 87.6865C233.735 87.8466 233.906 88.0402 234.027 88.2562C234.148 88.4733 234.211 88.7103 234.211 88.9503C234.211 89.1887 234.149 89.4241 234.027 89.6392C233.906 89.8518 233.736 90.0412 233.526 90.196C233.308 90.357 233.056 90.4819 232.784 90.5642C232.493 90.6521 232.186 90.6942 231.877 90.6883L231.878 90.6894Z" fill="#E4E4E4"/>
<path d="M224.019 84.5719L193.048 84.3514C192.775 84.3498 192.505 84.3037 192.253 84.2155C192.012 84.1313 191.793 84.0093 191.605 83.8559C191.421 83.7053 191.273 83.5256 191.169 83.3271C191.064 83.124 191.01 82.9046 191.01 82.6828C191.01 82.4609 191.064 82.2415 191.169 82.0385C191.273 81.8409 191.421 81.6625 191.605 81.5134C191.793 81.3616 192.012 81.2415 192.253 81.1595C192.505 81.0733 192.776 81.0294 193.048 81.0303L224.019 81.0752C224.321 81.0752 224.62 81.1222 224.902 81.214C225.168 81.3006 225.414 81.4284 225.625 81.5908C225.831 81.7479 225.997 81.9381 226.115 82.1502C226.233 82.3639 226.294 82.597 226.294 82.833C226.294 83.0691 226.233 83.3022 226.115 83.5159C225.997 83.7266 225.831 83.9151 225.626 84.0704C225.414 84.2311 225.168 84.3569 224.902 84.4412C224.62 84.5306 224.32 84.5751 224.019 84.5725L224.019 84.5719Z" fill="#E4E4E4"/>
<path d="M171.851 101.971L248.882 104.948V143.861L171.851 136.207V101.971Z" fill="#F0F0F0"/>
<path d="M231.878 159.575L186.13 153.753C185.857 153.717 185.594 153.64 185.354 153.525C185.116 153.412 184.903 153.266 184.722 153.093C184.543 152.924 184.399 152.73 184.296 152.52C184.194 152.312 184.141 152.09 184.14 151.864C184.138 151.651 184.192 151.441 184.296 151.247C184.395 151.066 184.54 150.906 184.722 150.779C184.907 150.65 185.122 150.557 185.354 150.506C185.607 150.45 185.871 150.438 186.13 150.471L231.877 156.033C232.194 156.072 232.5 156.156 232.784 156.283C233.059 156.405 233.31 156.564 233.526 156.753C233.735 156.936 233.904 157.148 234.027 157.379C234.147 157.604 234.209 157.848 234.211 158.094C234.213 158.326 234.15 158.555 234.027 158.763C233.908 158.96 233.736 159.132 233.526 159.264C233.305 159.402 233.052 159.5 232.784 159.55C232.486 159.606 232.179 159.615 231.877 159.574L231.878 159.575Z" fill="#E4E4E4"/>
<path d="M224.019 152.59L193.048 148.949C192.769 148.916 192.5 148.84 192.253 148.726C192.01 148.613 191.792 148.467 191.606 148.294C191.422 148.125 191.275 147.93 191.17 147.718C191.065 147.508 191.011 147.283 191.01 147.055C191.008 146.839 191.063 146.626 191.169 146.429C191.271 146.245 191.42 146.082 191.605 145.952C191.795 145.82 192.016 145.724 192.253 145.67C192.512 145.611 192.782 145.597 193.048 145.629L224.019 149.093C224.327 149.128 224.626 149.208 224.902 149.329C225.171 149.447 225.415 149.601 225.625 149.786C225.83 149.965 225.995 150.172 226.114 150.399C226.231 150.62 226.292 150.86 226.294 151.102C226.295 151.332 226.234 151.558 226.114 151.764C225.998 151.96 225.831 152.132 225.625 152.265C225.411 152.403 225.164 152.502 224.902 152.556C224.613 152.614 224.313 152.626 224.019 152.589V152.59Z" fill="#E4E4E4"/>
<path d="M127.102 136.501L5.98939 123.36C5.65975 123.32 5.34724 123.211 5.08069 123.042C4.78767 122.857 4.53714 122.628 4.34151 122.366C4.12262 122.077 3.95516 121.761 3.84453 121.43C3.72347 121.073 3.66206 120.702 3.66211 120.33V55.51C3.6616 55.1399 3.72302 54.7716 3.84453 54.416C3.95448 54.0914 4.12206 53.7828 4.34151 53.5009C4.53665 53.247 4.78746 53.0272 5.08035 52.8534C5.34921 52.694 5.66233 52.5964 5.98904 52.5704L127.102 44.1664C127.621 44.1286 128.143 44.1876 128.632 44.3393C129.121 44.491 129.565 44.7317 129.932 45.0444C130.305 45.3609 130.599 45.7377 130.796 46.1525C131.009 46.6001 131.117 47.0784 131.115 47.5609V133.263C131.118 133.741 131.01 134.216 130.796 134.658C130.6 135.064 130.306 135.43 129.932 135.733C129.569 136.026 129.133 136.247 128.656 136.381C128.155 136.519 127.624 136.56 127.102 136.501Z" fill="white"/>
<path d="M79.2139 88.704C78.889 88.346 78.5228 88.0164 78.1207 87.72C77.7383 87.4379 77.3217 87.1911 76.8778 86.9835C76.4498 86.7835 75.9965 86.6252 75.5265 86.5117C75.0643 86.4003 74.5881 86.3362 74.1079 86.3208C73.6331 86.3058 73.1579 86.3398 72.6927 86.4219C72.2292 86.504 71.7788 86.632 71.3506 86.8033C70.9131 86.9785 70.5001 87.1945 70.1192 87.4473C69.7223 87.7108 69.3592 88.0089 69.0359 88.3366L36.4476 121.342C36.0712 121.733 35.589 122.042 35.0419 122.241C34.5407 122.418 33.994 122.483 33.4545 122.43C32.8909 122.37 32.3512 122.201 31.878 121.935C31.3351 121.629 30.867 121.237 30.4995 120.78L26.1826 115.521C25.686 114.898 25.0493 114.363 24.3088 113.949C23.676 113.595 22.9523 113.376 22.1986 113.309C21.483 113.25 20.762 113.354 20.1088 113.608C19.3935 113.894 18.7695 114.321 18.289 114.854L10.479 123.246L119.656 134.928V133.287L79.2139 88.704Z" fill="#6C63FF"/>
<path d="M127.102 137.741L5.98947 124.311C5.5478 124.257 5.12938 124.109 4.77267 123.882C4.38067 123.633 4.04565 123.326 3.78415 122.975C3.49176 122.587 3.26812 122.165 3.12038 121.722C2.95869 121.243 2.87659 120.748 2.87647 120.25V55.5589C2.87605 55.0643 2.95817 54.5722 3.12038 54.0971C3.26702 53.6618 3.49083 53.248 3.78415 52.8698C4.04511 52.5295 4.38053 52.2347 4.77232 52.0012C5.13211 51.7869 5.55136 51.6552 5.98912 51.6192L127.101 42.925C127.797 42.8727 128.499 42.9505 129.155 43.1528C129.812 43.3552 130.408 43.6772 130.902 44.0961C131.404 44.5203 131.8 45.0259 132.065 45.5828C132.352 46.1839 132.498 46.8265 132.495 47.4748V133.403C132.499 134.046 132.353 134.683 132.065 135.278C131.801 135.822 131.405 136.313 130.902 136.719C130.413 137.112 129.827 137.408 129.187 137.585C128.514 137.768 127.801 137.821 127.101 137.741L127.102 137.741ZM5.98947 53.5216C5.77391 53.5382 5.56717 53.6021 5.38956 53.707C5.19596 53.8213 5.03012 53.9662 4.90107 54.1336C4.75585 54.3198 4.64497 54.5237 4.57225 54.7382C4.4918 54.9729 4.45108 55.2161 4.45131 55.4605V120.408C4.45136 120.654 4.49207 120.899 4.57225 121.135C4.64544 121.353 4.75623 121.562 4.90107 121.753C5.0303 121.926 5.19612 122.078 5.39024 122.201C5.56633 122.312 5.77266 122.384 5.99015 122.409L127.102 135.26C127.447 135.298 127.797 135.27 128.127 135.178C128.44 135.09 128.727 134.944 128.966 134.75C129.212 134.55 129.405 134.309 129.534 134.042C129.674 133.75 129.745 133.438 129.743 133.123V47.6466C129.745 47.3292 129.674 47.0145 129.534 46.7199C129.404 46.4467 129.211 46.1983 128.966 45.9896C128.724 45.783 128.432 45.6238 128.11 45.5232C127.789 45.4225 127.444 45.3828 127.102 45.4069L5.98947 53.5216Z" fill="#CBCBCB"/>
<path d="M22.976 205.194L26.6175 205.193L28.3497 193.29L22.9756 193.29L22.976 205.194Z" fill="#FFB6B6"/>
<path d="M22.0474 204.186L29.2187 204.186H29.219C30.431 204.186 31.5934 204.594 32.4504 205.32C33.3075 206.047 33.789 207.032 33.7891 208.059V208.185L22.0476 208.185L22.0474 204.186Z" fill="#2F2E41"/>
<path d="M56.5395 209.266L60.181 209.266L61.9132 197.363L56.5391 197.363L56.5395 209.266Z" fill="#FFB6B6"/>
<path d="M55.6108 208.259L62.7821 208.259H62.7824C63.9945 208.259 65.1568 208.667 66.0139 209.393C66.8709 210.12 67.3525 211.105 67.3526 212.132V212.258L55.6111 212.258L55.6108 208.259Z" fill="#2F2E41"/>
<path d="M52.1431 113.638L54.5193 126.476L31.9453 126.728L34.9157 114.394L52.1431 113.638Z" fill="#FFB6B6"/>
<path d="M53.8639 123.341L61.0535 139.565L61.9446 206.8H55.8556L41.3015 152.781L27.9356 201.317H21.9951L26.1534 146.236C26.1534 146.236 24.9272 134.363 31.2028 127.357L32.7303 123.617L53.8639 123.341Z" fill="#2F2E41"/>
<path d="M23.0246 135.989C23.6532 135.844 24.2365 135.584 24.7335 135.227C25.2306 134.87 25.6292 134.425 25.9014 133.923C26.1736 133.422 26.3127 132.876 26.309 132.324C26.3052 131.772 26.1587 131.227 25.8797 130.728L35.4828 104.194L28.4193 103.008L19.6363 129.016C18.6784 129.469 17.9498 130.204 17.5884 131.081C17.2271 131.959 17.2583 132.919 17.6759 133.778C18.0936 134.638 18.8688 135.337 19.8546 135.745C20.8404 136.152 21.9683 136.239 23.0246 135.989Z" fill="#FFB6B6"/>
<path d="M35.6899 120.728C35.5581 120.728 35.4266 120.717 35.2974 120.695C34.8627 120.622 34.4685 120.429 34.1749 120.148C33.8813 119.867 33.7044 119.511 33.6714 119.137C33.4481 116.546 32.3417 112.036 30.383 105.732C29.7218 103.59 29.8682 101.326 30.8018 99.2573C31.7354 97.1889 33.4093 95.42 35.589 94.1984C37.7686 92.9769 40.3446 92.364 42.9559 92.4457C45.5673 92.5274 48.083 93.2996 50.1504 94.654C51.4741 95.5133 52.5789 96.5908 53.3983 97.8216C54.2176 99.0523 54.7345 100.411 54.918 101.816C55.8914 109.081 54.0562 116.376 53.222 119.175C53.1123 119.54 52.8644 119.865 52.5161 120.099C52.1679 120.334 51.7385 120.465 51.2937 120.473L35.7331 120.728C35.7187 120.728 35.7043 120.728 35.6899 120.728Z" fill="#3F3D56"/>
<path d="M79.1634 97.4213C79.07 97.599 78.9932 97.7826 78.9338 97.9705L59.4563 103.58L55.6927 100.793L49.9883 105.057L56.0854 110.539C56.5779 110.982 57.2267 111.277 57.9343 111.381C58.6419 111.485 59.3701 111.391 60.0096 111.114L80.8516 102.092C81.6054 102.484 82.482 102.672 83.3649 102.631C84.2478 102.59 85.0951 102.323 85.7942 101.864C86.4933 101.405 87.0111 100.777 87.2785 100.063C87.546 99.3485 87.5505 98.5821 87.2916 97.8656C87.0326 97.1492 86.5224 96.5165 85.8287 96.0517C85.1351 95.587 84.291 95.3122 83.4086 95.264C82.5262 95.2158 81.6474 95.3963 80.8891 95.7817C80.1308 96.1671 79.5289 96.739 79.1634 97.4213V97.4213Z" fill="#FFB6B6"/>
<path d="M58.7775 103.886L51.6771 109.142C51.4751 109.291 51.2374 109.402 50.9802 109.467C50.7231 109.532 50.4525 109.549 50.1869 109.517C49.9214 109.485 49.667 109.405 49.4413 109.282C49.2155 109.159 49.0236 108.997 48.8786 108.805L43.7999 102.103C42.9032 101.223 42.4549 100.077 42.5534 98.9169C42.6519 97.7569 43.2891 96.6773 44.3253 95.9148C45.3615 95.1524 46.7121 94.7692 48.0812 94.8493C49.4502 94.9295 50.7259 95.4664 51.6285 96.3423L58.7604 101.491C58.9645 101.638 59.1288 101.821 59.2419 102.027C59.3551 102.233 59.4145 102.458 59.4161 102.685C59.4177 102.912 59.3615 103.137 59.2513 103.345C59.1411 103.552 58.9795 103.737 58.7775 103.886Z" fill="#3F3D56"/>
<path d="M34.3609 110.988L25.5864 108.066C25.3367 107.983 25.1111 107.856 24.925 107.692C24.7388 107.528 24.5965 107.332 24.5077 107.118C24.4188 106.904 24.3856 106.675 24.4102 106.449C24.4348 106.223 24.5167 106.003 24.6503 105.806L29.3319 98.8994C29.8411 97.8194 30.8348 96.9546 32.0951 96.4946C33.3555 96.0345 34.7796 96.0168 36.0554 96.4452C37.3312 96.8736 38.3545 97.7132 38.9009 98.78C39.4474 99.8468 39.4724 101.054 38.9706 102.136L36.862 109.872C36.8016 110.093 36.6855 110.301 36.5217 110.481C36.358 110.661 36.1503 110.809 35.913 110.915C35.6756 111.021 35.4141 111.082 35.1463 111.095C34.8785 111.108 34.6106 111.071 34.3609 110.988Z" fill="#3F3D56"/>
<path d="M40.8653 90.8104C46.1366 90.8104 50.4099 87.1889 50.4099 82.7216C50.4099 78.2543 46.1366 74.6328 40.8653 74.6328C35.594 74.6328 31.3208 78.2543 31.3208 82.7216C31.3208 87.1889 35.594 90.8104 40.8653 90.8104Z" fill="#FFB6B6"/>
<path d="M53.6434 79.9948H38.4878V74.3961C41.8143 73.2761 45.0694 72.3236 47.0371 74.3961C48.7892 74.3961 50.4695 74.9859 51.7084 76.0359C52.9474 77.0859 53.6434 78.5099 53.6434 79.9948V79.9948Z" fill="#2F2E41"/>
<path d="M37.6136 91.1026C43.6458 91.1026 48.5358 86.9583 48.5358 81.8462C48.5358 76.7341 43.6458 72.5898 37.6136 72.5898C31.5814 72.5898 26.6914 76.7341 26.6914 81.8462C26.6914 86.9583 31.5814 91.1026 37.6136 91.1026Z" fill="#2F2E41"/>
<path d="M29.75 80.7353C33.6106 80.7353 36.7402 78.083 36.7402 74.8113C36.7402 71.5395 33.6106 68.8872 29.75 68.8872C25.8894 68.8872 22.7598 71.5395 22.7598 74.8113C22.7598 78.083 25.8894 80.7353 29.75 80.7353Z" fill="#2F2E41"/>
<rect y="144" width="263" height="107" fill="white"/>
</g>
<defs>
<clipPath id="clip0_26_472">
<rect width="263" height="224" fill="white"/>
</clipPath>
</defs>
</svg>
