<svg width="45" height="52" viewBox="0 0 45 52" fill="none" xmlns="http://www.w3.org/2000/svg">
<path d="M22.7083 0.166748C10.5925 0.166748 0.75 10.0092 0.75 22.1251C0.75 34.2409 10.5925 44.0834 22.7083 44.0834H24V51.8334C36.555 45.7884 44.6667 33.7501 44.6667 22.1251C44.6667 10.0092 34.8242 0.166748 22.7083 0.166748ZM25.2917 37.6251H20.125V32.4584H25.2917V37.6251ZM25.2917 28.5834H20.125C20.125 20.1876 27.875 20.8334 27.875 15.6667C27.875 12.8251 25.55 10.5001 22.7083 10.5001C19.8667 10.5001 17.5417 12.8251 17.5417 15.6667H12.375C12.375 9.95758 16.9992 5.33341 22.7083 5.33341C28.4175 5.33341 33.0417 9.95758 33.0417 15.6667C33.0417 22.1251 25.2917 22.7709 25.2917 28.5834Z" fill="black"/>
</svg>
