<svg width="17" height="17" viewBox="0 0 17 17" fill="none" xmlns="http://www.w3.org/2000/svg">
<path d="M7.33366 14.0001C8.81281 13.9998 10.2493 13.5046 11.4145 12.5934L15.0778 16.2567L16.2562 15.0784L12.5928 11.4151C13.5045 10.2498 14 8.81295 14.0003 7.33341C14.0003 3.65758 11.0095 0.666748 7.33366 0.666748C3.65783 0.666748 0.666992 3.65758 0.666992 7.33341C0.666992 11.0092 3.65783 14.0001 7.33366 14.0001ZM7.33366 2.33341C10.0912 2.33341 12.3337 4.57591 12.3337 7.33341C12.3337 10.0909 10.0912 12.3334 7.33366 12.3334C4.57616 12.3334 2.33366 10.0909 2.33366 7.33341C2.33366 4.57591 4.57616 2.33341 7.33366 2.33341Z" fill="#023047"/>
</svg>
